<?xml version="1.0" encoding="utf-8"?>
<!-- Generator: Adobe Illustrator 19.0.0, SVG Export Plug-In . SVG Version: 6.00 Build 0)  -->
<svg version="1.1" id="layer" xmlns="http://www.w3.org/2000/svg" xmlns:xlink="http://www.w3.org/1999/xlink" x="0px" y="0px"
	 viewBox="-153 -46 652 652" style="enable-background:new -153 -46 652 652;" xml:space="preserve">
<style type="text/css">
	.st0{fill:#2E2C6C;}
	.st1{fill:#008AB2;}
	.st2{clip-path:url(#SVGID_2_);fill:url(#SVGID_3_);}
	.st3{clip-path:url(#SVGID_5_);fill:url(#SVGID_6_);}
	.st4{clip-path:url(#SVGID_8_);fill:url(#SVGID_9_);}
	.st5{clip-path:url(#SVGID_11_);fill:url(#SVGID_12_);}
	.st6{clip-path:url(#SVGID_14_);fill:url(#SVGID_15_);}
	.st7{clip-path:url(#SVGID_17_);fill:url(#SVGID_18_);}
	.st8{clip-path:url(#SVGID_20_);fill:url(#SVGID_21_);}
	.st9{clip-path:url(#SVGID_23_);fill:url(#SVGID_24_);}
</style>
<path class="st0" d="M15,337.9l15.1-35.4h2.2L47.2,338l-2.7,0l-4.9-11.7l-16.9,0l-5,11.7L15,337.9z M23.3,324.2l15.6,0l-7.7-18.6
	L23.3,324.2z M54.3,338l0-16c0.3-1.2,0.8-2.3,1.4-3.3c0.6-1,1.3-1.8,2.1-2.5c0.8-0.7,1.7-1.3,2.6-1.6c0.9-0.4,1.9-0.6,3-0.6
	c2.1,0,3.6,0.8,4.6,2.3c1,1.5,1.5,4,1.5,7.3l0,14.5l2.5,0l0-16c0.3-1.2,0.8-2.3,1.4-3.3c0.6-1,1.3-1.8,2.1-2.5
	c0.8-0.7,1.7-1.3,2.6-1.7c1-0.4,2-0.6,3-0.6c2.1,0,3.6,0.8,4.7,2.4c1,1.6,1.5,4,1.5,7.3l0,14.5l2.5,0l0-14.9c0-3.6-0.6-6.5-1.8-8.5
	c-1.2-2-3.2-3-6-3c0,0,0,0,0,0c-4.3,0-7.7,2.3-10.1,7c-0.3-2.1-1.1-3.8-2.4-5.1c-1.4-1.3-3.1-1.9-5.3-1.9c-2.1,0-4,0.6-5.7,1.7
	c-1.7,1.2-3.1,2.8-4.2,4.9l0-6.2l-2.3,0L51.8,338L54.3,338z M95.4,325c0-1.8,0.3-3.6,1-5.2c0.6-1.6,1.5-3,2.7-4.2
	c1.1-1.2,2.5-2.2,4-2.9c1.6-0.7,3.2-1,5-1c1.8,0,3.5,0.4,5.1,1.1c1.6,0.7,2.9,1.7,4,2.9c1.1,1.2,2,2.6,2.6,4.2
	c0.6,1.6,0.9,3.3,0.9,5.1c0,0.2,0,0.4,0,0.6s0,0.4,0,0.5L98,326.1c0.1,1.5,0.4,2.9,1,4.2c0.6,1.3,1.3,2.4,2.3,3.3
	c0.9,0.9,2,1.7,3.2,2.2c1.2,0.5,2.5,0.8,3.8,0.8c0.9,0,1.8-0.1,2.6-0.4c0.9-0.2,1.7-0.6,2.4-1c0.7-0.4,1.4-1,2-1.6
	c0.6-0.6,1.1-1.3,1.4-2l2.2,0.6c-0.4,0.9-0.9,1.8-1.6,2.6c-0.7,0.8-1.6,1.5-2.5,2c-1,0.6-2,1-3.1,1.3c-1.1,0.3-2.3,0.5-3.5,0.5
	c-1.8,0-3.5-0.4-5.1-1.1c-1.6-0.7-2.9-1.7-4-2.9c-1.1-1.2-2-2.7-2.7-4.3C95.8,328.6,95.4,326.9,95.4,325 M98,324.2l20.5,0
	c-0.1-1.5-0.4-2.9-1-4.2c-0.6-1.3-1.3-2.4-2.2-3.3c-0.9-0.9-2-1.6-3.2-2.2c-1.2-0.5-2.5-0.8-3.8-0.8c-1.4,0-2.6,0.2-3.8,0.8
	c-1.2,0.5-2.3,1.2-3.2,2.1c-0.9,0.9-1.6,2-2.2,3.3C98.4,321.2,98.1,322.6,98,324.2 M128.7,338.2l0-16.2c0.7-2.3,1.9-4.1,3.7-5.4
	c1.8-1.3,3.8-2,6.1-2.1l0-2.3c-0.2,0-0.4,0-0.7,0c-0.3,0-0.6,0-0.9,0c-1.7,0.2-3.3,0.8-4.8,1.9c-1.5,1.1-2.7,2.6-3.6,4.4l0-6.3
	l-2.4,0l-0.1,25.9L128.7,338.2z M143.3,338.2l0.1-25.9l2.5,0l-0.1,25.9L143.3,338.2z M143.3,306.4l0-4.6l2.5,0l0,4.6L143.3,306.4z
	 M151.8,325.1c0,1.9,0.3,3.6,1,5.2c0.6,1.6,1.5,3.1,2.7,4.3c1.1,1.2,2.5,2.2,4,2.9c1.6,0.7,3.3,1.1,5.1,1.1c1.2,0,2.4-0.1,3.5-0.5
	c1.1-0.3,2.2-0.7,3.1-1.3c0.9-0.6,1.7-1.2,2.4-2c0.7-0.8,1.2-1.6,1.5-2.5l-2.4-0.7c-0.2,0.6-0.6,1.2-1.1,1.8c-0.6,0.6-1.2,1.1-2,1.5
	c-0.7,0.4-1.6,0.8-2.4,1c-0.9,0.3-1.8,0.4-2.7,0.4c-1.4,0-2.7-0.3-4-0.9c-1.2-0.6-2.3-1.4-3.2-2.4c-0.9-1-1.6-2.2-2.2-3.6
	c-0.5-1.4-0.8-2.9-0.8-4.4c0-1.6,0.3-3,0.8-4.3c0.5-1.3,1.3-2.5,2.2-3.5c0.9-1,2-1.8,3.2-2.3c1.2-0.6,2.6-0.8,4-0.8
	c1.7,0,3.3,0.4,4.7,1.2c1.4,0.8,2.5,1.9,3.3,3.4l2.4-0.8c-0.9-1.9-2.2-3.4-4-4.5c-1.8-1.1-3.9-1.6-6.2-1.6c-1.9,0-3.6,0.3-5.1,1
	c-1.6,0.7-2.9,1.6-4,2.8c-1.1,1.2-2,2.6-2.7,4.2C152.1,321.6,151.8,323.3,151.8,325.1 M178.6,330.8c0-1.1,0.3-2.2,0.8-3.1
	c0.5-0.9,1.3-1.7,2.2-2.4c1-0.7,2.1-1.2,3.4-1.6c1.3-0.4,2.8-0.6,4.4-0.6c1.4,0,2.8,0.1,4.2,0.4c1.4,0.3,2.7,0.6,3.8,1l0-2.6
	c0-2.5-0.7-4.4-2.1-5.9c-1.4-1.4-3.3-2.2-5.7-2.2c-1.3,0-2.6,0.3-4,0.8c-1.4,0.5-2.9,1.3-4.3,2.3l-0.9-1.7c3.3-2.2,6.5-3.3,9.5-3.3
	c3.1,0,5.6,0.9,7.4,2.7c1.8,1.8,2.7,4.3,2.7,7.5l0,12.7c0,0.8,0.3,1.2,0.8,1.2l0,2.2c-0.1,0-0.2,0.1-0.4,0.1c-0.1,0-0.2,0-0.4,0
	c-0.7,0-1.2-0.2-1.6-0.7c-0.4-0.4-0.6-1-0.7-1.6l0-2.1c-1.2,1.5-2.7,2.7-4.6,3.5c-1.9,0.8-3.9,1.2-6,1.2c-1.2,0-2.3-0.2-3.3-0.6
	c-1-0.4-1.9-1-2.7-1.7c-0.8-0.7-1.4-1.6-1.8-2.5C178.8,332.9,178.6,331.9,178.6,330.8 M181,330.6c0,0.9,0.2,1.7,0.5,2.4
	c0.3,0.8,0.8,1.4,1.4,2c0.6,0.6,1.3,1,2.1,1.3c0.8,0.3,1.7,0.5,2.6,0.5c1.9,0,3.7-0.4,5.3-1.1c1.6-0.7,2.9-1.7,3.7-2.9
	c0.5-0.7,0.8-1.4,0.8-2l0-4.6c-1.2-0.5-2.5-0.8-3.7-1.1c-1.3-0.2-2.6-0.3-4-0.4c-1.3,0-2.5,0.1-3.5,0.4c-1.1,0.3-2,0.7-2.7,1.2
	c-0.8,0.5-1.4,1.1-1.8,1.8C181.2,329,181,329.8,181,330.6 M210,338.3l0-16c0.3-1.1,0.9-2.2,1.6-3.2c0.7-1,1.5-1.8,2.4-2.6
	c0.9-0.7,1.9-1.3,3-1.7c1.1-0.4,2.2-0.6,3.3-0.6c2.1,0,3.6,0.8,4.5,2.3c0.9,1.5,1.4,4,1.4,7.3l0,14.5l2.5,0l0-14.9
	c0-3.7-0.6-6.5-1.7-8.5c-1.2-2-3.1-3-6-3c-1.2,0-2.3,0.1-3.4,0.5c-1.1,0.3-2.1,0.8-3.1,1.3c-1,0.6-1.9,1.3-2.7,2.1
	c-0.8,0.8-1.4,1.7-2,2.7l0-6.2l-2.3,0l-0.1,25.9L210,338.3z M245.8,338.4l15.1-35.4l2.2,0l14.9,35.4l-2.7,0l-4.9-11.7l-16.9,0
	l-5,11.7L245.8,338.4z M254.1,324.7l15.6,0l-7.7-18.6L254.1,324.7z M280.9,325.4c0,1.9,0.3,3.6,1,5.2c0.6,1.6,1.5,3.1,2.7,4.3
	c1.1,1.2,2.5,2.2,4,2.9c1.6,0.7,3.2,1.1,5.1,1.1c1.2,0,2.4-0.1,3.5-0.5c1.1-0.3,2.2-0.7,3.1-1.3c0.9-0.6,1.7-1.2,2.4-2
	c0.7-0.8,1.2-1.6,1.5-2.5l-2.4-0.7c-0.2,0.6-0.6,1.2-1.1,1.8c-0.6,0.6-1.2,1.1-1.9,1.5c-0.8,0.4-1.6,0.8-2.5,1
	c-0.9,0.3-1.8,0.4-2.7,0.4c-1.4,0-2.7-0.3-4-0.9c-1.2-0.6-2.3-1.4-3.2-2.4c-0.9-1-1.6-2.2-2.2-3.6c-0.5-1.4-0.8-2.9-0.8-4.4
	c0-1.6,0.3-3,0.8-4.3c0.5-1.3,1.3-2.5,2.2-3.5c0.9-1,2-1.8,3.2-2.3c1.2-0.6,2.6-0.8,4-0.8c1.7,0,3.3,0.4,4.7,1.2
	c1.4,0.8,2.5,1.9,3.3,3.4l2.4-0.8c-0.9-1.9-2.2-3.4-4-4.5c-1.8-1.1-3.9-1.6-6.2-1.6c-1.9,0-3.6,0.3-5.1,1c-1.6,0.7-2.9,1.6-4,2.8
	c-1.1,1.2-2,2.6-2.7,4.2C281.2,321.9,280.9,323.6,280.9,325.4 M307.7,331.1c0-1.1,0.3-2.2,0.8-3.1c0.5-0.9,1.3-1.7,2.2-2.4
	c1-0.7,2.1-1.2,3.4-1.6c1.3-0.4,2.8-0.6,4.4-0.6c1.4,0,2.8,0.1,4.2,0.4c1.4,0.3,2.7,0.6,3.8,1l0-2.6c0-2.5-0.7-4.4-2.1-5.9
	c-1.4-1.4-3.3-2.2-5.7-2.2c-1.3,0-2.6,0.3-4,0.8c-1.4,0.5-2.9,1.3-4.3,2.3l-0.9-1.7c3.3-2.2,6.5-3.3,9.5-3.3c3.1,0,5.6,0.9,7.4,2.7
	c1.8,1.8,2.7,4.3,2.7,7.5l0,12.7c0,0.8,0.3,1.3,0.8,1.3l0,2.2c-0.1,0-0.2,0.1-0.4,0.1c-0.1,0-0.2,0-0.4,0c-0.7,0-1.2-0.2-1.6-0.7
	c-0.4-0.4-0.6-1-0.7-1.6l0-2.1c-1.2,1.5-2.7,2.7-4.6,3.5c-1.9,0.8-3.9,1.2-6,1.2c-1.2,0-2.3-0.2-3.3-0.6c-1-0.4-1.9-1-2.7-1.7
	c-0.8-0.7-1.4-1.6-1.8-2.5C307.9,333.2,307.7,332.2,307.7,331.1 M310.1,330.9c0,0.9,0.2,1.7,0.5,2.4c0.3,0.8,0.8,1.4,1.4,2
	c0.6,0.6,1.3,1,2.1,1.3c0.8,0.3,1.7,0.5,2.6,0.5c1.9,0,3.7-0.4,5.3-1.1c1.6-0.7,2.9-1.7,3.7-2.9c0.5-0.7,0.8-1.4,0.8-2l0-4.6
	c-1.2-0.5-2.5-0.8-3.7-1.1c-1.3-0.2-2.6-0.3-4-0.4c-1.3,0-2.5,0.1-3.5,0.4c-1.1,0.3-2,0.7-2.7,1.2c-0.8,0.5-1.4,1.1-1.8,1.8
	C310.3,329.3,310.1,330.1,310.1,330.9 M334.8,325.8c0-1.8,0.3-3.5,0.9-5.2c0.6-1.6,1.4-3.1,2.5-4.3c1.1-1.2,2.3-2.2,3.8-2.9
	c1.4-0.7,3-1.1,4.7-1.1c1.1,0,2.2,0.2,3.2,0.5c1,0.3,1.9,0.8,2.8,1.3c0.9,0.5,1.6,1.2,2.3,1.9c0.7,0.7,1.3,1.5,1.8,2.4l0-16.1l2.5,0
	l-0.1,32.9c0,0.8,0.3,1.2,1,1.2l0,2.2c-0.2,0-0.4,0.1-0.5,0.1c-0.1,0-0.3,0-0.4,0c-0.7,0-1.2-0.3-1.7-0.8c-0.5-0.5-0.7-1-0.7-1.6
	l0-2.9c-1.1,1.7-2.5,3.1-4.3,4.1c-1.8,1-3.6,1.5-5.6,1.5c-1.8,0-3.5-0.4-5-1.1c-1.5-0.7-2.8-1.7-4-3c-1.1-1.2-2-2.7-2.6-4.3
	C335.1,329.2,334.8,327.5,334.8,325.8 M337.3,325.8c0,1.5,0.3,2.9,0.8,4.2c0.5,1.3,1.3,2.5,2.2,3.5c0.9,1,2,1.8,3.3,2.4
	c1.2,0.6,2.6,0.9,4.1,0.9c0.9,0,1.9-0.2,2.9-0.5c1-0.4,2-0.9,2.9-1.5c0.9-0.6,1.6-1.4,2.3-2.2c0.6-0.8,1-1.7,1.1-2.7l0-8.5
	c-0.4-0.9-0.9-1.8-1.6-2.7c-0.7-0.8-1.4-1.6-2.3-2.2c-0.9-0.6-1.8-1.1-2.8-1.5c-1-0.4-2-0.6-2.9-0.6c-1.5,0-2.9,0.3-4.1,1
	c-1.2,0.6-2.3,1.5-3.1,2.5c-0.9,1-1.5,2.2-2,3.6C337.6,323,337.3,324.4,337.3,325.8 M365.5,325.6c0-1.8,0.3-3.6,1-5.2
	c0.6-1.6,1.5-3,2.7-4.2c1.1-1.2,2.5-2.2,4-2.9c1.6-0.7,3.2-1,5-1c1.8,0,3.5,0.4,5.1,1.1c1.6,0.7,2.9,1.7,4,2.9
	c1.1,1.2,2,2.6,2.6,4.2c0.6,1.6,0.9,3.3,0.9,5.1v0.6c0,0.2,0,0.4-0.1,0.5l-22.7-0.1c0.1,1.5,0.4,2.9,1,4.2c0.6,1.3,1.3,2.4,2.3,3.3
	c0.9,0.9,2,1.7,3.2,2.2c1.2,0.5,2.5,0.8,3.8,0.8c0.9,0,1.8-0.1,2.6-0.4c0.9-0.2,1.7-0.6,2.4-1c0.7-0.4,1.4-1,2-1.6
	c0.6-0.6,1.1-1.3,1.4-2l2.2,0.6c-0.4,0.9-0.9,1.8-1.6,2.6c-0.7,0.8-1.5,1.5-2.5,2c-1,0.6-2,1-3.1,1.3c-1.1,0.3-2.3,0.5-3.5,0.5
	c-1.8,0-3.5-0.4-5.1-1.1c-1.6-0.7-2.9-1.7-4-2.9c-1.1-1.2-2-2.7-2.7-4.3C365.8,329.3,365.5,327.5,365.5,325.6 M368,324.8l20.4,0
	c-0.1-1.5-0.4-2.9-1-4.2c-0.6-1.3-1.3-2.4-2.2-3.3c-0.9-0.9-2-1.6-3.2-2.2c-1.2-0.5-2.5-0.8-3.8-0.8c-1.4,0-2.6,0.2-3.8,0.8
	c-1.2,0.5-2.3,1.2-3.2,2.1c-0.9,0.9-1.7,2-2.2,3.3C368.4,321.9,368.1,323.3,368,324.8 M398.8,338.8l0-16c0.3-1.2,0.8-2.3,1.4-3.3
	c0.6-1,1.3-1.8,2.1-2.5c0.8-0.7,1.7-1.3,2.6-1.6c0.9-0.4,1.9-0.6,3-0.6c2.1,0,3.6,0.8,4.6,2.3c1,1.5,1.5,4,1.5,7.3l0,14.5l2.5,0
	l0-16c0.3-1.2,0.8-2.3,1.4-3.3c0.6-1,1.3-1.8,2.1-2.5c0.8-0.7,1.7-1.3,2.6-1.7c1-0.4,2-0.6,3-0.6c2.1,0,3.6,0.8,4.7,2.3
	c1,1.6,1.5,4,1.5,7.3l0,14.5l2.5,0l0-14.9c0-3.6-0.6-6.5-1.8-8.5c-1.2-2-3.2-3-6-3h0c-4.3,0-7.7,2.3-10.1,7
	c-0.3-2.1-1.1-3.8-2.4-5.1c-1.4-1.3-3.1-1.9-5.3-1.9c-2.1,0-4,0.6-5.7,1.7c-1.7,1.2-3.1,2.8-4.2,4.9l0-6.2l-2.3,0l-0.1,25.9
	L398.8,338.8z M450.4,338.9c-0.8,1.9-1.4,3.4-1.9,4.5c-0.5,1.1-0.9,1.9-1.2,2.5c-0.3,0.6-0.5,0.9-0.7,1.1c-0.2,0.2-0.4,0.3-0.5,0.4
	c-0.3,0.1-0.6,0.2-0.8,0.2c-0.3,0-0.6,0-0.9,0c-0.3,0-0.6,0-0.8,0l0,2.3c0.2,0,0.3,0,0.5,0c0.1,0,0.3,0,0.4,0c1.4,0,2.5-0.3,3.3-0.8
	c0.8-0.5,1.4-1.2,1.8-2.2l14.3-34.1l-2.4,0l-9.7,23.5l-10.3-23.5l-2.6,0L450.4,338.9z M16.4,379.6c0-1.8,0.3-3.6,1-5.2
	c0.6-1.6,1.5-3.1,2.7-4.3c1.1-1.2,2.5-2.2,4-2.9c1.6-0.7,3.2-1.1,5-1.1c1.8,0,3.5,0.4,5,1.1c1.5,0.7,2.9,1.7,4,2.9
	c1.2,1.2,2,2.7,2.7,4.3c0.6,1.6,1,3.4,0.9,5.2c0,1.8-0.3,3.5-1,5.1c-0.6,1.6-1.5,3.1-2.7,4.3c-1.1,1.2-2.5,2.2-4,2.9
	c-1.5,0.7-3.2,1.1-5,1.1c-1.8,0-3.5-0.4-5.1-1.1c-1.5-0.7-2.9-1.7-4-2.9c-1.1-1.2-2-2.7-2.6-4.3C16.7,383.1,16.4,381.4,16.4,379.6
	 M18.9,379.7c0,1.5,0.3,3,0.8,4.3c0.5,1.3,1.3,2.5,2.2,3.5c0.9,1,2,1.8,3.2,2.4c1.2,0.6,2.5,0.9,3.9,0.9c1.4,0,2.7-0.3,3.9-0.9
	c1.2-0.6,2.3-1.4,3.2-2.4c0.9-1,1.7-2.2,2.2-3.5c0.5-1.3,0.8-2.8,0.8-4.3c0-1.5-0.3-3-0.8-4.3c-0.5-1.4-1.3-2.5-2.2-3.5
	c-0.9-1-2-1.8-3.2-2.4c-1.2-0.6-2.5-0.9-3.9-0.9c-1.4,0-2.7,0.3-3.9,0.9c-1.2,0.6-2.3,1.4-3.2,2.4c-0.9,1-1.7,2.2-2.2,3.6
	C19.1,376.8,18.9,378.2,18.9,379.7 M48.6,368.7l-0.1,23.9l2.5,0l0.1-23.9l7.4,0l0-2l-7.4,0v-0.9c0-2.6,0.5-4.5,1.4-5.9
	c0.9-1.3,2.2-2,3.9-2c0.7,0,1.4,0.1,2.1,0.3c0.7,0.2,1.3,0.5,1.7,0.9l0.9-1.8c-0.6-0.5-1.4-0.9-2.3-1.2c-0.9-0.3-1.9-0.4-2.9-0.5
	c-2.3,0-4.1,0.9-5.4,2.6c-1.3,1.8-2,4.3-2,7.4l0,0.9l-3.7,0l0,2L48.6,368.7z M76.3,392.7l0.1-35.4l14.6,0c1.5,0,2.9,0.3,4.1,1
	c1.3,0.6,2.4,1.5,3.3,2.5c0.9,1,1.6,2.2,2.1,3.5c0.5,1.3,0.8,2.6,0.8,3.9c0,1.4-0.2,2.8-0.7,4.1c-0.5,1.3-1.2,2.5-2.1,3.5
	c-0.9,1-1.9,1.8-3.2,2.5c-1.2,0.6-2.6,0.9-4.1,0.9l-12.3,0l0,13.4L76.3,392.7z M78.9,377l12.2,0c1.2,0,2.2-0.2,3.1-0.7
	c0.9-0.5,1.7-1.1,2.4-1.9c0.7-0.8,1.2-1.7,1.5-2.8c0.3-1,0.5-2.1,0.5-3.3c0-1.2-0.2-2.3-0.6-3.3c-0.4-1-1-2-1.7-2.8
	c-0.7-0.8-1.5-1.4-2.5-1.9c-0.9-0.5-2-0.7-3-0.7l-11.9,0L78.9,377z M104.1,385.2c0-1.1,0.3-2.2,0.8-3.1c0.5-0.9,1.3-1.7,2.2-2.4
	c1-0.7,2.1-1.2,3.4-1.6c1.3-0.4,2.8-0.6,4.4-0.6c1.4,0,2.8,0.1,4.2,0.4c1.4,0.3,2.7,0.6,3.8,1l0-2.6c0-2.5-0.7-4.4-2.1-5.9
	c-1.4-1.4-3.3-2.2-5.7-2.2c-1.3,0-2.6,0.3-4,0.8c-1.4,0.5-2.9,1.3-4.3,2.3l-0.9-1.7c3.3-2.2,6.5-3.3,9.5-3.3c3.1,0,5.6,0.9,7.4,2.7
	c1.8,1.8,2.7,4.3,2.7,7.5l0,12.7c0,0.8,0.3,1.3,0.8,1.3l0,2.2c-0.1,0-0.2,0.1-0.4,0.1c-0.1,0-0.2,0-0.4,0c-0.7,0-1.2-0.2-1.6-0.7
	c-0.4-0.4-0.6-1-0.7-1.6l0-2.1c-1.2,1.5-2.7,2.7-4.6,3.5c-1.9,0.8-3.9,1.2-6,1.2c-1.2,0-2.3-0.2-3.3-0.6c-1-0.4-1.9-1-2.7-1.7
	c-0.8-0.7-1.4-1.6-1.8-2.5C104.4,387.4,104.1,386.4,104.1,385.2 M106.5,385.1c0,0.9,0.2,1.7,0.5,2.4c0.3,0.8,0.8,1.4,1.4,2
	c0.6,0.6,1.3,1,2.1,1.3c0.8,0.3,1.7,0.5,2.6,0.5c1.9,0,3.7-0.4,5.3-1.1s2.9-1.7,3.7-2.9c0.5-0.7,0.8-1.4,0.8-2l0-4.6
	c-1.2-0.5-2.4-0.8-3.7-1.1c-1.3-0.2-2.6-0.3-4-0.4c-1.3,0-2.5,0.1-3.5,0.4c-1.1,0.3-2,0.7-2.7,1.2c-0.8,0.5-1.4,1.1-1.8,1.8
	C106.7,383.4,106.5,384.2,106.5,385.1 M133,392.8l0.1-25.9l2.5,0l-0.1,25.9L133,392.8z M133.1,361l0-4.6l2.5,0l0,4.6L133.1,361z
	 M145.8,392.8l0-16c0.3-1.1,0.9-2.2,1.6-3.2c0.7-1,1.5-1.8,2.4-2.6c0.9-0.7,1.9-1.3,3-1.7c1.1-0.4,2.2-0.6,3.3-0.6
	c2.1,0,3.6,0.8,4.5,2.3c0.9,1.5,1.4,4,1.4,7.3l0,14.5l2.5,0l0-14.9c0-3.7-0.6-6.5-1.7-8.5c-1.2-2-3.1-3-6-3c-1.2,0-2.3,0.2-3.4,0.5
	c-1.1,0.3-2.1,0.8-3.1,1.3c-1,0.6-1.9,1.3-2.6,2.1c-0.8,0.8-1.4,1.7-2,2.7l0-6.2l-2.3,0l-0.1,25.9L145.8,392.8z M188.1,392.9
	l0.1-30.6l13.9,23.9l1.6,0l14-23.9l-0.1,30.6l2.6,0l0.1-35.4l-2.6,0l-14.8,25.3l-14.7-25.4l-2.6,0l-0.1,35.4L188.1,392.9z
	 M226.9,380c0-1.8,0.3-3.6,1-5.2c0.7-1.6,1.5-3,2.7-4.2c1.1-1.2,2.5-2.2,4-2.9c1.6-0.7,3.2-1,5-1c1.8,0,3.5,0.4,5.1,1.1
	c1.6,0.7,2.9,1.7,4,2.9c1.1,1.2,2,2.6,2.6,4.2c0.6,1.6,0.9,3.3,0.9,5.1c0,0.2,0,0.4,0,0.6c0,0.2,0,0.4,0,0.5l-22.7-0.1
	c0.1,1.5,0.4,2.9,1,4.2c0.6,1.3,1.3,2.4,2.3,3.3c0.9,0.9,2,1.7,3.2,2.2c1.2,0.5,2.5,0.8,3.8,0.8c0.9,0,1.8-0.1,2.6-0.4
	c0.9-0.2,1.7-0.6,2.4-1c0.7-0.4,1.4-1,2-1.6c0.6-0.6,1.1-1.3,1.4-2l2.2,0.6c-0.4,0.9-0.9,1.8-1.6,2.6c-0.7,0.8-1.5,1.5-2.5,2
	c-1,0.6-2,1-3.1,1.3c-1.1,0.3-2.3,0.5-3.5,0.5c-1.8,0-3.5-0.4-5.1-1.1c-1.6-0.7-2.9-1.7-4-2.9c-1.1-1.2-2-2.7-2.7-4.3
	C227.3,383.6,226.9,381.8,226.9,380 M229.5,379.1l20.5,0c-0.1-1.5-0.4-2.9-1-4.2c-0.6-1.3-1.3-2.4-2.2-3.3c-0.9-0.9-2-1.6-3.2-2.2
	c-1.2-0.5-2.5-0.8-3.8-0.8c-1.4,0-2.6,0.2-3.8,0.8c-1.2,0.5-2.3,1.2-3.2,2.1c-0.9,0.9-1.7,2-2.2,3.3
	C229.9,376.2,229.6,377.6,229.5,379.1 M256,380.2c0-1.8,0.3-3.5,0.9-5.2c0.6-1.6,1.4-3.1,2.5-4.3c1.1-1.2,2.3-2.2,3.8-2.9
	c1.4-0.7,3-1.1,4.8-1.1c1.1,0,2.2,0.2,3.2,0.5c1,0.3,1.9,0.8,2.8,1.3c0.9,0.6,1.6,1.2,2.3,1.9c0.7,0.7,1.3,1.5,1.8,2.4l0-16.1l2.5,0
	l-0.1,32.9c0,0.8,0.3,1.2,1,1.2l0,2.2c-0.2,0-0.4,0.1-0.5,0.1c-0.1,0-0.3,0-0.4,0c-0.7,0-1.2-0.3-1.7-0.8c-0.5-0.5-0.7-1-0.7-1.6
	l0-2.9c-1.1,1.7-2.5,3.1-4.3,4.1c-1.8,1-3.6,1.5-5.6,1.5c-1.8,0-3.5-0.4-5-1.1c-1.5-0.7-2.8-1.7-4-3c-1.1-1.2-2-2.7-2.6-4.3
	C256.3,383.6,256,382,256,380.2 M258.5,380.3c0,1.5,0.3,2.9,0.8,4.2c0.5,1.3,1.3,2.5,2.2,3.5c0.9,1,2,1.8,3.3,2.4
	c1.2,0.6,2.6,0.9,4.1,0.9c0.9,0,1.9-0.2,2.9-0.5c1-0.4,2-0.9,2.9-1.5c0.9-0.6,1.6-1.4,2.3-2.2c0.6-0.8,1-1.7,1.1-2.7l0-8.5
	c-0.4-0.9-0.9-1.8-1.6-2.7c-0.7-0.8-1.4-1.6-2.3-2.2c-0.9-0.6-1.8-1.1-2.8-1.5c-1-0.4-2-0.6-2.9-0.6c-1.5,0-2.9,0.3-4.1,1
	c-1.2,0.6-2.3,1.5-3.1,2.5c-0.9,1-1.5,2.2-2,3.6C258.8,377.5,258.5,378.9,258.5,380.3 M288.4,393.2l0.1-25.9l2.5,0l-0.1,25.9
	L288.4,393.2z M288.5,361.3l0-4.6l2.5,0l0,4.6L288.5,361.3z M296.9,380.1c0,1.9,0.3,3.6,1,5.2c0.6,1.6,1.5,3.1,2.7,4.3
	c1.1,1.2,2.5,2.2,4,2.9c1.6,0.7,3.2,1.1,5.1,1.1c1.2,0,2.4-0.1,3.5-0.5c1.1-0.3,2.2-0.7,3.1-1.3c0.9-0.6,1.7-1.2,2.4-2
	c0.7-0.8,1.2-1.6,1.5-2.5l-2.4-0.7c-0.2,0.6-0.6,1.2-1.1,1.8c-0.5,0.6-1.2,1.1-1.9,1.5c-0.7,0.4-1.6,0.8-2.4,1
	c-0.9,0.3-1.8,0.4-2.7,0.4c-1.4,0-2.7-0.3-4-0.9c-1.2-0.6-2.3-1.4-3.2-2.4c-0.9-1-1.6-2.2-2.2-3.6c-0.5-1.4-0.8-2.9-0.8-4.4
	c0-1.6,0.3-3,0.8-4.3c0.5-1.3,1.3-2.5,2.2-3.5c0.9-1,2-1.8,3.2-2.3c1.2-0.6,2.6-0.8,4-0.8c1.7,0,3.3,0.4,4.7,1.2
	c1.4,0.8,2.5,1.9,3.3,3.4l2.4-0.8c-0.9-1.9-2.2-3.4-4-4.5c-1.8-1.1-3.9-1.6-6.2-1.6c-1.9,0-3.6,0.3-5.1,1c-1.6,0.7-2.9,1.6-4,2.8
	c-1.1,1.2-2,2.6-2.7,4.2C297.3,376.6,297,378.3,296.9,380.1 M325.9,393.3l0.1-25.9l2.5,0l-0.1,25.9L325.9,393.3z M326,361.4l0-4.6
	l2.5,0l0,4.6L326,361.4z M338.7,393.3l0-16c0.3-1.1,0.9-2.2,1.6-3.2c0.7-1,1.5-1.8,2.4-2.6c0.9-0.7,1.9-1.3,3-1.7
	c1.1-0.4,2.2-0.6,3.3-0.6c2.1,0,3.6,0.8,4.5,2.3c0.9,1.5,1.4,4,1.4,7.3l0,14.5l2.5,0l0-14.9c0-3.7-0.6-6.5-1.7-8.5c-1.2-2-3.1-3-6-3
	c-1.2,0-2.3,0.2-3.4,0.5c-1.1,0.3-2.1,0.8-3.1,1.3c-1,0.6-1.9,1.3-2.6,2.1c-0.8,0.8-1.4,1.7-2,2.7l0-6.2l-2.3,0l-0.1,25.9
	L338.7,393.3z M362.9,380.3c0-1.8,0.3-3.6,1-5.2c0.7-1.6,1.6-3,2.7-4.2c1.1-1.2,2.5-2.2,4-2.9c1.6-0.7,3.2-1,5-1
	c1.8,0,3.5,0.4,5.1,1.1c1.6,0.7,2.9,1.7,4,2.9c1.1,1.2,2,2.6,2.6,4.2c0.6,1.6,0.9,3.3,0.9,5.1c0,0.2,0,0.4,0,0.6c0,0.3,0,0.4,0,0.5
	l-22.7-0.1c0.1,1.5,0.4,2.9,1,4.2c0.6,1.3,1.3,2.4,2.3,3.3c0.9,0.9,2,1.7,3.2,2.2c1.2,0.5,2.5,0.8,3.8,0.8c0.9,0,1.8-0.1,2.6-0.4
	c0.9-0.2,1.7-0.6,2.4-1c0.7-0.4,1.4-1,2-1.6c0.6-0.6,1.1-1.3,1.4-2l2.2,0.6c-0.4,0.9-0.9,1.8-1.6,2.6c-0.7,0.8-1.5,1.5-2.5,2
	c-1,0.6-2,1-3.1,1.3c-1.1,0.3-2.3,0.5-3.5,0.5c-1.8,0-3.5-0.4-5.1-1.1c-1.6-0.7-2.9-1.7-4-2.9c-1.1-1.2-2-2.7-2.7-4.3
	C363.2,383.9,362.9,382.1,362.9,380.3 M365.5,379.4l20.5,0c-0.1-1.5-0.4-2.9-1-4.2c-0.6-1.3-1.3-2.4-2.2-3.3c-0.9-0.9-2-1.6-3.2-2.2
	c-1.2-0.5-2.5-0.8-3.8-0.8c-1.4,0-2.6,0.2-3.8,0.8c-1.2,0.5-2.3,1.2-3.2,2.1c-0.9,0.9-1.7,2-2.2,3.3
	C365.9,376.5,365.6,377.9,365.5,379.4"/>
<path class="st1" d="M441.7,161.6l-29.8,62.2l-29.8-62.2H347v42.7c0-13.9-4.3-24.4-12.8-31.7c-8.5-7.3-20.1-10.9-34.6-10.9h-56.5
	v108.3l-43.4-108.3H162l-38.3,95.5l-38.3-95.5H47.8L0.7,279.1h40.9l7.6-20.5h35l7.6,20.5h23.2h17.7h23.2l7.6-20.5h35l7.6,20.5h37.2
	h3.7h36.2V247h16.6c14.6,0,26.1-3.6,34.6-10.9c8.5-7.3,12.8-17.9,12.8-31.7v74.8h36.8v-43.6l21.7,43.6h12.8l21.7-43.6v43.6h36.8
	V161.6H441.7z M57.9,229.4l8.7-27.1l8.7,27.1H57.9z M172.1,229.4l8.7-27.1l8.7,27.1H172.1z M291.5,217.2h-8.6v-25.9h8.6
	c10.2,0,15.3,4.3,15.3,12.9C306.8,212.9,301.7,217.2,291.5,217.2"/>
<g>
	<defs>
		<path id="SVGID_1_" d="M-36.3,344.9c-6,8.2-13.4,15.5-20.2,23.2c-7,8-17,25.7-12.4,35.8c4.4,9.6,13.2,15,25.2,19.5
			c-2-3-2.2-3.6-3.3-5.3c-8.5-14.3-3.6-30.9,4.7-41.3c6.6-8.3,14.5-15.8,21.6-23.8c3.9-4.4,7.7-8.9,10.5-13.9
			c4-7.1,0.8-12.9-7.8-14.4c-7.8-1.3-17.6-1.5-25.5-2.2C-28,329.8-28.4,334.1-36.3,344.9"/>
	</defs>
	<clipPath id="SVGID_2_">
		<use xlink:href="#SVGID_1_"  style="overflow:visible;"/>
	</clipPath>
	
		<linearGradient id="SVGID_3_" gradientUnits="userSpaceOnUse" x1="-127.7598" y1="672.5979" x2="-123.6043" y2="672.5979" gradientTransform="matrix(-7.7973 -21.423 -21.423 7.7973 13388.8584 -7565.186)">
		<stop  offset="0" style="stop-color:#2E2C6C"/>
		<stop  offset="0.2634" style="stop-color:#1D4E86"/>
		<stop  offset="0.5704" style="stop-color:#0D6F9E"/>
		<stop  offset="0.8269" style="stop-color:#0483AE"/>
		<stop  offset="0.9996" style="stop-color:#008AB3"/>
		<stop  offset="1" style="stop-color:#008AB3"/>
	</linearGradient>
	<polygon class="st2" points="-65.6,445.1 -105.9,334.3 -14,300.9 26.3,411.6 	"/>
</g>
<g>
	<defs>
		<path id="SVGID_4_" d="M-62,235.6c1.2,0.1,2.2,0.6,2.6,0.7c20.3,3.6,21.6,9.3,7.4,23.4c-9.9,9.9-21.6,18.8-32,28.4
			c-7,6.4-13.9,13.1-19.7,20.2c-7,8.5-4.3,15.1,7.2,16.5c10.7,1.3,35-0.7,37-1.3c-19.5-5.6-22.1-8.5-8.5-22.6
			c10-10.3,22.1-19.6,32.9-29.5c6.8-6.3,13.5-12.8,19.2-19.6c7.3-8.9,4.2-15.2-8-17.3c-4.9-0.9-9.8-1.3-14.7-1.3
			C-45.7,233.2-53.3,234.1-62,235.6"/>
	</defs>
	<clipPath id="SVGID_5_">
		<use xlink:href="#SVGID_4_"  style="overflow:visible;"/>
	</clipPath>
	
		<linearGradient id="SVGID_6_" gradientUnits="userSpaceOnUse" x1="-123.4413" y1="671.5961" x2="-119.2858" y2="671.5961" gradientTransform="matrix(-6.8742 -18.8866 -18.8866 6.8742 11790.252 -6629.6021)">
		<stop  offset="0" style="stop-color:#2E2C6C"/>
		<stop  offset="0.2634" style="stop-color:#1D4E86"/>
		<stop  offset="0.5704" style="stop-color:#0D6F9E"/>
		<stop  offset="0.8269" style="stop-color:#0483AE"/>
		<stop  offset="0.9996" style="stop-color:#008AB3"/>
		<stop  offset="1" style="stop-color:#008AB3"/>
	</linearGradient>
	<polygon class="st3" points="-98.6,359 -140.4,244.1 -20.3,200.4 21.5,315.3 	"/>
</g>
<g>
	<defs>
		<path id="SVGID_7_" d="M-62.8,235.4C-62.8,235.4-62.8,235.4-62.8,235.4L-62.8,235.4L-62.8,235.4z"/>
	</defs>
	<clipPath id="SVGID_8_">
		<use xlink:href="#SVGID_7_"  style="overflow:visible;"/>
	</clipPath>
	
		<linearGradient id="SVGID_9_" gradientUnits="userSpaceOnUse" x1="-62.8075" y1="235.4435" x2="-62.7886" y2="235.4435" gradientTransform="matrix(-1.340800e-003 -3.683800e-003 -3.683800e-003 1.340800e-003 -71.5149 488.9767)">
		<stop  offset="0" style="stop-color:#2E2C6C"/>
		<stop  offset="0.2634" style="stop-color:#1D4E86"/>
		<stop  offset="0.5704" style="stop-color:#0D6F9E"/>
		<stop  offset="0.8269" style="stop-color:#0483AE"/>
		<stop  offset="0.9996" style="stop-color:#008AB3"/>
		<stop  offset="1" style="stop-color:#008AB3"/>
	</linearGradient>
	<polygon class="st4" points="-62.8,235.5 -62.8,235.4 -62.8,235.4 -62.8,235.4 	"/>
</g>
<g>
	<defs>
		<path id="SVGID_10_" d="M-86.4,218c-0.2,0.2-0.4,0.5-0.7,0.7l4.6,17.2l1.2,4.6l8.9,33c5-4.2,10.1-8.6,14.8-13.1l-4.3-20.3
			c0,0,0,0,0,0l-1.7-7.7l0-0.2l-6.1-28.6C-75.7,208-81.4,212.7-86.4,218"/>
	</defs>
	<clipPath id="SVGID_11_">
		<use xlink:href="#SVGID_10_"  style="overflow:visible;"/>
	</clipPath>
	
		<linearGradient id="SVGID_12_" gradientUnits="userSpaceOnUse" x1="-118.449" y1="670.2421" x2="-114.2935" y2="670.2421" gradientTransform="matrix(-5.3278 -14.6379 -14.6379 5.3278 9118.8174 -5035.3213)">
		<stop  offset="0" style="stop-color:#2E2C6C"/>
		<stop  offset="0.2634" style="stop-color:#1D4E86"/>
		<stop  offset="0.5704" style="stop-color:#0D6F9E"/>
		<stop  offset="0.8269" style="stop-color:#0483AE"/>
		<stop  offset="0.9996" style="stop-color:#008AB3"/>
		<stop  offset="1" style="stop-color:#008AB3"/>
	</linearGradient>
	<polygon class="st5" points="-83.6,283 -109.5,211.8 -60.9,194.1 -35,265.3 	"/>
</g>
<g>
	<defs>
		<path id="SVGID_13_" d="M-64.5,302.5l14.4,53.7c3.6-4,7.2-8,10.4-12.2l-11.5-53.8C-55.8,294.1-60.4,298.2-64.5,302.5"/>
	</defs>
	<clipPath id="SVGID_14_">
		<use xlink:href="#SVGID_13_"  style="overflow:visible;"/>
	</clipPath>
	
		<linearGradient id="SVGID_15_" gradientUnits="userSpaceOnUse" x1="-122.2531" y1="670.5345" x2="-118.0976" y2="670.5345" gradientTransform="matrix(-5.1359 -14.1107 -14.1107 5.1359 8792.583 -4815.9648)">
		<stop  offset="0" style="stop-color:#2E2C6C"/>
		<stop  offset="0.2634" style="stop-color:#1D4E86"/>
		<stop  offset="0.5704" style="stop-color:#0D6F9E"/>
		<stop  offset="0.8269" style="stop-color:#0483AE"/>
		<stop  offset="0.9996" style="stop-color:#008AB3"/>
		<stop  offset="1" style="stop-color:#008AB3"/>
	</linearGradient>
	<polygon class="st6" points="-61.6,364.1 -85.8,297.8 -42.6,282.1 -18.5,348.4 	"/>
</g>
<g>
	<defs>
		<path id="SVGID_16_" d="M-97.6,134.7c-10.1,2.5-16.2,13.3-13.6,24c1.6,6.6,5.9,9.6,11.5,12l5.3,21c5.9-4.6,12.3-9,19.3-13.4
			l-2.8-13.9c3.2-4.6,4.8-8.5,3.3-14.5c-2.3-9.3-10.3-15.6-18.9-15.6C-94.8,134.2-96.2,134.3-97.6,134.7"/>
	</defs>
	<clipPath id="SVGID_17_">
		<use xlink:href="#SVGID_16_"  style="overflow:visible;"/>
	</clipPath>
	
		<linearGradient id="SVGID_18_" gradientUnits="userSpaceOnUse" x1="-111.115" y1="668.8875" x2="-106.9595" y2="668.8875" gradientTransform="matrix(-4.5069 -12.3826 -12.3826 4.5069 7697.5483 -4202.5229)">
		<stop  offset="0" style="stop-color:#2E2C6C"/>
		<stop  offset="0.2634" style="stop-color:#1D4E86"/>
		<stop  offset="0.5704" style="stop-color:#0D6F9E"/>
		<stop  offset="0.8269" style="stop-color:#0483AE"/>
		<stop  offset="0.9996" style="stop-color:#008AB3"/>
		<stop  offset="1" style="stop-color:#008AB3"/>
	</linearGradient>
	<polygon class="st7" points="-109,204.8 -132.2,140.9 -77.8,121.1 -54.5,184.9 	"/>
</g>
<g>
	<defs>
		<path id="SVGID_19_" d="M-39.7,379c-1.1,1.4-2.1,3-3,4.6l4.7,17.5c1.6,6.7,5.2,11.6,8.6,10.8c4.1-1,3.1-6.5,1.4-13.2l-5.7-26.6
			C-35.8,374.3-37.8,376.6-39.7,379"/>
	</defs>
	<clipPath id="SVGID_20_">
		<use xlink:href="#SVGID_19_"  style="overflow:visible;"/>
	</clipPath>
	
		<linearGradient id="SVGID_21_" gradientUnits="userSpaceOnUse" x1="-121.1852" y1="667.7445" x2="-117.0297" y2="667.7445" gradientTransform="matrix(-3.2014 -8.7957 -8.7957 3.2014 5458.0903 -2792.5552)">
		<stop  offset="0" style="stop-color:#2E2C6C"/>
		<stop  offset="0.2634" style="stop-color:#1D4E86"/>
		<stop  offset="0.5704" style="stop-color:#0D6F9E"/>
		<stop  offset="0.8269" style="stop-color:#0483AE"/>
		<stop  offset="0.9996" style="stop-color:#008AB3"/>
		<stop  offset="1" style="stop-color:#008AB3"/>
	</linearGradient>
	<polygon class="st8" points="-40.7,418.2 -55.8,376.8 -27.4,366.5 -12.3,407.9 	"/>
</g>
<g>
	<defs>
		<path id="SVGID_22_" d="M-60,175.4c0-1.5,1.2-2.8,2.8-2.8c1.5,0,2.8,1.2,2.8,2.8c0,1.5-1.2,2.8-2.8,2.8
			C-58.7,178.2-60,177-60,175.4 M-32.5,162.7l-23,2.9c-7,0.9-12.2,6.7-13.4,13.7c-18.5,10.6-29,17.9-42.8,32.4
			c-4,4.2-8.2,9.2-10.2,13.3c-2.6,5.2-1.5,8.9,3.8,10.9c9.3,3.6,22.7,4.1,35.3,1.9c-12.6-7.5-15.8-11.6-5.9-22.2
			c9-9.7,13.8-12.6,25.6-19.8c0.5,0.6,0.8,1,0.8,0.9c3.4,2.6,7.5,4,12,3.4c3.7-0.6,6.9-2.3,9.4-5.1l15.7-17.7
			c3-3.6,2.8-9.1-0.5-12.3c-1.5-1.5-3.6-2.4-5.6-2.4C-31.7,162.6-32.1,162.6-32.5,162.7"/>
	</defs>
	<clipPath id="SVGID_23_">
		<use xlink:href="#SVGID_22_"  style="overflow:visible;"/>
	</clipPath>
	
		<linearGradient id="SVGID_24_" gradientUnits="userSpaceOnUse" x1="-115.094" y1="669.0204" x2="-110.9385" y2="669.0204" gradientTransform="matrix(-4.8418 -13.3029 -13.3029 4.8418 8279.9229 -4539.9487)">
		<stop  offset="0" style="stop-color:#2E2C6C"/>
		<stop  offset="0.2634" style="stop-color:#1D4E86"/>
		<stop  offset="0.5704" style="stop-color:#0D6F9E"/>
		<stop  offset="0.8269" style="stop-color:#0483AE"/>
		<stop  offset="0.9996" style="stop-color:#008AB3"/>
		<stop  offset="1" style="stop-color:#008AB3"/>
	</linearGradient>
	<polygon class="st9" points="-112.5,272.8 -149.3,171.6 -34.2,129.8 2.6,230.9 	"/>
</g>
</svg>
