<?xml version="1.0" encoding="UTF-8"?>
<!-- Created with Inkscape (http://www.inkscape.org/) -->
<svg id="svg8" width="157.41pt" height="31.698pt" version="1.1" viewBox="0 0 55.531 11.182" xmlns="http://www.w3.org/2000/svg" xmlns:cc="http://creativecommons.org/ns#" xmlns:dc="http://purl.org/dc/elements/1.1/" xmlns:rdf="http://www.w3.org/1999/02/22-rdf-syntax-ns#">
 <metadata id="metadata5">
  <rdf:RDF>
   <cc:Work rdf:about="">
    <dc:format>image/svg+xml</dc:format>
    <dc:type rdf:resource="http://purl.org/dc/dcmitype/StillImage"/>
    <dc:title/>
   </cc:Work>
  </rdf:RDF>
 </metadata>
 <g id="layer1" transform="translate(-40.433 -88.052)">
  <g id="g10515">
   <g id="g10466" fill="#bf1920">
    <path id="path1349" d="m47.262 92.543c-0.44732 0.63994-1.1896 1.0583-2.0292 1.0583-1.3667 0-2.4744-1.1077-2.4744-2.4747 0-1.3663 1.1077-2.4744 2.4744-2.4744 0.48154 0 0.93098 0.13758 1.3113 0.37571l-1.3109 2.0987 2.4589-1.4196c-0.39405-0.61172-0.98037-1.0876-1.6736-1.3427-0.54857-0.20179-1.1416-0.31221-1.7607-0.31221-0.61877 0-1.2118 0.11042-1.7604 0.31221-0.56656 0.20849-1.0612 0.56409-1.4386 1.0209-0.39052 0.47343-0.62512 1.0802-0.62512 1.7413 0 0.66146 0.2346 1.2682 0.62512 1.7413 0.37747 0.45685 0.87207 0.8128 1.4386 1.0209 0.54857 0.20214 1.1416 0.31221 1.7604 0.31221 0.39476 0 0.77858-0.0448 1.1476-0.12947 0.76694-0.17639 1.4457-0.58349 1.9593-1.1441z"/>
    <path id="path1353" d="m57.643 89.102c-0.13582 0-0.26458 0.03034-0.38065 0.08431l-1.4316 0.66781c-0.07056-0.42686-0.44062-0.75212-0.88759-0.75212-0.13582 0-0.26458 0.03034-0.38029 0.08431l-1.7487 0.81562h1.2294v4.0492h1.7995v-3.5994c0-0.24836 0.20144-0.44979 0.45014-0.44979 0.24836 0 0.44979 0.20144 0.44979 0.44979v3.5994h1.7995v-4.0492c0-0.49706-0.40287-0.89994-0.89958-0.89994"/>
    <path id="path1357" d="m68.928 89.102c-0.13582 0-0.26458 0.03034-0.38029 0.08431l-1.4316 0.66781c-0.07055-0.42686-0.44097-0.75212-0.88759-0.75212-0.13582 0-0.26494 0.03034-0.3803 0.08431l-1.7491 0.81563h1.2298v4.0492h1.7995v-3.5994c0-0.24836 0.20108-0.44979 0.44979-0.44979 0.24836 0 0.45014 0.20144 0.45014 0.44979v3.5994h1.7995v-4.0492c0-0.49706-0.40287-0.89994-0.89994-0.89994"/>
    <path id="path1361" d="m62.424 93.825c-0.29986 0.08043-0.60819-0.09772-0.68862-0.39793l-0.87348-3.2593c-0.08043-0.29986 0.09737-0.60854 0.39758-0.68862 0.30021-0.08043 0.60854 0.09772 0.68862 0.39758l0.87348 3.2597c0.08043 0.29986-0.09772 0.60819-0.39758 0.68862m-0.58244-4.7226c-1.4079 0-2.5495 1.1416-2.5495 2.5495 0 1.4083 1.1416 2.5495 2.5495 2.5495 1.4083 0 2.5495-1.1412 2.5495-2.5495 0-1.4079-1.1412-2.5495-2.5495-2.5495"/>
    <path id="path1365" d="m51.618 94.051h1.7995l-1.0358-3.8654c-0.16651-0.62406-0.73554-1.0837-1.4125-1.0837-0.17568 0-0.34431 0.03069-0.50024 0.08749l-2.231 0.81209h2.2948l0.39264 1.464c-0.381-0.32808-0.87665-0.52634-1.4182-0.52634-0.40428 0-0.78387 0.10301-1.1148 0.28399-0.25823 0.14146-0.47554 0.34854-0.62971 0.59866-0.13018 0.21237-0.20532 0.46214-0.20532 0.72919 0 0.2674 0.07514 0.51717 0.20532 0.72954 0.15416 0.25012 0.37148 0.4572 0.62971 0.59866 0.33091 0.18133 0.71049 0.28434 1.1148 0.28434 0.77435 0 1.4609-0.37924 1.8831-0.96202zm-0.46108-1.5c0 0.49706-0.40287 0.89994-0.89994 0.89994-0.49706 0-0.89994-0.40287-0.89994-0.89994 0-0.49671 0.40287-0.89958 0.89994-0.89958 0.49706 0 0.89994 0.40287 0.89994 0.89958"/>
   </g>
   <g id="g10487">
    <path id="path1673" d="m42.494 96.659c-0.14887-0.10372-0.32561-0.15558-0.53022-0.15558-0.17498 0-0.32456 0.03246-0.44873 0.09807-0.12418 0.06562-0.22648 0.15381-0.30692 0.26458-0.08079 0.11042-0.14005 0.23671-0.17815 0.37888-0.03845 0.14146-0.0575 0.28928-0.0575 0.44203 0 0.16651 0.01905 0.3242 0.0575 0.47308 0.0381 0.14887 0.09737 0.2787 0.17815 0.38911 0.08043 0.11042 0.18344 0.19861 0.30903 0.26388 0.12559 0.06597 0.27587 0.09843 0.45085 0.09843 0.12806 0 0.24201-0.02117 0.34184-0.0635 0.09948-0.04233 0.18556-0.10089 0.25788-0.17604 0.07232-0.07479 0.12912-0.1644 0.17004-0.26811 0.04092-0.10372 0.06562-0.2159 0.07373-0.33584h0.38911c-0.03845 0.3683-0.1651 0.65511-0.381 0.86007-0.21555 0.20461-0.51047 0.30692-0.88441 0.30692-0.22684 0-0.42474-0.0388-0.59408-0.11642-0.16933-0.07797-0.30974-0.18521-0.42192-0.32174-0.11218-0.13652-0.19614-0.29739-0.25188-0.48295-0.05609-0.18591-0.08396-0.38523-0.08396-0.59831 0-0.21272 0.02999-0.41275 0.08996-0.60008 0.06032-0.18697 0.14817-0.34996 0.26458-0.4893 0.11571-0.13935 0.26035-0.24906 0.43392-0.32985 0.17357-0.08008 0.37183-0.12065 0.5962-0.12065 0.1524 0 0.29739 0.02046 0.43392 0.06138s0.25788 0.1009 0.36442 0.18027c0.10654 0.07937 0.19509 0.17815 0.26635 0.29704 0.07091 0.11889 0.11712 0.25612 0.139 0.41169h-0.38911c-0.04339-0.20743-0.1397-0.36336-0.28857-0.46708"/>
    <path id="path1677" d="m45.301 97.961-0.48754-1.3638h-0.0081l-0.49566 1.3638zm-0.27023-1.7163 1.1426 2.9245h-0.43004l-0.31962-0.88053h-1.2368l-0.32773 0.88053h-0.39723l1.1384-2.9245z"/>
    <path id="path1681" d="m47.034 96.245 1.5399 2.3714h0.0081v-2.3714h0.36901v2.9245h-0.42615l-1.5279-2.347h-0.0081v2.347h-0.36866v-2.9245z"/>
    <path id="path1685" d="m49.946 98.143c0.0381 0.14323 0.09842 0.27234 0.18027 0.387 0.08184 0.11465 0.18697 0.20673 0.31538 0.27658 0.12841 0.0695 0.28116 0.10442 0.45861 0.10442 0.17745 0 0.33055-0.03492 0.45861-0.10442 0.12841-0.06985 0.23354-0.16192 0.31538-0.27658 0.08184-0.11465 0.14182-0.24377 0.18027-0.387 0.0381-0.14323 0.0575-0.28857 0.0575-0.43603s-0.0194-0.29281-0.0575-0.43639c-0.03845-0.14323-0.09843-0.27234-0.18027-0.387-0.08184-0.11465-0.18697-0.20673-0.31538-0.27622-0.12806-0.06985-0.28116-0.10442-0.45861-0.10442-0.17745 0-0.3302 0.03457-0.45861 0.10442-0.12841 0.0695-0.23354 0.16157-0.31538 0.27622-0.08185 0.11465-0.14217 0.24377-0.18027 0.387-0.03845 0.14358-0.0575 0.28892-0.0575 0.43639s0.01905 0.29281 0.0575 0.43603m-0.35842-1.0114c0.05891-0.1845 0.14676-0.34784 0.26423-0.48966 0.11748-0.14217 0.26352-0.25541 0.43815-0.33972 0.17463-0.08467 0.37818-0.127 0.61031-0.127s0.43533 0.04233 0.61031 0.127c0.17462 0.08431 0.32068 0.19756 0.4385 0.33972 0.11712 0.14182 0.20532 0.30515 0.26388 0.48966 0.05856 0.18415 0.0882 0.37606 0.0882 0.57538s-0.02963 0.39088-0.0882 0.57538c-0.05856 0.18415-0.14676 0.34749-0.26388 0.4893-0.11783 0.14217-0.26388 0.25471-0.4385 0.33796-0.17498 0.08326-0.37818 0.12488-0.61031 0.12488s-0.43568-0.04163-0.61031-0.12488c-0.17462-0.08325-0.32068-0.19579-0.43815-0.33796-0.11748-0.14182-0.20532-0.30515-0.26423-0.4893-0.05856-0.1845-0.08819-0.37606-0.08819-0.57538s0.02963-0.39123 0.08819-0.57538"/>
    <path id="path1689" d="m53.263 96.245 1.5399 2.3714h0.0081v-2.3714h0.36902v2.9245h-0.42616l-1.5279-2.347h-0.0081v2.347h-0.36867v-2.9245z"/>
    <path id="path1693" d="m57.654 96.245 0.92146 2.4574 0.92569-2.4574h0.53234v2.9245h-0.36865v-2.4331h-0.0081l-0.91336 2.4331h-0.33161l-0.91334-2.4331h-0.0081v2.4331h-0.36902v-2.9245z"/>
    <path id="path1697" d="m62.782 96.245v0.32773h-1.6302v0.92957h1.5194v0.32773h-1.5194v1.0118h1.6425v0.32773h-2.0316v-2.9245z"/>
    <path id="path1701" d="m64.506 98.842c0.04339 0 0.09807-0.0035 0.16369-0.01023 0.06562-0.0071 0.13547-0.02328 0.20884-0.04904 0.07408-0.02611 0.14676-0.06385 0.21908-0.11289 0.07267-0.04904 0.13723-0.11606 0.19473-0.20073 0.0575-0.08467 0.10442-0.19015 0.14146-0.31715 0.03669-0.127 0.05503-0.28081 0.05503-0.46108 0-0.17462-0.01693-0.33091-0.05115-0.46884s-0.08996-0.25541-0.16792-0.35207c-0.07761-0.09701-0.17815-0.17074-0.30092-0.22119-0.12312-0.05045-0.27446-0.07585-0.45473-0.07585h-0.65511v2.2691zm-0.03281-2.5968c0.4505 0 0.79728 0.11465 1.0403 0.34431 0.24306 0.22931 0.36442 0.57856 0.36442 1.0485 0 0.24553-0.02716 0.4632-0.08185 0.65299-0.05468 0.1898-0.13899 0.3496-0.254 0.47907-0.11465 0.12982-0.2607 0.22895-0.43815 0.29739-0.17745 0.06809-0.3877 0.10231-0.63077 0.10231h-1.0033v-2.9245z"/>
    <path id="path1703" d="m66.816 99.169h-0.38911v-2.9245h0.38911z"/>
    <path id="path1707" d="m69.275 96.659c-0.14887-0.10372-0.32562-0.15558-0.53022-0.15558-0.17498 0-0.32456 0.03246-0.44873 0.09807-0.12418 0.06562-0.22684 0.15381-0.30727 0.26458-0.08043 0.11042-0.1397 0.23671-0.1778 0.37888-0.03846 0.14146-0.0575 0.28928-0.0575 0.44203 0 0.16651 0.01905 0.3242 0.0575 0.47308 0.0381 0.14887 0.09737 0.2787 0.1778 0.38911 0.08043 0.11042 0.1838 0.19861 0.30938 0.26388 0.12559 0.06597 0.27587 0.09843 0.4505 0.09843 0.12841 0 0.24236-0.02117 0.34219-0.0635 0.09948-0.04233 0.18556-0.10089 0.25788-0.17604 0.07232-0.07479 0.12876-0.1644 0.17004-0.26811 0.04092-0.10372 0.06562-0.2159 0.07373-0.33584h0.38912c-0.03846 0.3683-0.16546 0.65511-0.381 0.86007-0.21555 0.20461-0.51047 0.30692-0.88442 0.30692-0.22684 0-0.4251-0.0388-0.59408-0.11642-0.16933-0.07796-0.31009-0.18521-0.42192-0.32173-0.11218-0.13652-0.19614-0.29739-0.25188-0.48295-0.05609-0.18591-0.08396-0.38523-0.08396-0.59831 0-0.21272 0.02999-0.41275 0.08996-0.60008 0.06032-0.18697 0.14817-0.34996 0.26423-0.4893 0.11606-0.13935 0.2607-0.24906 0.43427-0.32985 0.17321-0.08008 0.37183-0.12065 0.59584-0.12065 0.15275 0 0.29774 0.02046 0.43427 0.06138s0.25788 0.1009 0.36442 0.18027c0.10654 0.07937 0.19509 0.17815 0.26635 0.29704 0.07091 0.11889 0.11712 0.25612 0.13899 0.41169h-0.38911c-0.04375-0.20743-0.1397-0.36336-0.28857-0.46708"/>
    <path id="path1711" d="m72.083 97.961-0.48754-1.3638h-0.0081l-0.49568 1.3638zm-0.27023-1.7163 1.1426 2.9245h-0.43004l-0.31926-0.88053h-1.2372l-0.32773 0.88053h-0.39723l1.1388-2.9245z"/>
    <path id="path1715" d="m73.791 96.245v2.5968h1.548v0.32773h-1.9371v-2.9245z"/>
    <path id="path1719" d="m78.446 96.644c-0.12947-0.09419-0.29563-0.14146-0.49777-0.14146-0.08184 0-0.16228 0.0081-0.24165 0.02505-0.07902 0.01623-0.14922 0.04339-0.21061 0.08149-0.06173 0.03845-0.11077 0.08961-0.14782 0.15346-0.03669 0.06456-0.05503 0.14429-0.05503 0.23954 0 0.09066 0.02681 0.16334 0.07973 0.21943 0.05327 0.05609 0.12418 0.1016 0.21308 0.13723 0.0889 0.03563 0.18909 0.06491 0.30127 0.08819 0.11183 0.02293 0.22542 0.04833 0.34184 0.0755 0.11571 0.02752 0.22966 0.05962 0.34184 0.09631 0.11183 0.03669 0.21237 0.08678 0.30092 0.14958 0.0889 0.06279 0.15981 0.14217 0.21308 0.23742 0.05327 0.0956 0.08008 0.2159 0.08008 0.36054 0 0.15558-0.03493 0.28857-0.10442 0.39934-0.06985 0.11042-0.1591 0.20073-0.26846 0.27023-0.10936 0.06985-0.23142 0.1203-0.36654 0.15134-0.13511 0.03175-0.26952 0.04727-0.40322 0.04727-0.16404 0-0.31926-0.02046-0.46496-0.06138-0.14605-0.04092-0.27446-0.10301-0.38523-0.18627-0.11042-0.08326-0.19791-0.1898-0.26176-0.31962-0.06421-0.12947-0.09666-0.28328-0.09666-0.46073h0.36866c0 0.12277 0.024 0.2286 0.07197 0.31715 0.04763 0.0889 0.11042 0.16228 0.18838 0.21943 0.07761 0.05715 0.16863 0.09984 0.27234 0.127 0.10336 0.02752 0.21026 0.04092 0.31926 0.04092 0.08749 0 0.17533-0.0081 0.26423-0.02469 0.08855-0.01623 0.16863-0.04445 0.23954-0.08361 0.07126-0.03986 0.12841-0.09349 0.17215-0.16192 0.04375-0.06844 0.06562-0.15593 0.06562-0.26211 0-0.10089-0.02681-0.18309-0.08008-0.24589-0.05327-0.0628-0.12418-0.11395-0.21272-0.15346-0.0889-0.03951-0.18944-0.07197-0.30127-0.09631-0.11183-0.02469-0.22578-0.04974-0.34184-0.07585-0.11606-0.02575-0.23036-0.05574-0.34219-0.09031-0.11183-0.03387-0.21202-0.07902-0.30092-0.13476-0.08855-0.05609-0.15981-0.12841-0.21308-0.21731-0.05292-0.08855-0.07973-0.20002-0.07973-0.33373 0-0.14746 0.02999-0.27481 0.08996-0.38276s0.14005-0.19685 0.23989-0.26635c0.09948-0.0695 0.21272-0.12136 0.33972-0.15558s0.25718-0.05115 0.39123-0.05115c0.15028 0 0.28928 0.01764 0.41769 0.05292 0.12841 0.03563 0.24094 0.09172 0.33796 0.16828 0.09702 0.07655 0.17322 0.17251 0.22931 0.28857 0.05609 0.11606 0.08643 0.2547 0.09208 0.41557h-0.3683c-0.0219-0.21026-0.09809-0.3623-0.22756-0.4565"/>
    <path id="path1723" d="m80.766 99.169h-0.38912v-1.1959l-1.1303-1.7286h0.46285l0.8763 1.3928 0.85619-1.3928h0.44238l-1.1183 1.7286z"/>
    <path id="path1727" d="m83.664 96.644c-0.12947-0.09419-0.29563-0.14146-0.49777-0.14146-0.08184 0-0.16228 0.0081-0.24165 0.02505-0.07902 0.01623-0.14922 0.04339-0.21061 0.08149-0.06173 0.03845-0.11077 0.08961-0.14782 0.15346-0.03669 0.06456-0.05503 0.14429-0.05503 0.23954 0 0.09066 0.02681 0.16334 0.07973 0.21943 0.05327 0.05609 0.12418 0.1016 0.21308 0.13723 0.0889 0.03563 0.18909 0.06491 0.30127 0.08819 0.11183 0.02293 0.22542 0.04833 0.34184 0.0755 0.11571 0.02752 0.22966 0.05962 0.34184 0.09631 0.11183 0.03669 0.21237 0.08678 0.30092 0.14958 0.0889 0.06279 0.15981 0.14217 0.21308 0.23742 0.05327 0.0956 0.07973 0.2159 0.07973 0.36054 0 0.15558-0.03457 0.28857-0.10407 0.39934-0.06985 0.11042-0.1591 0.20073-0.26846 0.27023-0.10936 0.06985-0.23142 0.1203-0.36654 0.15134-0.13511 0.03175-0.26952 0.04727-0.40322 0.04727-0.16404 0-0.31926-0.02046-0.46496-0.06138-0.14605-0.04092-0.27446-0.10301-0.38523-0.18627-0.11042-0.08326-0.19791-0.1898-0.26176-0.31962-0.06421-0.12947-0.09666-0.28328-0.09666-0.46073h0.36866c0 0.12277 0.024 0.2286 0.07197 0.31715 0.04762 0.0889 0.11042 0.16228 0.18838 0.21943 0.07761 0.05715 0.16863 0.09984 0.27234 0.127 0.10336 0.02752 0.21026 0.04092 0.31926 0.04092 0.08749 0 0.17533-0.0081 0.26423-0.02469 0.08855-0.01623 0.16863-0.04445 0.23954-0.08361 0.07126-0.03986 0.12841-0.09349 0.17215-0.16192 0.04375-0.06844 0.06562-0.15593 0.06562-0.26211 0-0.10089-0.02681-0.18309-0.08008-0.24589-0.05327-0.0628-0.12418-0.11395-0.21272-0.15346-0.0889-0.03951-0.18944-0.07197-0.30127-0.09631-0.11183-0.02469-0.22578-0.04974-0.34184-0.07585-0.11606-0.02575-0.23036-0.05574-0.34219-0.09031-0.11183-0.03387-0.21202-0.07902-0.30092-0.13476-0.08855-0.05609-0.15981-0.12841-0.21308-0.21731-0.05292-0.08855-0.07973-0.20002-0.07973-0.33373 0-0.14746 0.02998-0.27481 0.08996-0.38276 0.05997-0.10795 0.14005-0.19685 0.23989-0.26635 0.09948-0.0695 0.21272-0.12136 0.33972-0.15558s0.25718-0.05115 0.39123-0.05115c0.15028 0 0.28928 0.01764 0.41769 0.05292 0.12841 0.03563 0.24094 0.09172 0.33796 0.16828 0.09701 0.07655 0.17322 0.17251 0.22931 0.28857 0.05609 0.11606 0.08643 0.2547 0.09207 0.41557h-0.3683c-0.02189-0.21026-0.09808-0.3623-0.22755-0.4565"/>
    <path id="path1731" d="m84.612 96.572v-0.32773h2.3386v0.32773h-0.97472v2.5968h-0.38911v-2.5968z"/>
    <path id="path1735" d="m89.432 96.245v0.32773h-1.6302v0.92957h1.5194v0.32773h-1.5194v1.0118h1.6425v0.32773h-2.0316v-2.9245z"/>
    <path id="path1739" d="m90.653 96.245 0.92145 2.4574 0.92569-2.4574h0.53269v2.9245h-0.369v-2.4331h-0.0078l-0.91364 2.4331h-0.33161l-0.91334-2.4331h-0.0081v2.4331h-0.36903v-2.9245z"/>
    <path id="path1743" d="m95.246 96.644c-0.12982-0.09419-0.29563-0.14146-0.49777-0.14146-0.08184 0-0.16228 0.0081-0.24165 0.02505-0.07902 0.01623-0.14958 0.04339-0.21061 0.08149-0.06174 0.03845-0.11077 0.08961-0.14782 0.15346-0.03669 0.06456-0.05503 0.14429-0.05503 0.23954 0 0.09066 0.02681 0.16334 0.07973 0.21943 0.05327 0.05609 0.12418 0.1016 0.21308 0.13723 0.08855 0.03563 0.18909 0.06491 0.30127 0.08819 0.11183 0.02293 0.22542 0.04833 0.34184 0.0755 0.11571 0.02752 0.22966 0.05962 0.34184 0.09631 0.11183 0.03669 0.21237 0.08678 0.30092 0.14958 0.0889 0.06279 0.15981 0.14217 0.21308 0.23742 0.05327 0.0956 0.07973 0.2159 0.07973 0.36054 0 0.15558-0.03457 0.28857-0.10407 0.39934-0.06985 0.11042-0.1591 0.20073-0.26846 0.27023-0.10936 0.06985-0.23142 0.1203-0.36654 0.15134-0.13511 0.03175-0.26952 0.04727-0.40358 0.04727-0.16369 0-0.31891-0.02046-0.46496-0.06138s-0.27411-0.10301-0.38488-0.18627c-0.11042-0.08326-0.19791-0.1898-0.26212-0.31962-0.0642-0.12947-0.09631-0.28328-0.09631-0.46073h0.36865c0 0.12277 0.024 0.2286 0.07197 0.31715 0.04762 0.0889 0.11042 0.16228 0.18838 0.21943 0.07761 0.05715 0.16863 0.09984 0.27234 0.127 0.10336 0.02752 0.21026 0.04092 0.31926 0.04092 0.08749 0 0.17533-0.0081 0.26423-0.02469 0.08855-0.01623 0.16863-0.04445 0.23954-0.08361 0.07126-0.03986 0.12841-0.09349 0.17215-0.16192 0.04375-0.06844 0.06562-0.15593 0.06562-0.26211 0-0.10089-0.02681-0.18309-0.08008-0.24589-0.05327-0.0628-0.12418-0.11395-0.21272-0.15346-0.0889-0.03951-0.18944-0.07197-0.30127-0.09631-0.11183-0.02469-0.22578-0.04974-0.34184-0.07585-0.11606-0.02575-0.23036-0.05574-0.34219-0.09031-0.11183-0.03387-0.21237-0.07902-0.30092-0.13476-0.08855-0.05609-0.15981-0.12841-0.21308-0.21731-0.05292-0.08855-0.08008-0.20002-0.08008-0.33373 0-0.14746 0.03034-0.27481 0.09031-0.38276s0.14005-0.19685 0.23989-0.26635c0.09948-0.0695 0.21272-0.12136 0.33972-0.15558s0.25718-0.05115 0.39088-0.05115c0.15028 0 0.28963 0.01764 0.41804 0.05292 0.12841 0.03563 0.24095 0.09172 0.33796 0.16828 0.09666 0.07655 0.17321 0.17251 0.22931 0.28857 0.05574 0.11606 0.08643 0.2547 0.09208 0.41557h-0.3683c-0.02189-0.21026-0.09808-0.3623-0.22755-0.4565"/>
   </g>
  </g>
 </g>
</svg>
