<svg xmlns="http://www.w3.org/2000/svg" data-name="Layer 1" viewBox="0 0 1281.66 445.9"><path d="M0 0h1281.66v445.9H0z" style="fill:none"/><path d="M236.25 284.9h28.35c-5.25 36.75-34.3 67.2-83.65 67.2-50 0-87.15-33.6-87.15-88.55v-3.85c0-54.95 37.1-88.55 87.15-88.55 49.35 0 76.65 30.8 82.25 68.25h-28c-4.2-23.8-21.35-43.4-53.9-43.4-34 0-59.85 24.15-59.85 64.05v3.15c0 39.9 25.9 64.05 59.85 64.05 32.2 0 49.7-17.85 54.95-42.35m398.65 38.85v23.45h-24.15c-15.4 0-25.55-9.1-25.55-23.8v-1.75H581c-7.35 13.65-21.7 30.45-57 30.45-36.4 0-64.4-19.25-64.4-53.55 0-34.65 28-51.8 64.75-51.8h57.75v-12.6c0-24.15-14-39.2-42-39.2-26.95 0-42 14.7-47.25 36.75h-27.7v-57.4c0-33.25-19.25-56.35-47.25-56.35-30.45 0-49 24.85-49 53.55 36.05 3.5 59.5 24.85 61.25 60.2h-26.6c-2.8-28.35-21.7-37.45-44.8-37.45-23.45 0-37.8 9.1-37.8 25.55s13.65 22.75 35.35 26.6l14.35 2.45c36.05 6.3 64.4 17.5 64.4 50.75 0 33.6-26.95 52.5-68.95 52.5-42.7 0-77.7-18.9-80.85-67.2h26.95c4.9 33.6 28 44.1 53.9 44.1 25.55 0 41.65-10.85 41.65-28.35S392.7 277.2 367.85 273l-14.35-2.45c-33.95-5.95-59.85-20-59.85-50.4 0-25.9 18.55-43.05 47.6-47.6.35-42.35 29.4-78.75 76.65-78.75 44.8 0 72.8 32.9 72.8 81.9v13h4.2c11.2-15.75 33.6-17.5 45.5-17.5 42.7 0 69 23.8 69 64.75v77.35c0 7 3.5 10.5 9.8 10.5Zm-52.85-54.6h-56.7c-22.05 0-37.8 9.45-37.8 28.7s15.75 30.45 39.55 30.45c32.9 0 54.95-20.3 54.95-55.3Zm147.33-77.94v-.83c0-11.93 8.06-19.23 18.92-19.23s16.57 6.69 17.79 14.21l-5.85 1.22c-.76-5.47-4.49-10-11.86-10s-13 5.25-13 13.91v.69c0 8.66 5.63 13.91 13 13.91s11.17-4.34 12.09-10l5.92 1.3c-1.59 7.45-7.37 14.13-18.09 14.13s-18.92-7.37-18.92-19.31m45.45.08v-1c0-11.63 7.76-19.15 19-19.15s19 7.52 19 19.15v1c0 11.63-7.76 19.15-19 19.15s-19-7.52-19-19.15m32-.15v-.69c0-8.51-5.17-13.91-13-13.91s-13 5.4-13 13.91v.69c0 8.51 5.17 13.91 13 13.91s13-5.4 13-13.91m16.8-18.93h5.85v6.31h1.07c1.59-3.57 5.17-7 12.77-7 8.21 0 14.74 5.39 14.74 15.35v22.5h-6v-22c0-7.37-4-10.57-10.26-10.57-7.15 0-12.16 4.72-12.16 13.91v18.7h-6Zm46.59 0h5.86v6.31h1.06c1.6-3.57 5.17-7 12.77-7 8.21 0 14.75 5.39 14.75 15.35v22.5h-6v-22c0-7.37-4-10.57-10.26-10.57-7.14 0-12.16 4.72-12.16 13.91v18.7h-6ZM915 191.29v-.91c0-11.48 7.6-19.23 18.47-19.23 10.57 0 17.86 7.14 17.86 18.47v2.73h-30.26c.23 8 5.55 12.77 12.93 12.77 6.38 0 9.5-3.34 11.32-7.45l5.17 2.51c-2.28 4.72-6.69 10.26-16.65 10.26-11.32 0-18.84-7.67-18.84-19.15m30.25-3.88c-.45-6.91-5.09-10.94-11.78-10.94s-11.4 4-12.31 10.94Zm14.75 3.8v-.83c0-11.93 8.06-19.23 18.93-19.23 10.71 0 16.57 6.69 17.78 14.21l-5.85 1.22c-.76-5.47-4.48-10-11.86-10s-13 5.25-13 13.91v.69c0 8.66 5.62 13.91 13 13.91s11.18-4.34 12.09-10l5.93 1.3c-1.6 7.45-7.38 14.13-18.09 14.13-10.88-.08-18.93-7.37-18.93-19.31m52.83 11.63v-25.38h-11.17v-5.25h11.17V159h6v13.22H1031v5.25h-12.16v24.4c0 1.52.61 2.28 2.21 2.28h8.28v5.24h-9.88c-4.28-.01-6.63-2.52-6.63-6.55Zm26.3-41a4.6 4.6 0 1 1 4.56 4.56 4.45 4.45 0 0 1-4.57-4.52Zm1.59 10.33h6v37.17h-6Zm14.75 0h6.38L1073 204.9h1.06l11.17-32.69h6.39l-13.3 37.17h-9.58Zm43.25-10.33a4.6 4.6 0 1 1 4.56 4.56 4.45 4.45 0 0 1-4.57-4.52Zm1.59 10.33h6v37.17h-6Zm25.69 30.67v-25.38h-11.17v-5.25H1126V159h6v13.22h12.16v5.25H1132v24.4c0 1.52.61 2.28 2.2 2.28h8.29v5.24h-9.88c-4.26-.01-6.61-2.52-6.61-6.55m32.38 16.42h21.29c1.59 0 2.2-.76 2.2-2.28v-13.53h-1.06c-1.6 3.27-5.1 6.61-12.7 6.61-8.21 0-14.67-5.32-14.67-15.27v-22.58h6v22.12c0 7.37 4 10.49 10.26 10.49 7.07 0 12.16-4.64 12.16-13.91v-18.7h6V218c0 4-2.43 6.54-6.68 6.54h-22.81Zm-429.6 46.79 5.7-1.29c1.07 7.3 6.08 9.58 11.71 9.58s9-2.36 9-6.16-3.27-5-8.66-6l-3.12-.54c-7.3-1.29-13-4.25-13-10.94s5.63-10.64 14.14-10.64 13.76 3.95 15.28 10.87l-5.63 1.44c-.91-5.32-4.63-7.3-9.65-7.3s-8.21 2-8.21 5.55 3 4.94 7.68 5.78l3.11.53c7.83 1.37 14 3.8 14 11s-5.85 11.4-15 11.4c-9.23.02-16.07-4.08-17.36-13.28Zm48.72 5.7v-25.38h-11.18v-5.25h11.17V227.9h6v13.22h12.16v5.25H783.5v24.39c0 1.52.61 2.28 2.2 2.28h8.3v5.25h-9.88c-4.27 0-6.63-2.51-6.63-6.54Zm25.16-4c0-7.52 6-11.24 14-11.24h12.54v-2.74c0-5.25-3-8.51-9.2-8.51-6 0-9.27 3.19-10.41 8l-5.59-1.88c1.74-6.23 6.76-11.32 16.11-11.32s15.05 5.17 15.05 14.06v16.8c0 1.52.76 2.28 2.13 2.28h3.42v5.09h-5.25c-3.34 0-5.55-2-5.55-5.17v-.38H829c-1.59 3-4.71 6.61-12.39 6.61-7.95 0-13.96-4.18-13.96-11.63Zm26.53-5.54v-.84h-12.32c-4.79 0-8.21 2.05-8.21 6.23s3.42 6.61 8.59 6.61c7.14-.03 11.93-4.43 11.93-12.03Zm19.69-21.06h5.85v6.31h1.06c1.6-3.57 5.17-7 12.77-7 8.21 0 14.75 5.39 14.75 15.35v22.5h-6v-22c0-7.38-4-10.57-10.26-10.57-7.14 0-12.16 4.71-12.16 13.91v18.7h-6Zm44.77 19.08v-1c0-11.86 7.83-19.15 17.55-19.15 7.76 0 11.63 3.49 13.53 6.91h1.07v-21.91h6v53.21h-5.85v-6.16h-1.06c-2.06 3.73-5.93 7.22-13.69 7.22-9.66 0-17.56-7.22-17.56-19.15Zm32.15-.15v-.69c0-8.81-5.32-14-13-14s-13.07 5.17-13.07 14v.69c0 8.81 5.39 14 13.07 14s12.99-5.22 12.99-14.03Zm16.11 7.67c0-7.52 6-11.24 14-11.24h12.54v-2.74c0-5.25-3-8.51-9.2-8.51-6 0-9.27 3.19-10.41 8l-5.62-1.83c1.74-6.23 6.76-11.32 16.11-11.32s15.05 5.17 15.05 14.06v16.8c0 1.52.76 2.28 2.13 2.28h3.42v5.09h-5.25c-3.34 0-5.55-2-5.55-5.17v-.38h-.91c-1.59 3-4.71 6.61-12.39 6.61-7.92-.05-13.93-4.23-13.93-11.68Zm26.53-5.54v-.84h-12.32c-4.79 0-8.21 2.05-8.21 6.23s3.42 6.61 8.59 6.61c7.14-.03 11.93-4.43 11.93-12.03Zm19.69-21.06H994v4.56h1c1.3-3.27 4-4.71 8.44-4.71h4.41v5.47h-4.79c-5.4 0-9 3-9 9.2v22.65h-6Zm25.46 19.08v-1c0-11.86 7.83-19.15 17.56-19.15 7.75 0 11.63 3.49 13.53 6.91h1.06v-21.91h6v53.21h-5.86v-6.16h-1.06c-2 3.73-5.93 7.22-13.68 7.22-9.65 0-17.56-7.22-17.56-19.15Zm32.15-.15v-.69c0-8.81-5.32-14-13-14s-13.07 5.17-13.07 14v.69c0 8.81 5.4 14 13.07 14s12.99-5.22 12.99-14.03Zm16.19 6 5.7-1.29c1.07 7.3 6.08 9.58 11.71 9.58s9-2.36 9-6.16-3.27-5-8.66-6l-3.12-.54c-7.29-1.29-13-4.25-13-10.94s5.63-10.64 14.14-10.64c8.36 0 13.76 3.95 15.28 10.87l-5.63 1.44c-.91-5.32-4.63-7.3-9.65-7.3s-8.21 2-8.21 5.55 3 4.94 7.68 5.78l3.12.53c7.82 1.37 14 3.8 14 11s-5.85 11.4-15 11.4-16.08-4.11-17.37-13.31ZM728.7 336.63c0-7.52 6-11.25 14-11.25h12.54v-2.73c0-5.25-3-8.52-9.2-8.52-6 0-9.27 3.2-10.41 8l-5.63-1.84c1.75-6.23 6.76-11.32 16.11-11.32s15 5.16 15 14.06v16.8c0 1.52.76 2.28 2.13 2.28h3.42v5.09h-5.25c-3.34 0-5.54-2-5.54-5.17v-.38H755c-1.59 3-4.71 6.61-12.39 6.61-7.91 0-13.91-4.18-13.91-11.63m26.52-5.55v-.83h-12.31c-4.79 0-8.21 2.05-8.21 6.23s3.42 6.61 8.59 6.61c7.14 0 11.93-4.4 11.93-12.01M774.91 294h6v53.2h-6Zm18.62 0h6v53.2h-6Zm17 5.7a4.6 4.6 0 1 1 4.56 4.56 4.45 4.45 0 0 1-4.53-4.57Zm1.62 10.3h6v37.2h-6Zm16.12 26.6c0-7.52 6-11.25 14-11.25h12.54v-2.73c0-5.25-3-8.52-9.19-8.52s-9.28 3.2-10.42 8l-5.62-1.83c1.75-6.23 6.76-11.32 16.11-11.32s15.05 5.16 15.05 14.06v16.8c0 1.52.76 2.28 2.13 2.28h3.42v5.09H861c-3.35 0-5.55-2-5.55-5.17v-.38h-.91c-1.6 3-4.72 6.61-12.39 6.61-7.88.02-13.88-4.16-13.88-11.61Zm26.52-5.55v-.83h-12.31c-4.79 0-8.21 2.05-8.21 6.23s3.42 6.61 8.59 6.61c7.14.03 11.93-4.37 11.93-11.98ZM874.48 310h5.85v6.31h1.07c1.59-3.57 5.17-7 12.77-7 8.21 0 14.74 5.39 14.74 15.35v22.5h-6v-22c0-7.38-4-10.57-10.26-10.57-7.15 0-12.16 4.71-12.16 13.91v18.7h-6Zm44.77 19v-.83c0-11.94 8.06-19.23 18.93-19.23 10.71 0 16.56 6.69 17.78 14.21l-5.85 1.22c-.76-5.48-4.49-10-11.86-10s-13 5.25-13 13.91v.72c0 8.66 5.63 13.91 13 13.91s11.17-4.34 12.09-10l5.93 1.29c-1.6 7.45-7.38 14.14-18.09 14.14-10.87-.08-18.93-7.34-18.93-19.34m45.45.08v-.91c0-11.48 7.6-19.23 18.47-19.23 10.57 0 17.86 7.14 17.86 18.47v2.73h-30.25c.23 8 5.55 12.77 12.92 12.77 6.39 0 9.51-3.34 11.33-7.45l5.17 2.51c-2.28 4.71-6.69 10.26-16.65 10.26-11.32.03-18.85-7.64-18.85-19.12Zm30.3-3.85c-.45-6.91-5.09-10.94-11.78-10.94s-11.4 4-12.31 10.94Z" style="fill:#2158f3"/></svg>