<?xml version="1.0" encoding="utf-8"?>
<!-- Generator: Adobe Illustrator 19.0.0, SVG Export Plug-In . SVG Version: 6.00 Build 0)  -->
<svg version="1.1" id="layer" xmlns="http://www.w3.org/2000/svg" xmlns:xlink="http://www.w3.org/1999/xlink" x="0px" y="0px"
	 viewBox="-153 -46 652 652" style="enable-background:new -153 -46 652 652;" xml:space="preserve">
<style type="text/css">
	.st0{fill:#66CCCC;}
	.st1{fill:#0F1821;}
</style>
<path id="XMLID_13_" class="st0" d="M30.3,314.7H-13v-69.9h43.2V314.7z M-34.6,188.2v183.1l-48.3-13.3v-43.2h-43.2v-69.9h43.2v-43.2
	L-34.6,188.2z M-42.7,279.7c0-2.5-1.2-4.6-2.6-4.6c-1.4,0-2.6,2-2.6,4.6c0,2.5,1.2,4.6,2.6,4.6C-43.9,284.3-42.7,282.2-42.7,279.7"
	/>
<path id="XMLID_2_" class="st1" d="M112.8,314.7v-6.9c-4.3,5.4-10.2,8.3-16.7,8.3c-13.7,0-23.9-10.3-23.9-28.3
	c0-17.7,10.2-28.4,23.9-28.4c6.4,0,12.4,2.8,16.7,8.3v-22.8h14.3v70H112.8z M112.8,297.3v-19.1c-2.4-3.6-7.5-6.2-12.3-6.2
	c-8.1,0-13.7,6.4-13.7,15.8c0,9.3,5.6,15.7,13.7,15.7C105.3,303.4,110.5,300.8,112.8,297.3 M134.5,287.6c0-15.3,10.7-28.3,28.5-28.3
	c17.9,0,28.6,13,28.6,28.3c0,15.4-10.7,28.4-28.6,28.4C145.2,316.1,134.5,303.1,134.5,287.6 M176.9,287.6c0-8.4-5-15.7-13.9-15.7
	c-8.8,0-13.8,7.3-13.8,15.7c0,8.5,4.9,15.8,13.8,15.8C171.8,303.4,176.9,296.1,176.9,287.6 M231.5,314.7l-12.3-18.2l-12.4,18.2H191
	l19.1-27.8l-18-26.3H208l11.2,16.7l11.1-16.7h15.9L228.1,287l19.4,27.8H231.5z M301,306.9c0-4.9,4.1-9.1,9.1-9.1
	c4.9,0,9.1,4.1,9.1,9.1c0,4.9-4.1,9.1-9.1,9.1C305.1,315.9,301,311.8,301,306.9 M396,314.7v-34.1c0-5-2.2-8.6-8.1-8.6
	c-5,0-9.2,3.4-11.2,6.3v36.5h-14.3v-34.1c0-5-2.2-8.6-8.1-8.6c-4.9,0-9.1,3.4-11.2,6.4v36.4H329v-54h14.2v7
	c2.2-3.2,9.4-8.4,17.7-8.4c7.9,0,13,3.7,15,9.8c3.1-4.9,10.3-9.8,18.6-9.8c10,0,15.9,5.3,15.9,16.3v39.1H396z M418.8,287.6
	c0-15.7,11.5-28.3,28-28.3c16.1,0,27.1,12.1,27.1,29.8v3.1h-40.2c0.9,6.8,6.4,12.5,15.6,12.5c4.6,0,11-2,14.4-5.4l6.3,9.2
	c-5.4,4.9-13.9,7.5-22.3,7.5C431.3,316.1,418.8,305,418.8,287.6 M446.8,270.6c-8.8,0-12.6,6.6-13.3,12h26.6
	C459.8,277.5,456.2,270.6,446.8,270.6 M262.3,336.3h15.2l29.9-75.6h-15.3l-14,37.8l-14.2-37.8h-15.2l22.2,54.5L262.3,336.3z"/>
</svg>
