<svg xmlns="http://www.w3.org/2000/svg" viewBox="0 0 400 400"><path fill="#084f7e" fill-rule="evenodd" d="M174.5 10.557C89.145 22.085 22.429 88.533 10.4 174c-2.216 15.746-1.425 48.094 1.529 62.5 12.281 59.894 51.065 109.988 105.298 136.004 14.146 6.786 28.579 11.615 45.273 15.148 12.014 2.543 14.783 2.755 36.5 2.8 25.363.052 33.073-.857 52-6.129 52.904-14.736 96.951-51.648 120.909-101.323 49.035-101.672.071-222.701-106.152-262.387C238.39 10.388 203.894 6.587 174.5 10.557m6.5 6.546C126.38 23.244 77.675 52.58 47.521 97.5c-22.394 33.359-32.717 69.77-31.187 110 1.773 46.637 20.466 89.303 53.671 122.498 44.661 44.65 108.165 63.099 169.916 49.365 70.463-15.671 125.678-72.078 140.032-143.053 12.47-61.662-7.536-125.112-53.3-169.048C288.195 30.341 232.832 11.275 181 17.103m10.337 9.503c-3.994 1.969-5.742 6.11-5.075 12.023.7 6.216 3.449 8.871 9.182 8.871 4.953 0 5.87-.517 4.989-2.814-.438-1.142-1.405-1.442-3.376-1.047-2.187.437-3.209-.016-4.909-2.178q-4.27-5.429.402-10.102c1.892-1.892 3.183-2.392 5-1.936 1.96.492 2.45.233 2.45-1.297 0-3.303-3.724-3.957-8.663-1.52M210.5 27.75c-.905 2.219-6.5 18.519-6.5 18.938 0 .171.911.312 2.025.312 1.239 0 2.393-.969 2.975-2.5 1.451-3.817 5.853-3.486 6.65.5.45 2.25 1.154 3 2.815 3h2.214l-1.853-9.75c-1.02-5.362-2.059-10.312-2.309-11-.686-1.887-5.196-1.512-6.017.5m-34.114 6.5c1.068 11.51 1.767 14.75 3.183 14.75 2.357 0 2.563-1.853 1.334-11.998-1.08-8.91-1.43-10.002-3.201-10.002-1.864 0-1.947.455-1.316 7.25m50.193 2.5c-.932 4.813-1.907 9.484-2.166 10.382-.547 1.889.593 2.446 6.959 3.401 4.194.629 4.628.506 4.628-1.308 0-1.498-.884-2.168-3.507-2.66-2.957-.555-3.435-1.004-3.046-2.862 3.074-14.688 3.119-15.703.69-15.703-1.547 0-2.151 1.487-3.558 8.75m-61.567-7c.006.413.665 3.204 1.463 6.203s1.314 5.592 1.145 5.76c-.168.168-2.284-2.173-4.702-5.203-4.334-5.432-7.445-6.907-8.541-4.051-.645 1.682 3.45 20.549 4.455 20.526 2.659-.061 3.052-1.737 1.645-7.023-2.248-8.45-1.833-8.722 3.231-2.11 3.349 4.373 5.37 6.148 7 6.148 2.812 0 2.816-.284.176-11.75-1.756-7.624-2.46-9.25-4.007-9.25-1.032 0-1.872.337-1.865.75m47.849 1.75c-.344.55-.939 2.462-1.323 4.25-.546 2.547-.368 3.25.824 3.25.836 0 1.684-.337 1.886-.75.621-1.274-.722-7.812-1.387-6.75m-69.095 3.243c-1.593.365-1.613.687-.25 3.949 1.962 4.695 1.964 4.689-1.612 6.038-3.029 1.143-3.131 1.084-4.75-2.77-1.779-4.238-1.955-4.372-4.007-3.072-1.091.691-.633 2.797 2.358 10.863 3.148 8.485 3.999 9.93 5.603 9.51 2.259-.59 2.216-.09.44-5.126-1.353-3.835-1.324-4.185.434-5.125 2.569-1.375 4.99-1.27 5.52.24 2.373 6.758 2.442 6.85 4.386 5.81 1.833-.981 1.772-1.383-1.566-10.291-3.839-10.244-4.069-10.596-6.556-10.026m113.274 8.709c-1.983 2.39-.832 5.013 2.36 5.378 4.177.478 5.854-2.433 3.029-5.259-1.961-1.96-3.827-2.002-5.389-.119m-137.354 1.963c-1.433 1.328-2.891 3.554-3.241 4.947C114.98 56.201 121.099 65 126.626 65c3.217 0 8.374-2.685 8.374-4.359 0-2.316-1.132-2.546-4.54-.921-3.07 1.464-3.539 1.458-5.882-.077-4.65-3.047-4.841-10.282-.328-12.438 1.513-.723 2.75-1.965 2.75-2.76 0-2.293-4.426-1.706-7.314.97m162.434 8.324c-2.741 9.401-4.105 14.633-3.843 14.738.123.049 1.006.688 1.963 1.421 1.54 1.177 2.666.498 9.75-5.889 4.406-3.972 8.01-7.637 8.01-8.146s-.712-1.199-1.581-1.533c-1.063-.407-3.523 1.315-7.5 5.25-3.256 3.222-5.919 5.613-5.919 5.314s1.125-3.851 2.5-7.894 2.5-7.481 2.5-7.64-.879-.76-1.954-1.336c-1.784-.954-2.127-.455-3.926 5.715m-179.247 1.605-4.628 3.098 5.903 8.779c3.247 4.828 6.148 8.779 6.448 8.779.299 0 2.519-1.359 4.934-3.021 2.887-1.986 4.197-3.528 3.824-4.5-.731-1.905-1.834-1.866-4.949.175-2.352 1.541-2.64 1.54-4.202-.023-1.57-1.57-1.486-1.831 1.31-4.079 2.412-1.94 2.744-2.65 1.727-3.687-1.024-1.045-1.809-.96-4.2.452-2.833 1.674-2.979 1.666-3.994-.231-.891-1.665-.59-2.242 1.95-3.743 3.32-1.961 3.602-2.62 1.754-4.097-.884-.707-2.604-.093-5.877 2.098M176 60.538c-13.37 2.114-25.506 6.054-38.5 12.499C86.114 98.526 55.641 153.053 60.957 210c3.116 33.386 16.282 61.674 39.621 85.134 19.172 19.271 43.092 32.332 69.62 38.013 13.849 2.966 41.822 3.243 55.141.545 19.543-3.958 39.684-12.75 55.816-24.365 8.417-6.06 23.984-21.619 29.657-29.643l3.312-4.684h-16.833l-6.053 6.811c-32.627 36.711-87.531 50.409-134.472 33.548-35.826-12.869-64.612-42.143-76.138-77.428-10.527-32.226-8.683-64.518 5.349-93.665 5.954-12.367 11.241-20.397 19.744-29.984C125.226 92.29 152.33 77.775 182 73.431c52.469-7.681 106.376 21.851 129.572 70.983 2.359 4.997 4.594 10.324 4.967 11.836.662 2.687.844 2.75 7.989 2.75h7.311l-.983-3.56c-.541-1.958-2.529-7.17-4.417-11.584C307.341 99.237 266.945 67.584 220 60.455c-11.628-1.766-32.556-1.727-44 .083m120.505 7.139c-3.694 4.716-6.305 8.855-5.801 9.199s2.578 1.916 4.608 3.494c3.074 2.39 3.949 2.658 5.223 1.601 1.34-1.112 1.146-1.595-1.56-3.871-2.794-2.35-2.955-2.784-1.674-4.518 1.39-1.881 1.478-1.875 4.496.273 2.816 2.006 3.157 2.049 4.016.514.712-1.272.312-2.218-1.654-3.909-2.221-1.91-2.403-2.461-1.264-3.833 1.211-1.459 1.588-1.419 4.211.448 2.869 2.044 4.929 1.881 4.855-.384-.021-.655-1.997-2.63-4.389-4.389l-4.35-3.198zM88.472 66.109c-2.735 2.252-5.149 4.262-5.365 4.468-.215.206.187 1.072.894 1.924 1.157 1.395 1.472 1.381 3.149-.136 1.024-.927 1.991-1.501 2.149-1.276C91.533 74.288 100.433 84 101.13 84c2.785 0 1.61-3.519-3.029-9.071C95.295 71.572 93 68.437 93 67.962s.787-1.31 1.75-1.856c1.571-.891 1.593-1.152.222-2.542-1.377-1.395-2.019-1.144-6.5 2.545m221.54 12.378c-5.848 5.888-7.177 7.748-6.218 8.707.958.958 2.285.168 6.212-3.7C312.753 80.789 315 79.1 315 79.742s-1.064 4.098-2.364 7.68c-2.198 6.055-2.247 6.62-.701 8.02 1.512 1.367 2.374.791 9.422-6.298 7.007-7.048 7.597-7.937 6.095-9.184-1.467-1.218-2.184-.827-6.112 3.33-2.448 2.591-4.588 4.71-4.757 4.71s.815-3.146 2.185-6.991c2.03-5.694 2.26-7.271 1.239-8.5-.688-.83-1.546-1.509-1.904-1.509-.359 0-4 3.369-8.091 7.487m-132.919 8.597c-12.223 2.4-14.701 3.671-23.623 12.116-7.419 7.023-17.47 19.207-17.47 21.177 0 .343 6.764.623 15.031.623 13.43 0 15.093-.186 15.608-1.75.317-.963 2.635-5.993 5.151-11.178 3.36-6.922 6.223-11.108 10.774-15.75L188.763 86l-3.631.11c-1.998.06-5.615.498-8.039.974m34.407 1.718c2.2 1.668 5.686 5.254 7.747 7.97 3.575 4.711 11.753 20.803 11.753 23.125 0 .757 4.881 1.103 15.537 1.103h15.538l-3.97-5.845c-5.339-7.863-13.154-16.286-19.281-20.784-5.595-4.107-14.625-7.015-24.777-7.978l-6.547-.622zm-21.127.112c-5.562 3.392-11.285 10.306-15.762 19.044-2.408 4.698-4.686 9.555-5.062 10.792l-.684 2.25H197l.009-11.75c.004-6.463.292-14.112.639-17 .606-5.045.537-5.25-1.759-5.246-1.314.002-3.796.861-5.516 1.91M200 104v17h28.971l-2.047-5.25C220.918 100.343 209.088 87 201.435 87c-1.19 0-1.435 2.898-1.435 17m125.322-10.503c-3.948 3.003-7.464 5.923-7.813 6.489-.937 1.516 3.183 6.803 6.732 8.639 2.525 1.306 3.765 1.39 6.848.467 4.783-1.434 8.911-6.235 8.911-10.365 0-3.27-4.455-10.741-6.386-10.708-.613.01-4.344 2.475-8.292 5.478M71.04 91.452c-.663.799-1.051 2.261-.862 3.25.467 2.45 4.863 2.962 6.477.755 2.694-3.684-2.693-7.526-5.615-4.005m256.311 5.812c-5.392 4.294-5.871 6.316-1.741 7.353 5.96 1.496 11.593-3.308 9.806-8.363-.504-1.425-1.366-2.703-1.916-2.84-.55-.138-3.317 1.595-6.149 3.85m-183.749 2.209c-8.865 5.052-15.791 10.1-23.102 16.839l-5 4.609 8.5.008 8.5.008 4.293-6.371c2.361-3.504 7.014-9.34 10.339-12.968S152.789 95 152.314 95s-4.395 2.013-8.712 4.473m107.021 2.779c3.782 3.988 8.546 9.774 10.587 12.858 3.366 5.088 4.116 5.663 8.103 6.209 2.417.332 6.062.332 8.101.001l3.706-.601-3.31-3.44c-6.787-7.054-29.369-22.204-33.187-22.265-.483-.008 2.217 3.249 6 7.238m86.877 8.59c-4.384 2.68-5.9 4.922-5.9 8.724 0 9.594 12.543 11.424 19.312 2.819 6.592-8.38-3.865-17.38-13.412-11.543m-288.502 3.16c-1.542 1.651-3.246 4.271-3.787 5.823-.969 2.778-.848 2.896 7.921 7.748 4.898 2.71 9.215 4.864 9.593 4.788 1.502-.305 4.275-7.034 4.275-10.373 0-4.414-1.931-7.253-6.367-9.358-5.171-2.453-8.419-2.071-11.635 1.372m290.777.557c-3.697 2.006-5.15 4.871-3.775 7.441 1.416 2.646 4.908 2.537 9.095-.285 7.518-5.066 2.72-11.519-5.32-7.156M50.58 118.19c-1.485 2.119-1.343 2.297 4.444 5.558 3.288 1.853 6.427 3.091 6.977 2.751.549-.339.999-1.908.999-3.485 0-5.872-9.187-9.44-12.42-4.824m59.106 10.06c-4.972 6.128-10.534 15.139-13.827 22.4-1.572 3.468-2.859 6.541-2.859 6.828s5.513.52 12.25.517l12.25-.005 2.397-8.001c1.319-4.4 4.131-11.914 6.25-16.696s3.853-8.83 3.853-8.994c0-.165-3.795-.299-8.433-.299h-8.433zm19.846 3.813c-2.081 4.434-5.041 11.972-6.578 16.75l-2.795 8.687 18.064.273c9.935.15 18.246.091 18.469-.132s1.49-5.748 2.814-12.277c1.325-6.53 3.103-13.839 3.952-16.244s1.542-4.54 1.542-4.746-7.129-.374-15.842-.374h-15.843zm37.368-5.313c-1.428 3.74-5.634 21.648-6.458 27.5l-.669 4.75h18.506c15.954 0 18.591-.218 19.114-1.582.8-2.086.778-19.49-.035-27.271l-.643-6.147H167.95zm33.1 14.724V159h37.962l-.633-4.75c-.349-2.613-2.027-10.375-3.731-17.25l-3.098-12.5-15.25-.276-15.25-.276zm33.418-15.224c2.201 7.611 4.943 19.225 5.96 25.25l1.182 7 18.22.273c16.264.243 18.22.098 18.22-1.353 0-2.899-5.842-19.157-9.481-26.381L263.975 124h-31.208zm37.101 5c1.867 3.988 4.876 11.859 6.688 17.492l3.293 10.242 12.225.008 12.225.008-1.042-2.75c-2.193-5.786-10.199-20.024-14.623-26.006L284.667 124h-17.542zm78.481-.601c-9.779 4.081-10.287 4.44-9.436 6.657.569 1.482.968 1.499 4.155.167 4.599-1.922 5.281-1.861 5.281.47 0 1.099-1.304 2.714-3 3.716-3.096 1.829-3.555 2.918-2.157 5.121.625.985 1.483.764 3.734-.964 1.608-1.234 3.275-2.809 3.705-3.499.496-.795 1.878-1.035 3.777-.655 3.638.727 6.941-1.818 6.941-5.349 0-2.872-2.58-9.333-3.699-9.263-.441.028-4.626 1.647-9.301 3.599M39 133.5c-1.1 2.566-2 4.966-1.999 5.333.001 1.226 19.091 8.478 19.904 7.561.437-.492 1.562-2.877 2.499-5.301 1.379-3.564 1.456-4.566.401-5.235-2.131-1.351-2.593-1.03-3.805 2.642-1.272 3.855-1.782 4.111-4.383 2.209-1.532-1.12-1.597-1.658-.498-4.071 1.057-2.321 1.028-2.932-.176-3.691-1.566-.987-3.943 1.312-3.943 3.814 0 .857-.85 1.257-2.25 1.058-1.613-.229-2.161-.886-1.935-2.319.728-4.621.619-5.82-.565-6.232-.736-.256-2.072 1.483-3.25 4.232m315.25-.428c-2.427.931-2.696 1.676-1.365 3.776 1.177 1.857 4.514 1.036 4.947-1.216.495-2.566-.923-3.58-3.582-2.56M34.477 146.25c-.848 2.306-3.455 11.243-3.466 11.883-.006.349.889.869 1.989 1.157 1.145.299 2.007.028 2.015-.634.048-3.571 1.589-3.859 8.941-1.669 7.418 2.209 10.044 2.127 10.044-.313 0-.896-2.957-2.184-8.313-3.624-8.211-2.206-8.308-2.27-7.887-5.142.324-2.205.029-2.908-1.218-2.908-.905 0-1.852.563-2.105 1.25m317.537 3c.031 2.91 1.317 5.75 2.603 5.75 1.498 0 1.694-1.238.753-4.75-.631-2.352-3.38-3.171-3.356-1m12.486 8.249c-.55.187-4.44 1.072-8.645 1.966-6.503 1.382-7.573 1.896-7.169 3.441.445 1.702.889 1.729 7.045.439 3.613-.758 6.726-1.222 6.916-1.032s-2.353 2.301-5.651 4.69c-4.365 3.162-5.996 4.976-5.996 6.67 0 2.752-.145 2.739 9.185.83 11.943-2.444 11.815-2.394 11.815-4.589 0-1.487-.48-1.903-1.75-1.519-2.471.749-10.58 2.551-11.61 2.581-.473.013 1.889-2 5.25-4.474 4.654-3.426 6.11-5.094 6.11-7 0-1.951-.495-2.485-2.25-2.423-1.238.043-2.7.232-3.25.42M91.155 162.75c-1.664 3.181-4.276 16.584-4.869 24.984L85.703 196h26.991l.671-10.75c.369-5.912 1.267-13.787 1.996-17.5l1.326-6.75h-12.309c-10.706 0-12.427.228-13.223 1.75m26.97 4.5c-.594 3.438-1.334 9.625-1.643 13.75-.31 4.125-.775 9.188-1.034 11.25l-.472 3.75H134v-35h-14.795zM139 204v41h50v-18h-28v-14h27v-17h-27v-13h28v-20h-50zm56-31v10h15v62h22v-62h24.793l3.604-9.3c1.982-5.114 3.603-9.614 3.603-10s-15.525-.7-34.5-.7H195zm74.896-7.279C263.451 182.355 242 243.04 242 244.639c0 .199 4.885.361 10.856.361h10.857l1.929-6.75 1.929-6.75 16.085-.274 16.086-.274 1.822 7.024 1.822 7.024h10.807c5.944 0 10.807-.371 10.807-.824s-6.232-18.791-13.85-40.75L297.301 163.5l-13.164-.279-13.164-.279zM312 164.097c-5.595 2.22-7.865 10.127-4.418 15.388 1.882 2.872 7.224 4.853 10.722 3.975 7.011-1.76 9.827-11.86 4.696-16.841-2.95-2.864-7.507-3.909-11-2.522m-282.333.57c-2.014 2.014.023 3.219 8.083 4.781 12.256 2.377 12.75 2.381 12.75.124 0-1.63-1.389-2.199-9-3.689-10.476-2.051-10.95-2.099-11.833-1.216m280.689 2.703c-7.262 6.246.53 17.957 8.96 13.467 3.205-1.708 4.62-3.955 4.62-7.337s-1.415-5.629-4.62-7.337c-3.308-1.762-5.917-1.41-8.96 1.207m.644 6.13c0 4.833.242 5.5 2 5.5 1.387 0 2.021-.689 2.068-2.25l.067-2.25 1.085 2.25c.597 1.238 1.907 2.25 2.911 2.25 1.579 0 1.674-.334.701-2.47-.861-1.889-.827-2.831.143-4 1.969-2.372-.459-4.53-5.097-4.53H311zm4-1.917c0 .871.534 1.406 1.188 1.188 1.854-.618 2.161-2.771.395-2.771-.871 0-1.583.713-1.583 1.583m-282.671 3.863c-3.76 1.649-4.845 3.479-5.745 9.685-.789 5.446-1.037 5.319 12.518 6.397l8.602.684.579-3.566c.853-5.259-.889-10.394-4.08-12.024-4.429-2.263-8.482-2.664-11.874-1.176m-.39 5.615c-3.651 3.651-2.203 5.369 5.071 6.016 7.293.649 8.507.12 7.641-3.332-1.153-4.595-9.12-6.276-12.712-2.684M366 179.643c-14.701 1.496-14 1.281-14 4.304 0 5.768 1.166 9.053 3.213 9.053 1.725 0 1.884-.469 1.309-3.871-.604-3.576-.46-3.908 1.893-4.358 2.238-.427 2.624-.078 3.178 2.871.465 2.481 1.152 3.358 2.63 3.358 1.744 0 1.916-.448 1.343-3.5-.611-3.255-.479-3.5 1.889-3.5 2.242 0 2.545.417 2.545 3.5 0 2.862.374 3.5 2.05 3.5 1.864 0 2.023-.522 1.75-5.75-.328-6.294-.419-6.359-7.8-5.607m-84.36 5.05c-.293.994-2.393 8.033-4.668 15.642s-3.933 14.037-3.686 14.285c.248.248 5.155.322 10.904.165l10.453-.285-4.702-15.5c-3.176-10.468-5.2-15.6-6.236-15.807-.844-.169-1.773.506-2.065 1.5M44 200c0 3.6-.25 4-2.5 4-2.19 0-2.5-.433-2.5-3.5 0-2.833-.381-3.5-2-3.5s-2 .667-2 3.5c0 3.067-.31 3.5-2.5 3.5s-2.5-.433-2.5-3.5c0-2.833-.381-3.5-2-3.5-1.755 0-2 .667-2 5.441 0 2.993.414 5.697.921 6.01s5.457.272 11-.091L48 207.699v-5.849c0-5.183-.228-5.85-2-5.85-1.667 0-2 .667-2 4m312.235-1.983c-2.745 1.126-4.464 5.222-3.614 8.61.974 3.881 4.518 5.503 13.344 6.108 7.637.524 8.035.448 8.035-1.52 0-2.109-1.054-2.382-13.399-3.461-1.595-.14-3.395-1.068-4-2.063-1.977-3.247 1.752-4.862 10.399-4.503 6.937.289 7.5.162 7.5-1.688 0-1.816-.735-2.019-8-2.206-4.4-.113-9.019.212-10.265.723m-269.863 9.661c.662 8.615 2.523 18.294 4.532 23.572L91.95 234h24.322l-.63-4.25a3890 3890 0 0 0-1.615-10.75c-.543-3.575-.996-9.537-1.007-13.25L113 199H85.705zm29.189-4.928c.203 2.063.576 6.9.828 10.75.253 3.85.989 10.037 1.638 13.75l1.178 6.75H134v-35h-18.81zm-73.365 11.247c-3.531 1.603-4.655 1.734-6.262.73-1.582-.988-2.485-.929-4.696.307-2.307 1.29-2.787 2.295-3.048 6.388-.171 2.671.131 5.299.672 5.84.643.643 4.461.556 11.06-.252C48.697 225.935 50 225.531 50 223.888c0-1.571-.756-1.888-4.5-1.888-5.74 0-6.131-2.426-.75-4.656 4.62-1.915 4.427-1.72 3.667-3.701-.785-2.045-.956-2.035-6.221.354m-10.185 5.49c-1.621 1.952-.486 4.909 1.579 4.117.866-.332 2.198-.604 2.96-.604 2.34 0-.307-4.927-2.678-4.985-.345-.008-1.183.654-1.861 1.472m336.989.94c0 1.415-.337 2.564-.75 2.553s-4.462-.624-9-1.361c-8.24-1.34-8.25-1.339-8.25.859 0 1.995.792 2.318 8.521 3.468 8.309 1.236 8.514 1.332 8.25 3.875-.187 1.801.26 2.717 1.443 2.96 2.001.411 2.857-2.164 3.114-9.373.138-3.889-.171-4.908-1.578-5.196-1.306-.268-1.75.294-1.75 2.215m-321.097 10.25c-.053.453-.022 2.463.069 4.468.197 4.341-2.604 6.855-7.638 6.855-3.418 0-6.334-2.864-6.334-6.223 0-1.147-.756-1.777-2.131-1.777-1.893 0-2.065.407-1.539 3.643 1.261 7.771 8.094 11.032 15.891 7.584 5.334-2.36 7.366-6.181 6.03-11.338-.774-2.988-4.086-5.435-4.348-3.212m300.704 3.905c-.334.87-.607 1.699-.607 1.841 0 .143 1.829.808 4.064 1.478 5.297 1.587 4.58 3.515-1.454 3.906-4.227.275-4.701.543-4.422 2.5.276 1.937.895 2.183 5.312 2.105 3.78-.066 5.319.361 6.307 1.75 1.66 2.335 6.398 2.384 8.439.088 1.816-2.044 3.909-9.036 2.892-9.665-.709-.438-18.658-5.585-19.477-5.585-.246 0-.72.712-1.054 1.582M93 237.667c0 2.329 10.028 20.826 14.683 27.083l4.65 6.25h8.917c4.904 0 8.753-.337 8.553-.75-4.074-8.409-6.578-14.543-9.285-22.75-2.513-7.618-3.742-10.049-5.158-10.205-1.023-.112-6.472-.353-12.11-.535-7.656-.247-10.25-.018-10.25.907m27.625 2.083c2.159 8.944 11.359 31.25 12.889 31.25.267 0 .486-7.65.486-17v-17h-14.038zm238.559 3c.251 2.182.832 2.75 2.816 2.75 3.45 0 4.107-3.971.802-4.856-3.654-.979-3.953-.805-3.618 2.106m-306.833 3.878c-.825.338-.72 1.33.372 3.52 1.405 2.814 1.373 3.247-.419 5.646-3.935 5.271-11.436 4.511-12.897-1.307-.671-2.674-1.17-2.924-3.231-1.617-1.091.692-1.066 1.459.144 4.354 2.721 6.513 8.41 8.421 15.323 5.141 5.827-2.765 7.999-10.477 4.229-15.02-1.166-1.404-1.618-1.496-3.521-.717m291.207 4.081c-.431 1.123.096 2.276 1.536 3.362 1.72 1.297 2.043 2.246 1.501 4.407-.607 2.417-1.049 2.681-3.623 2.166-2.299-.459-3.171-.141-4.033 1.471-.606 1.131-.952 2.178-.77 2.326.583.476 21.938 2.785 22.31 2.413.197-.197.611-1.482.921-2.856.495-2.201-.431-3.241-7.792-8.748-4.595-3.437-8.588-6.25-8.874-6.25s-.815.769-1.176 1.709M139 261c0 7.333.167 8 2 8s2-.667 2-8-.167-8-2-8-2 .667-2 8m8 0c0 7.258.18 8 1.945 8 1.611 0 1.998-.816 2.25-4.75l.305-4.75 3.42 4.75c1.937 2.691 4.212 4.75 5.25 4.75 1.621 0 1.83-.914 1.83-8 0-7.333-.167-8-2-8-1.713 0-2 .667-2 4.644v4.644l-3.546-4.644c-2.085-2.731-4.35-4.644-5.5-4.644-1.776 0-1.954.729-1.954 8m18-6c0 1.111.667 2 1.5 2 1.167 0 1.5 1.333 1.5 6 0 5.733.111 6 2.5 6s2.5-.267 2.5-6c0-4.667.333-6 1.5-6 .833 0 1.5-.889 1.5-2 0-1.758-.667-2-5.5-2s-5.5.242-5.5 2m13 6v8h5c4.333 0 5-.267 5-2 0-1.556-.667-2-3-2-3.756 0-3.964-1.756-.259-2.184 1.654-.19 2.874-1.011 3.074-2.066.259-1.367-.359-1.75-2.825-1.75-3.885 0-3.604-2.35.337-2.816 1.507-.179 2.673-.942 2.673-1.75 0-1.054-1.325-1.434-5-1.434h-5zm13 0c0 7.242.183 8 1.934 8 1.355 0 2.041-.822 2.293-2.75l.361-2.75 1.366 2.75c.908 1.827 2.152 2.75 3.707 2.75 2.765 0 2.835-.314.77-3.465-1.433-2.187-1.423-2.617.115-4.965 1.563-2.386 1.567-2.749.046-5.07-1.344-2.05-2.443-2.5-6.115-2.5H191zm14 0c0 7.258.18 8 1.945 8 1.611 0 1.998-.816 2.25-4.75l.305-4.75 3.5 4.711c2.325 3.13 4.255 4.724 5.75 4.75 2.149.037 2.25-.32 2.25-7.961 0-7.258-.18-8-1.945-8-1.611 0-1.998.816-2.25 4.75l-.305 4.75-3.5-4.711c-2.325-3.13-4.255-4.724-5.75-4.75-2.149-.037-2.25.32-2.25 7.961m22.505-6.817c-1.853 5.047-4.505 13.274-4.505 13.974 0 .463.9.843 2 .843 1.111 0 2-.667 2-1.5 0-1.048 1.056-1.5 3.5-1.5s3.5.452 3.5 1.5c0 .922.937 1.5 2.429 1.5h2.429l-2.818-7.75c-2.449-6.734-3.161-7.792-5.435-8.067-1.501-.182-2.822.244-3.1 1M238 255q0 2 2 2c1.778 0 2 .667 2 6s.222 6 2 6c1.773 0 2-.667 2-5.883 0-5.043.286-5.958 2-6.407 1.1-.287 2-1.24 2-2.116 0-1.281-1.177-1.594-6-1.594-5.333 0-6 .222-6 2m14 6c0 7.333.167 8 2 8s2-.667 2-8-.167-8-2-8-2 .667-2 8m9.336-5.427c-5.01 5.01-1.048 13.427 6.32 13.427 4.466 0 8.344-3.718 8.344-8 0-7.245-9.377-10.714-14.664-5.427M279 261c0 7.333.167 8 2 8 1.745 0 2-.667 2-5.237v-5.236l3.527 5.236c2.259 3.355 4.235 5.237 5.5 5.237 1.8 0 1.973-.703 1.973-8 0-7.333-.167-8-2-8-1.713 0-2 .667-2 4.644v4.644l-3.546-4.644c-2.085-2.731-4.35-4.644-5.5-4.644-1.776 0-1.954.729-1.954 8m19.802 0c-2.52 7.686-2.547 8-.681 8 1.068 0 2.201-.675 2.517-1.5.33-.86 1.823-1.5 3.5-1.5s3.17.64 3.5 1.5c.317.825 1.476 1.5 2.576 1.5 1.179 0 1.811-.513 1.539-1.25-.253-.687-1.463-4.288-2.688-8-2.021-6.122-2.48-6.75-4.934-6.75-2.498 0-2.909.617-5.329 8M314 261v8h5c4.333 0 5-.267 5-2 0-1.556-.667-2-3-2h-3v-6c0-5.333-.222-6-2-6-1.833 0-2 .667-2 8m-119-2.615c0 1.894.4 2.399 1.549 1.958 1.773-.681 1.569-3.471-.299-4.093-.782-.261-1.25.538-1.25 2.135m69.408.115c-1.517 2.316-1.517 2.684 0 5 1.944 2.967 3.681 3.164 5.937.671 2.151-2.377 2.095-4.462-.174-6.516-2.514-2.275-3.847-2.08-5.763.845m-34.769-.002c-1.059 2.76-.726 4.502.861 4.502 1.63 0 1.978-2.698.624-4.834-.675-1.064-.975-.997-1.485.332m73.471.817c-1.448 3.672-1.445 3.685.89 3.685 2.11 0 2.389-1.207 1.04-4.5-.762-1.858-.898-1.801-1.93.815m46.594.709c-.36 1.378-.015 1.98 1.14 1.99.911.007 2.781.266 4.156.574 2.451.549 2.461.528.5-1.087-3.966-3.267-5.243-3.592-5.796-1.477M52.75 268.469c-4.263 4.064-7.75 7.784-7.75 8.268s.569 1.658 1.264 2.609c1.193 1.631 1.795 1.61 10.75-.38 12.892-2.866 12.261-2.584 11.011-4.919-.887-1.658-1.492-1.82-3.682-.987-1.441.548-2.722.871-2.846.718s-.797-1.373-1.495-2.711c-1.119-2.147-1.01-2.642.923-4.207 1.802-1.46 1.997-2.137 1.098-3.817-.601-1.124-1.19-2.025-1.308-2.002-.118.022-3.702 3.365-7.965 7.428m280.715 4.001c-1.441 2.459-2.334 4.934-1.983 5.5 1.102 1.784 3.13 1.124 4.518-1.47.736-1.375 1.76-2.5 2.276-2.5s4.049 1.688 7.85 3.75c5.752 3.121 7.066 3.506 7.827 2.298.503-.799.714-1.778.467-2.177-.481-.778-16.86-9.871-17.782-9.871-.304 0-1.733 2.012-3.173 4.47m-281.541 2.154-2.424 2.624 2.25-.624c1.237-.343 3.127-.872 4.199-1.175 1.19-.337 1.732-1.115 1.393-2-.831-2.166-2.707-1.759-5.418 1.175M122 280.283c6.813 6.516 16.904 13.608 25.717 18.074 2.869 1.453 5.407 2.643 5.64 2.643s-2.115-2.635-5.217-5.856-8.099-9.296-11.105-13.5L131.57 274l-8.035.033-8.035.034zm14-5.454c0 3.443 14.922 20.741 23.019 26.685 5.058 3.713 14.475 6.646 25.481 7.938l6 .703-4.011-2.988c-7.076-5.272-14.646-16.588-19.009-28.417l-1.752-4.75h-14.864c-8.175 0-14.864.373-14.864.829m33 .569c0 3.011 9.257 19.671 13.635 24.541 4.484 4.987 7.435 7.058 12.115 8.502l2.25.694V274h-14c-11.325 0-14 .267-14 1.398m31 16.21v17.609l2.654-.666c4.341-1.09 10.898-6.173 14.774-11.453 3.105-4.23 11.572-20.689 11.572-22.495 0-.332-6.525-.603-14.5-.603H200zm30.814-14.501c-4.3 12.344-14.132 26.676-21.298 31.046-2.612 1.593-2.732 1.84-.897 1.843 5.505.01 20.428-3.319 25.159-5.612 6.393-3.099 18.349-14.576 24.098-23.134l4.199-6.25h-8.891c-4.89 0-11.658-.289-15.04-.643l-6.149-.642zm30.136 3.967c-2.269 3.341-7.065 9.191-10.659 13-3.593 3.809-6.13 6.926-5.638 6.926 3.513 0 27.327-16.159 33.784-22.923l2.937-3.077h-16.299zM82.367 306.862c-7.2 4.519-8.516 11.62-3.263 17.603 1.707 1.944 3.683 3.535 4.393 3.535 2.407 0 2.369-2.777-.069-5.068-3.183-2.99-3.172-7.279.027-10.477 3.446-3.447 7.694-3.255 10.843.488 2.142 2.546 2.715 2.768 4.242 1.652 1.64-1.2 1.523-1.555-1.638-5.005-4.3-4.692-9.771-5.719-14.535-2.728m220.467.888c-3.379 3.658-4.012 5.766-2.636 8.786 1.433 3.144 4.874 4.059 9.759 2.595 2.076-.622 4.285-1.131 4.909-1.131 2.262 0 1.062 3.993-1.845 6.143-2.289 1.692-2.724 2.51-1.878 3.53 1.76 2.12 3.435 1.572 6.753-2.208 3.581-4.078 3.954-7.615 1.104-10.465-2.292-2.292-4.945-2.511-9.678-.799-2.574.93-3.589.932-4.515.006-.925-.925-.616-1.814 1.375-3.95 2.559-2.746 2.76-5.257.422-5.257-.677 0-2.373 1.238-3.77 2.75m-206.82 16.974L88.92 333.5l4.79 4.229c5.167 4.563 6.747 5.128 7.664 2.74.366-.956-.628-2.625-2.643-4.44-3.071-2.764-3.145-2.996-1.496-4.668 1.655-1.678 1.875-1.656 4.771.486 1.67 1.234 3.477 1.972 4.015 1.64 1.737-1.074 1.045-3.272-1.647-5.233-2.284-1.664-2.474-2.199-1.456-4.101l1.171-2.187 3.51 2.677c3.117 2.378 3.677 2.51 5.007 1.18s1.016-1.887-2.804-4.981c-2.366-1.916-4.84-3.801-5.498-4.188-.753-.444-3.824 2.545-8.29 8.07m195.59-6.424c-1.655 1.211-1.51 1.641 2.114 6.25 5.716 7.271 5.707 7.293-1.544 3.776-7.493-3.636-8.885-3.861-11.521-1.863-1.742 1.32-1.491 1.874 4.403 9.718 8.262 10.995 7.701 10.491 9.577 8.614 1.492-1.492 1.252-2.096-3.065-7.707-2.577-3.348-4.422-6.088-4.101-6.088s3.71 1.575 7.533 3.5c7.745 3.9 9.201 4.167 10.988 2.014 1.022-1.231.081-3.034-5.478-10.5-3.691-4.958-6.805-9.014-6.919-9.014-.115 0-1.009.585-1.987 1.3m-179.779 17.917c-2.929 5.07-5.465 9.54-5.636 9.933s.621 1.213 1.76 1.823c1.818.972 2.326.675 4.16-2.433 3.534-5.989 6.671-3.95 4.731 3.076-.888 3.218-.778 3.956.757 5.078 2.446 1.789 3.348.565 4.069-5.521.489-4.132.982-5.173 2.45-5.173 2.63 0 5.247-4.416 4.465-7.533-.56-2.233-8.44-8.467-10.702-8.467-.401 0-3.125 4.148-6.054 9.217m6.302-.597c-.988 2.169-.974 2.861.072 3.524 3.167 2.009 7.024-.979 5.136-3.978-1.673-2.657-3.878-2.465-5.208.454m148.373-1.234c-4.204 1.833-5.89 5.463-5.235 11.27.433 3.84 1.24 5.419 4.122 8.06 2.308 2.115 4.604 3.284 6.45 3.284 4.099 0 9.423-3.925 10.522-7.755 1.31-4.57-1.578-11.798-5.724-14.326-3.645-2.223-5.978-2.345-10.135-.533m-133.874 3.147c-.771 2.009.017 3.467 1.874 3.467 2.667 0 2.473 1.885-1.033 10.077-2.736 6.393-3.246 8.447-2.252 9.077 2.554 1.621 3.591.749 5.832-4.904 4.337-10.942 4.642-11.349 7.536-10.03 2.069.942 2.735.889 3.473-.277.502-.794.92-1.701.929-2.016.012-.461-5.865-3.115-14.606-6.596-.616-.245-1.405.296-1.753 1.202m134.088 1.086c-1.472 1.472-.678 8.157 1.262 10.623 2.702 3.435 5.719 4.063 8.098 1.684 2.524-2.524 2.431-4.878-.356-9.028-2.217-3.302-7.175-5.107-9.004-3.279m-16.464 3.048c-1.806.722-1.64 1.583 2.41 12.5 3.289 8.866 3.871 9.801 5.75 9.225 1.149-.352 2.184-.716 2.299-.809.536-.431-7.544-21.018-8.322-21.204-.488-.117-1.449.013-2.137.288m-101.142 12.938c-1.777 5.833-3.091 10.727-2.92 10.876s1.212.544 2.312.877c1.792.544 2.333-.5 5.203-10.047 1.761-5.861 2.972-11.028 2.691-11.483s-1.309-.828-2.283-.828c-1.381 0-2.485 2.339-5.003 10.605m90.892-9.58c-1.375.477-4.412 1.359-6.75 1.96-3.225.829-4.25 1.576-4.25 3.099 0 1.731.456 1.921 3.323 1.383l3.324-.623 1.21 5.408c2.698 12.055 3.077 12.902 5.453 12.172 1.205-.37 2.263-.729 2.353-.798.089-.069-.899-4.096-2.196-8.947l-2.357-8.821 3.006-1.048c2.016-.703 2.822-1.53 2.445-2.511-.308-.804-.561-1.651-.561-1.881 0-.631-2.201-.364-5 .607m-79.957 12.49c-1.877 8.904-2.031 10.878-.903 11.593 2.646 1.676 3.641.841 4.309-3.619l.677-4.511 4.15.261c3.19.201 4.228-.121 4.491-1.392.256-1.234-.646-1.82-3.562-2.312-3.518-.595-3.856-.91-3.42-3.191.454-2.376.751-2.491 4.849-1.876 3.889.583 4.366.441 4.366-1.3 0-2.279-1.225-2.864-7.835-3.74l-4.859-.645zm57.246-7.715c-.666.423-1.902 5.029-2.746 10.235-2.057 12.683-2.036 12.965.957 12.965 2.091 0 2.5-.474 2.5-2.893 0-4.873 6.044-5.83 7.938-1.257.944 2.28 1.668 2.757 3.621 2.383 1.343-.256 2.441-.687 2.441-.957s-2.099-5.168-4.665-10.884c-3.77-8.397-5.065-10.389-6.75-10.377-1.147.009-2.63.362-3.296.785m-37.679 6.45c-.356 3.438-.916 8.613-1.244 11.5-.577 5.079-.516 5.25 1.878 5.25 2.391 0 2.512-.333 3.615-10.036 1.506-13.247 1.533-12.964-1.23-12.964-2.172 0-2.425.523-3.019 6.25m16.39-4.548c-7.01 3.601-8.796 12.936-3.625 18.948 1.841 2.14 3.39 2.749 7.956 3.128 5.478.454 5.669.387 5.669-1.981 0-2.154-.363-2.397-3.002-2.01-1.774.26-4.023-.229-5.5-1.196-2.026-1.328-2.498-2.453-2.498-5.959 0-5.288 2.218-7.632 7.222-7.632 2.383 0 3.773-.544 4.195-1.643.807-2.105.527-2.338-3.543-2.948-2.154-.322-4.64.146-6.874 1.293m23 6.798c0 4.54.451 5.135 2.773 3.662 1.017-.646.964-1.548-.264-4.485-.845-2.022-1.755-3.677-2.022-3.677-.268 0-.487 2.025-.487 4.5"/><path fill="#f7f6f6" fill-rule="evenodd" d="M181 17.103C126.38 23.244 77.675 52.58 47.521 97.5c-22.394 33.359-32.717 69.77-31.187 110 1.773 46.637 20.466 89.303 53.671 122.498 44.661 44.65 108.165 63.099 169.916 49.365 70.463-15.671 125.678-72.078 140.032-143.053 12.47-61.662-7.536-125.112-53.3-169.048C288.195 30.341 232.832 11.275 181 17.103m10.337 9.503c-3.994 1.969-5.742 6.11-5.075 12.023.7 6.216 3.449 8.871 9.182 8.871 4.953 0 5.87-.517 4.989-2.814-.438-1.142-1.405-1.442-3.376-1.047-2.187.437-3.209-.016-4.909-2.178q-4.27-5.429.402-10.102c1.892-1.892 3.183-2.392 5-1.936 1.96.492 2.45.233 2.45-1.297 0-3.303-3.724-3.957-8.663-1.52M210.5 27.75c-.905 2.219-6.5 18.519-6.5 18.938 0 .171.911.312 2.025.312 1.239 0 2.393-.969 2.975-2.5 1.451-3.817 5.853-3.486 6.65.5.45 2.25 1.154 3 2.815 3h2.214l-1.853-9.75c-1.02-5.362-2.059-10.312-2.309-11-.686-1.887-5.196-1.512-6.017.5m-34.114 6.5c1.068 11.51 1.767 14.75 3.183 14.75 2.357 0 2.563-1.853 1.334-11.998-1.08-8.91-1.43-10.002-3.201-10.002-1.864 0-1.947.455-1.316 7.25m50.193 2.5c-.932 4.813-1.907 9.484-2.166 10.382-.547 1.889.593 2.446 6.959 3.401 4.194.629 4.628.506 4.628-1.308 0-1.498-.884-2.168-3.507-2.66-2.957-.555-3.435-1.004-3.046-2.862 3.074-14.688 3.119-15.703.69-15.703-1.547 0-2.151 1.487-3.558 8.75m-61.567-7c.006.413.665 3.204 1.463 6.203s1.314 5.592 1.145 5.76c-.168.168-2.284-2.173-4.702-5.203-4.334-5.432-7.445-6.907-8.541-4.051-.645 1.682 3.45 20.549 4.455 20.526 2.659-.061 3.052-1.737 1.645-7.023-2.248-8.45-1.833-8.722 3.231-2.11 3.349 4.373 5.37 6.148 7 6.148 2.812 0 2.816-.284.176-11.75-1.756-7.624-2.46-9.25-4.007-9.25-1.032 0-1.872.337-1.865.75m47.849 1.75c-.344.55-.939 2.462-1.323 4.25-.546 2.547-.368 3.25.824 3.25.836 0 1.684-.337 1.886-.75.621-1.274-.722-7.812-1.387-6.75m-69.095 3.243c-1.593.365-1.613.687-.25 3.949 1.962 4.695 1.964 4.689-1.612 6.038-3.029 1.143-3.131 1.084-4.75-2.77-1.779-4.238-1.955-4.372-4.007-3.072-1.091.691-.633 2.797 2.358 10.863 3.148 8.485 3.999 9.93 5.603 9.51 2.259-.59 2.216-.09.44-5.126-1.353-3.835-1.324-4.185.434-5.125 2.569-1.375 4.99-1.27 5.52.24 2.373 6.758 2.442 6.85 4.386 5.81 1.833-.981 1.772-1.383-1.566-10.291-3.839-10.244-4.069-10.596-6.556-10.026m113.274 8.709c-1.983 2.39-.832 5.013 2.36 5.378 4.177.478 5.854-2.433 3.029-5.259-1.961-1.96-3.827-2.002-5.389-.119m-137.354 1.963c-1.433 1.328-2.891 3.554-3.241 4.947C114.98 56.201 121.099 65 126.626 65c3.217 0 8.374-2.685 8.374-4.359 0-2.316-1.132-2.546-4.54-.921-3.07 1.464-3.539 1.458-5.882-.077-4.65-3.047-4.841-10.282-.328-12.438 1.513-.723 2.75-1.965 2.75-2.76 0-2.293-4.426-1.706-7.314.97m162.434 8.324c-2.741 9.401-4.105 14.633-3.843 14.738.123.049 1.006.688 1.963 1.421 1.54 1.177 2.666.498 9.75-5.889 4.406-3.972 8.01-7.637 8.01-8.146s-.712-1.199-1.581-1.533c-1.063-.407-3.523 1.315-7.5 5.25-3.256 3.222-5.919 5.613-5.919 5.314s1.125-3.851 2.5-7.894 2.5-7.481 2.5-7.64-.879-.76-1.954-1.336c-1.784-.954-2.127-.455-3.926 5.715m-179.247 1.605-4.628 3.098 5.903 8.779c3.247 4.828 6.148 8.779 6.448 8.779.299 0 2.519-1.359 4.934-3.021 2.887-1.986 4.197-3.528 3.824-4.5-.731-1.905-1.834-1.866-4.949.175-2.352 1.541-2.64 1.54-4.202-.023-1.57-1.57-1.486-1.831 1.31-4.079 2.412-1.94 2.744-2.65 1.727-3.687-1.024-1.045-1.809-.96-4.2.452-2.833 1.674-2.979 1.666-3.994-.231-.891-1.665-.59-2.242 1.95-3.743 3.32-1.961 3.602-2.62 1.754-4.097-.884-.707-2.604-.093-5.877 2.098M176 60.538c-13.37 2.114-25.506 6.054-38.5 12.499C86.114 98.526 55.641 153.053 60.957 210c3.116 33.386 16.282 61.674 39.621 85.134 19.172 19.271 43.092 32.332 69.62 38.013 13.849 2.966 41.822 3.243 55.141.545 19.543-3.958 39.684-12.75 55.816-24.365 8.417-6.06 23.984-21.619 29.657-29.643l3.312-4.684h-16.833l-6.053 6.811c-32.627 36.711-87.531 50.409-134.472 33.548-35.826-12.869-64.612-42.143-76.138-77.428-10.527-32.226-8.683-64.518 5.349-93.665 5.954-12.367 11.241-20.397 19.744-29.984C125.226 92.29 152.33 77.775 182 73.431c52.469-7.681 106.376 21.851 129.572 70.983 2.359 4.997 4.594 10.324 4.967 11.836.662 2.687.844 2.75 7.989 2.75h7.311l-.983-3.56c-.541-1.958-2.529-7.17-4.417-11.584C307.341 99.237 266.945 67.584 220 60.455c-11.628-1.766-32.556-1.727-44 .083m120.505 7.139c-3.694 4.716-6.305 8.855-5.801 9.199s2.578 1.916 4.608 3.494c3.074 2.39 3.949 2.658 5.223 1.601 1.34-1.112 1.146-1.595-1.56-3.871-2.794-2.35-2.955-2.784-1.674-4.518 1.39-1.881 1.478-1.875 4.496.273 2.816 2.006 3.157 2.049 4.016.514.712-1.272.312-2.218-1.654-3.909-2.221-1.91-2.403-2.461-1.264-3.833 1.211-1.459 1.588-1.419 4.211.448 2.869 2.044 4.929 1.881 4.855-.384-.021-.655-1.997-2.63-4.389-4.389l-4.35-3.198zM88.472 66.109c-2.735 2.252-5.149 4.262-5.365 4.468-.215.206.187 1.072.894 1.924 1.157 1.395 1.472 1.381 3.149-.136 1.024-.927 1.991-1.501 2.149-1.276C91.533 74.288 100.433 84 101.13 84c2.785 0 1.61-3.519-3.029-9.071C95.295 71.572 93 68.437 93 67.962s.787-1.31 1.75-1.856c1.571-.891 1.593-1.152.222-2.542-1.377-1.395-2.019-1.144-6.5 2.545m221.54 12.378c-5.848 5.888-7.177 7.748-6.218 8.707.958.958 2.285.168 6.212-3.7C312.753 80.789 315 79.1 315 79.742s-1.064 4.098-2.364 7.68c-2.198 6.055-2.247 6.62-.701 8.02 1.512 1.367 2.374.791 9.422-6.298 7.007-7.048 7.597-7.937 6.095-9.184-1.467-1.218-2.184-.827-6.112 3.33-2.448 2.591-4.588 4.71-4.757 4.71s.815-3.146 2.185-6.991c2.03-5.694 2.26-7.271 1.239-8.5-.688-.83-1.546-1.509-1.904-1.509-.359 0-4 3.369-8.091 7.487m-132.919 8.597c-12.223 2.4-14.701 3.671-23.623 12.116-7.419 7.023-17.47 19.207-17.47 21.177 0 .343 6.764.623 15.031.623 13.43 0 15.093-.186 15.608-1.75.317-.963 2.635-5.993 5.151-11.178 3.36-6.922 6.223-11.108 10.774-15.75L188.763 86l-3.631.11c-1.998.06-5.615.498-8.039.974m34.407 1.718c2.2 1.668 5.686 5.254 7.747 7.97 3.575 4.711 11.753 20.803 11.753 23.125 0 .757 4.881 1.103 15.537 1.103h15.538l-3.97-5.845c-5.339-7.863-13.154-16.286-19.281-20.784-5.595-4.107-14.625-7.015-24.777-7.978l-6.547-.622zm-21.127.112c-5.562 3.392-11.285 10.306-15.762 19.044-2.408 4.698-4.686 9.555-5.062 10.792l-.684 2.25H197l.009-11.75c.004-6.463.292-14.112.639-17 .606-5.045.537-5.25-1.759-5.246-1.314.002-3.796.861-5.516 1.91M200 104v17h28.971l-2.047-5.25C220.918 100.343 209.088 87 201.435 87c-1.19 0-1.435 2.898-1.435 17m125.322-10.503c-3.948 3.003-7.464 5.923-7.813 6.489-.937 1.516 3.183 6.803 6.732 8.639 2.525 1.306 3.765 1.39 6.848.467 4.783-1.434 8.911-6.235 8.911-10.365 0-3.27-4.455-10.741-6.386-10.708-.613.01-4.344 2.475-8.292 5.478M71.04 91.452c-.663.799-1.051 2.261-.862 3.25.467 2.45 4.863 2.962 6.477.755 2.694-3.684-2.693-7.526-5.615-4.005m256.311 5.812c-5.392 4.294-5.871 6.316-1.741 7.353 5.96 1.496 11.593-3.308 9.806-8.363-.504-1.425-1.366-2.703-1.916-2.84-.55-.138-3.317 1.595-6.149 3.85m-183.749 2.209c-8.865 5.052-15.791 10.1-23.102 16.839l-5 4.609 8.5.008 8.5.008 4.293-6.371c2.361-3.504 7.014-9.34 10.339-12.968S152.789 95 152.314 95s-4.395 2.013-8.712 4.473m107.021 2.779c3.782 3.988 8.546 9.774 10.587 12.858 3.366 5.088 4.116 5.663 8.103 6.209 2.417.332 6.062.332 8.101.001l3.706-.601-3.31-3.44c-6.787-7.054-29.369-22.204-33.187-22.265-.483-.008 2.217 3.249 6 7.238m86.877 8.59c-4.384 2.68-5.9 4.922-5.9 8.724 0 9.594 12.543 11.424 19.312 2.819 6.592-8.38-3.865-17.38-13.412-11.543m-288.502 3.16c-1.542 1.651-3.246 4.271-3.787 5.823-.969 2.778-.848 2.896 7.921 7.748 4.898 2.71 9.215 4.864 9.593 4.788 1.502-.305 4.275-7.034 4.275-10.373 0-4.414-1.931-7.253-6.367-9.358-5.171-2.453-8.419-2.071-11.635 1.372m290.777.557c-3.697 2.006-5.15 4.871-3.775 7.441 1.416 2.646 4.908 2.537 9.095-.285 7.518-5.066 2.72-11.519-5.32-7.156M50.58 118.19c-1.485 2.119-1.343 2.297 4.444 5.558 3.288 1.853 6.427 3.091 6.977 2.751.549-.339.999-1.908.999-3.485 0-5.872-9.187-9.44-12.42-4.824m59.106 10.06c-4.972 6.128-10.534 15.139-13.827 22.4-1.572 3.468-2.859 6.541-2.859 6.828s5.513.52 12.25.517l12.25-.005 2.397-8.001c1.319-4.4 4.131-11.914 6.25-16.696s3.853-8.83 3.853-8.994c0-.165-3.795-.299-8.433-.299h-8.433zm19.846 3.813c-2.081 4.434-5.041 11.972-6.578 16.75l-2.795 8.687 18.064.273c9.935.15 18.246.091 18.469-.132s1.49-5.748 2.814-12.277c1.325-6.53 3.103-13.839 3.952-16.244s1.542-4.54 1.542-4.746-7.129-.374-15.842-.374h-15.843zm37.368-5.313c-1.428 3.74-5.634 21.648-6.458 27.5l-.669 4.75h18.506c15.954 0 18.591-.218 19.114-1.582.8-2.086.778-19.49-.035-27.271l-.643-6.147H167.95zm33.1 14.724V159h37.962l-.633-4.75c-.349-2.613-2.027-10.375-3.731-17.25l-3.098-12.5-15.25-.276-15.25-.276zm33.418-15.224c2.201 7.611 4.943 19.225 5.96 25.25l1.182 7 18.22.273c16.264.243 18.22.098 18.22-1.353 0-2.899-5.842-19.157-9.481-26.381L263.975 124h-31.208zm37.101 5c1.867 3.988 4.876 11.859 6.688 17.492l3.293 10.242 12.225.008 12.225.008-1.042-2.75c-2.193-5.786-10.199-20.024-14.623-26.006L284.667 124h-17.542zm78.481-.601c-9.779 4.081-10.287 4.44-9.436 6.657.569 1.482.968 1.499 4.155.167 4.599-1.922 5.281-1.861 5.281.47 0 1.099-1.304 2.714-3 3.716-3.096 1.829-3.555 2.918-2.157 5.121.625.985 1.483.764 3.734-.964 1.608-1.234 3.275-2.809 3.705-3.499.496-.795 1.878-1.035 3.777-.655 3.638.727 6.941-1.818 6.941-5.349 0-2.872-2.58-9.333-3.699-9.263-.441.028-4.626 1.647-9.301 3.599M39 133.5c-1.1 2.566-2 4.966-1.999 5.333.001 1.226 19.091 8.478 19.904 7.561.437-.492 1.562-2.877 2.499-5.301 1.379-3.564 1.456-4.566.401-5.235-2.131-1.351-2.593-1.03-3.805 2.642-1.272 3.855-1.782 4.111-4.383 2.209-1.532-1.12-1.597-1.658-.498-4.071 1.057-2.321 1.028-2.932-.176-3.691-1.566-.987-3.943 1.312-3.943 3.814 0 .857-.85 1.257-2.25 1.058-1.613-.229-2.161-.886-1.935-2.319.728-4.621.619-5.82-.565-6.232-.736-.256-2.072 1.483-3.25 4.232m315.25-.428c-2.427.931-2.696 1.676-1.365 3.776 1.177 1.857 4.514 1.036 4.947-1.216.495-2.566-.923-3.58-3.582-2.56M34.477 146.25c-.848 2.306-3.455 11.243-3.466 11.883-.006.349.889.869 1.989 1.157 1.145.299 2.007.028 2.015-.634.048-3.571 1.589-3.859 8.941-1.669 7.418 2.209 10.044 2.127 10.044-.313 0-.896-2.957-2.184-8.313-3.624-8.211-2.206-8.308-2.27-7.887-5.142.324-2.205.029-2.908-1.218-2.908-.905 0-1.852.563-2.105 1.25m317.537 3c.031 2.91 1.317 5.75 2.603 5.75 1.498 0 1.694-1.238.753-4.75-.631-2.352-3.38-3.171-3.356-1m12.486 8.249c-.55.187-4.44 1.072-8.645 1.966-6.503 1.382-7.573 1.896-7.169 3.441.445 1.702.889 1.729 7.045.439 3.613-.758 6.726-1.222 6.916-1.032s-2.353 2.301-5.651 4.69c-4.365 3.162-5.996 4.976-5.996 6.67 0 2.752-.145 2.739 9.185.83 11.943-2.444 11.815-2.394 11.815-4.589 0-1.487-.48-1.903-1.75-1.519-2.471.749-10.58 2.551-11.61 2.581-.473.013 1.889-2 5.25-4.474 4.654-3.426 6.11-5.094 6.11-7 0-1.951-.495-2.485-2.25-2.423-1.238.043-2.7.232-3.25.42M91.155 162.75c-1.664 3.181-4.276 16.584-4.869 24.984L85.703 196h26.991l.671-10.75c.369-5.912 1.267-13.787 1.996-17.5l1.326-6.75h-12.309c-10.706 0-12.427.228-13.223 1.75m26.97 4.5c-.594 3.438-1.334 9.625-1.643 13.75-.31 4.125-.775 9.188-1.034 11.25l-.472 3.75H134v-35h-14.795zM139 204v41h50v-18h-28v-14h27v-17h-27v-13h28v-20h-50zm56-31v10h15v62h22v-62h24.793l3.604-9.3c1.982-5.114 3.603-9.614 3.603-10s-15.525-.7-34.5-.7H195zm74.896-7.279C263.451 182.355 242 243.04 242 244.639c0 .199 4.885.361 10.856.361h10.857l1.929-6.75 1.929-6.75 16.085-.274 16.086-.274 1.822 7.024 1.822 7.024h10.807c5.944 0 10.807-.371 10.807-.824s-6.232-18.791-13.85-40.75L297.301 163.5l-13.164-.279-13.164-.279zM312 164.097c-5.595 2.22-7.865 10.127-4.418 15.388 1.882 2.872 7.224 4.853 10.722 3.975 7.011-1.76 9.827-11.86 4.696-16.841-2.95-2.864-7.507-3.909-11-2.522m-282.333.57c-2.014 2.014.023 3.219 8.083 4.781 12.256 2.377 12.75 2.381 12.75.124 0-1.63-1.389-2.199-9-3.689-10.476-2.051-10.95-2.099-11.833-1.216m280.689 2.703c-7.262 6.246.53 17.957 8.96 13.467 3.205-1.708 4.62-3.955 4.62-7.337s-1.415-5.629-4.62-7.337c-3.308-1.762-5.917-1.41-8.96 1.207m.644 6.13c0 4.833.242 5.5 2 5.5 1.387 0 2.021-.689 2.068-2.25l.067-2.25 1.085 2.25c.597 1.238 1.907 2.25 2.911 2.25 1.579 0 1.674-.334.701-2.47-.861-1.889-.827-2.831.143-4 1.969-2.372-.459-4.53-5.097-4.53H311zm4-1.917c0 .871.534 1.406 1.188 1.188 1.854-.618 2.161-2.771.395-2.771-.871 0-1.583.713-1.583 1.583m-282.671 3.863c-3.76 1.649-4.845 3.479-5.745 9.685-.789 5.446-1.037 5.319 12.518 6.397l8.602.684.579-3.566c.853-5.259-.889-10.394-4.08-12.024-4.429-2.263-8.482-2.664-11.874-1.176m-.39 5.615c-3.651 3.651-2.203 5.369 5.071 6.016 7.293.649 8.507.12 7.641-3.332-1.153-4.595-9.12-6.276-12.712-2.684M366 179.643c-14.701 1.496-14 1.281-14 4.304 0 5.768 1.166 9.053 3.213 9.053 1.725 0 1.884-.469 1.309-3.871-.604-3.576-.46-3.908 1.893-4.358 2.238-.427 2.624-.078 3.178 2.871.465 2.481 1.152 3.358 2.63 3.358 1.744 0 1.916-.448 1.343-3.5-.611-3.255-.479-3.5 1.889-3.5 2.242 0 2.545.417 2.545 3.5 0 2.862.374 3.5 2.05 3.5 1.864 0 2.023-.522 1.75-5.75-.328-6.294-.419-6.359-7.8-5.607m-84.36 5.05c-.293.994-2.393 8.033-4.668 15.642s-3.933 14.037-3.686 14.285c.248.248 5.155.322 10.904.165l10.453-.285-4.702-15.5c-3.176-10.468-5.2-15.6-6.236-15.807-.844-.169-1.773.506-2.065 1.5M44 200c0 3.6-.25 4-2.5 4-2.19 0-2.5-.433-2.5-3.5 0-2.833-.381-3.5-2-3.5s-2 .667-2 3.5c0 3.067-.31 3.5-2.5 3.5s-2.5-.433-2.5-3.5c0-2.833-.381-3.5-2-3.5-1.755 0-2 .667-2 5.441 0 2.993.414 5.697.921 6.01s5.457.272 11-.091L48 207.699v-5.849c0-5.183-.228-5.85-2-5.85-1.667 0-2 .667-2 4m312.235-1.983c-2.745 1.126-4.464 5.222-3.614 8.61.974 3.881 4.518 5.503 13.344 6.108 7.637.524 8.035.448 8.035-1.52 0-2.109-1.054-2.382-13.399-3.461-1.595-.14-3.395-1.068-4-2.063-1.977-3.247 1.752-4.862 10.399-4.503 6.937.289 7.5.162 7.5-1.688 0-1.816-.735-2.019-8-2.206-4.4-.113-9.019.212-10.265.723m-269.863 9.661c.662 8.615 2.523 18.294 4.532 23.572L91.95 234h24.322l-.63-4.25a3890 3890 0 0 0-1.615-10.75c-.543-3.575-.996-9.537-1.007-13.25L113 199H85.705zm29.189-4.928c.203 2.063.576 6.9.828 10.75.253 3.85.989 10.037 1.638 13.75l1.178 6.75H134v-35h-18.81zm-73.365 11.247c-3.531 1.603-4.655 1.734-6.262.73-1.582-.988-2.485-.929-4.696.307-2.307 1.29-2.787 2.295-3.048 6.388-.171 2.671.131 5.299.672 5.84.643.643 4.461.556 11.06-.252C48.697 225.935 50 225.531 50 223.888c0-1.571-.756-1.888-4.5-1.888-5.74 0-6.131-2.426-.75-4.656 4.62-1.915 4.427-1.72 3.667-3.701-.785-2.045-.956-2.035-6.221.354m-10.185 5.49c-1.621 1.952-.486 4.909 1.579 4.117.866-.332 2.198-.604 2.96-.604 2.34 0-.307-4.927-2.678-4.985-.345-.008-1.183.654-1.861 1.472m336.989.94c0 1.415-.337 2.564-.75 2.553s-4.462-.624-9-1.361c-8.24-1.34-8.25-1.339-8.25.859 0 1.995.792 2.318 8.521 3.468 8.309 1.236 8.514 1.332 8.25 3.875-.187 1.801.26 2.717 1.443 2.96 2.001.411 2.857-2.164 3.114-9.373.138-3.889-.171-4.908-1.578-5.196-1.306-.268-1.75.294-1.75 2.215m-321.097 10.25c-.053.453-.022 2.463.069 4.468.197 4.341-2.604 6.855-7.638 6.855-3.418 0-6.334-2.864-6.334-6.223 0-1.147-.756-1.777-2.131-1.777-1.893 0-2.065.407-1.539 3.643 1.261 7.771 8.094 11.032 15.891 7.584 5.334-2.36 7.366-6.181 6.03-11.338-.774-2.988-4.086-5.435-4.348-3.212m300.704 3.905c-.334.87-.607 1.699-.607 1.841 0 .143 1.829.808 4.064 1.478 5.297 1.587 4.58 3.515-1.454 3.906-4.227.275-4.701.543-4.422 2.5.276 1.937.895 2.183 5.312 2.105 3.78-.066 5.319.361 6.307 1.75 1.66 2.335 6.398 2.384 8.439.088 1.816-2.044 3.909-9.036 2.892-9.665-.709-.438-18.658-5.585-19.477-5.585-.246 0-.72.712-1.054 1.582M93 237.667c0 2.329 10.028 20.826 14.683 27.083l4.65 6.25h8.917c4.904 0 8.753-.337 8.553-.75-4.074-8.409-6.578-14.543-9.285-22.75-2.513-7.618-3.742-10.049-5.158-10.205-1.023-.112-6.472-.353-12.11-.535-7.656-.247-10.25-.018-10.25.907m27.625 2.083c2.159 8.944 11.359 31.25 12.889 31.25.267 0 .486-7.65.486-17v-17h-14.038zm238.559 3c.251 2.182.832 2.75 2.816 2.75 3.45 0 4.107-3.971.802-4.856-3.654-.979-3.953-.805-3.618 2.106m-306.833 3.878c-.825.338-.72 1.33.372 3.52 1.405 2.814 1.373 3.247-.419 5.646-3.935 5.271-11.436 4.511-12.897-1.307-.671-2.674-1.17-2.924-3.231-1.617-1.091.692-1.066 1.459.144 4.354 2.721 6.513 8.41 8.421 15.323 5.141 5.827-2.765 7.999-10.477 4.229-15.02-1.166-1.404-1.618-1.496-3.521-.717m291.207 4.081c-.431 1.123.096 2.276 1.536 3.362 1.72 1.297 2.043 2.246 1.501 4.407-.607 2.417-1.049 2.681-3.623 2.166-2.299-.459-3.171-.141-4.033 1.471-.606 1.131-.952 2.178-.77 2.326.583.476 21.938 2.785 22.31 2.413.197-.197.611-1.482.921-2.856.495-2.201-.431-3.241-7.792-8.748-4.595-3.437-8.588-6.25-8.874-6.25s-.815.769-1.176 1.709M139 261c0 7.333.167 8 2 8s2-.667 2-8-.167-8-2-8-2 .667-2 8m8 0c0 7.258.18 8 1.945 8 1.611 0 1.998-.816 2.25-4.75l.305-4.75 3.42 4.75c1.937 2.691 4.212 4.75 5.25 4.75 1.621 0 1.83-.914 1.83-8 0-7.333-.167-8-2-8-1.713 0-2 .667-2 4.644v4.644l-3.546-4.644c-2.085-2.731-4.35-4.644-5.5-4.644-1.776 0-1.954.729-1.954 8m18-6c0 1.111.667 2 1.5 2 1.167 0 1.5 1.333 1.5 6 0 5.733.111 6 2.5 6s2.5-.267 2.5-6c0-4.667.333-6 1.5-6 .833 0 1.5-.889 1.5-2 0-1.758-.667-2-5.5-2s-5.5.242-5.5 2m13 6v8h5c4.333 0 5-.267 5-2 0-1.556-.667-2-3-2-3.756 0-3.964-1.756-.259-2.184 1.654-.19 2.874-1.011 3.074-2.066.259-1.367-.359-1.75-2.825-1.75-3.885 0-3.604-2.35.337-2.816 1.507-.179 2.673-.942 2.673-1.75 0-1.054-1.325-1.434-5-1.434h-5zm13 0c0 7.242.183 8 1.934 8 1.355 0 2.041-.822 2.293-2.75l.361-2.75 1.366 2.75c.908 1.827 2.152 2.75 3.707 2.75 2.765 0 2.835-.314.77-3.465-1.433-2.187-1.423-2.617.115-4.965 1.563-2.386 1.567-2.749.046-5.07-1.344-2.05-2.443-2.5-6.115-2.5H191zm14 0c0 7.258.18 8 1.945 8 1.611 0 1.998-.816 2.25-4.75l.305-4.75 3.5 4.711c2.325 3.13 4.255 4.724 5.75 4.75 2.149.037 2.25-.32 2.25-7.961 0-7.258-.18-8-1.945-8-1.611 0-1.998.816-2.25 4.75l-.305 4.75-3.5-4.711c-2.325-3.13-4.255-4.724-5.75-4.75-2.149-.037-2.25.32-2.25 7.961m22.505-6.817c-1.853 5.047-4.505 13.274-4.505 13.974 0 .463.9.843 2 .843 1.111 0 2-.667 2-1.5 0-1.048 1.056-1.5 3.5-1.5s3.5.452 3.5 1.5c0 .922.937 1.5 2.429 1.5h2.429l-2.818-7.75c-2.449-6.734-3.161-7.792-5.435-8.067-1.501-.182-2.822.244-3.1 1M238 255q0 2 2 2c1.778 0 2 .667 2 6s.222 6 2 6c1.773 0 2-.667 2-5.883 0-5.043.286-5.958 2-6.407 1.1-.287 2-1.24 2-2.116 0-1.281-1.177-1.594-6-1.594-5.333 0-6 .222-6 2m14 6c0 7.333.167 8 2 8s2-.667 2-8-.167-8-2-8-2 .667-2 8m9.336-5.427c-5.01 5.01-1.048 13.427 6.32 13.427 4.466 0 8.344-3.718 8.344-8 0-7.245-9.377-10.714-14.664-5.427M279 261c0 7.333.167 8 2 8 1.745 0 2-.667 2-5.237v-5.236l3.527 5.236c2.259 3.355 4.235 5.237 5.5 5.237 1.8 0 1.973-.703 1.973-8 0-7.333-.167-8-2-8-1.713 0-2 .667-2 4.644v4.644l-3.546-4.644c-2.085-2.731-4.35-4.644-5.5-4.644-1.776 0-1.954.729-1.954 8m19.802 0c-2.52 7.686-2.547 8-.681 8 1.068 0 2.201-.675 2.517-1.5.33-.86 1.823-1.5 3.5-1.5s3.17.64 3.5 1.5c.317.825 1.476 1.5 2.576 1.5 1.179 0 1.811-.513 1.539-1.25-.253-.687-1.463-4.288-2.688-8-2.021-6.122-2.48-6.75-4.934-6.75-2.498 0-2.909.617-5.329 8M314 261v8h5c4.333 0 5-.267 5-2 0-1.556-.667-2-3-2h-3v-6c0-5.333-.222-6-2-6-1.833 0-2 .667-2 8m-119-2.615c0 1.894.4 2.399 1.549 1.958 1.773-.681 1.569-3.471-.299-4.093-.782-.261-1.25.538-1.25 2.135m69.408.115c-1.517 2.316-1.517 2.684 0 5 1.944 2.967 3.681 3.164 5.937.671 2.151-2.377 2.095-4.462-.174-6.516-2.514-2.275-3.847-2.08-5.763.845m-34.769-.002c-1.059 2.76-.726 4.502.861 4.502 1.63 0 1.978-2.698.624-4.834-.675-1.064-.975-.997-1.485.332m73.471.817c-1.448 3.672-1.445 3.685.89 3.685 2.11 0 2.389-1.207 1.04-4.5-.762-1.858-.898-1.801-1.93.815m46.594.709c-.36 1.378-.015 1.98 1.14 1.99.911.007 2.781.266 4.156.574 2.451.549 2.461.528.5-1.087-3.966-3.267-5.243-3.592-5.796-1.477M52.75 268.469c-4.263 4.064-7.75 7.784-7.75 8.268s.569 1.658 1.264 2.609c1.193 1.631 1.795 1.61 10.75-.38 12.892-2.866 12.261-2.584 11.011-4.919-.887-1.658-1.492-1.82-3.682-.987-1.441.548-2.722.871-2.846.718s-.797-1.373-1.495-2.711c-1.119-2.147-1.01-2.642.923-4.207 1.802-1.46 1.997-2.137 1.098-3.817-.601-1.124-1.19-2.025-1.308-2.002-.118.022-3.702 3.365-7.965 7.428m280.715 4.001c-1.441 2.459-2.334 4.934-1.983 5.5 1.102 1.784 3.13 1.124 4.518-1.47.736-1.375 1.76-2.5 2.276-2.5s4.049 1.688 7.85 3.75c5.752 3.121 7.066 3.506 7.827 2.298.503-.799.714-1.778.467-2.177-.481-.778-16.86-9.871-17.782-9.871-.304 0-1.733 2.012-3.173 4.47m-281.541 2.154-2.424 2.624 2.25-.624c1.237-.343 3.127-.872 4.199-1.175 1.19-.337 1.732-1.115 1.393-2-.831-2.166-2.707-1.759-5.418 1.175M122 280.283c6.813 6.516 16.904 13.608 25.717 18.074 2.869 1.453 5.407 2.643 5.64 2.643s-2.115-2.635-5.217-5.856-8.099-9.296-11.105-13.5L131.57 274l-8.035.033-8.035.034zm14-5.454c0 3.443 14.922 20.741 23.019 26.685 5.058 3.713 14.475 6.646 25.481 7.938l6 .703-4.011-2.988c-7.076-5.272-14.646-16.588-19.009-28.417l-1.752-4.75h-14.864c-8.175 0-14.864.373-14.864.829m33 .569c0 3.011 9.257 19.671 13.635 24.541 4.484 4.987 7.435 7.058 12.115 8.502l2.25.694V274h-14c-11.325 0-14 .267-14 1.398m31 16.21v17.609l2.654-.666c4.341-1.09 10.898-6.173 14.774-11.453 3.105-4.23 11.572-20.689 11.572-22.495 0-.332-6.525-.603-14.5-.603H200zm30.814-14.501c-4.3 12.344-14.132 26.676-21.298 31.046-2.612 1.593-2.732 1.84-.897 1.843 5.505.01 20.428-3.319 25.159-5.612 6.393-3.099 18.349-14.576 24.098-23.134l4.199-6.25h-8.891c-4.89 0-11.658-.289-15.04-.643l-6.149-.642zm30.136 3.967c-2.269 3.341-7.065 9.191-10.659 13-3.593 3.809-6.13 6.926-5.638 6.926 3.513 0 27.327-16.159 33.784-22.923l2.937-3.077h-16.299zM82.367 306.862c-7.2 4.519-8.516 11.62-3.263 17.603 1.707 1.944 3.683 3.535 4.393 3.535 2.407 0 2.369-2.777-.069-5.068-3.183-2.99-3.172-7.279.027-10.477 3.446-3.447 7.694-3.255 10.843.488 2.142 2.546 2.715 2.768 4.242 1.652 1.64-1.2 1.523-1.555-1.638-5.005-4.3-4.692-9.771-5.719-14.535-2.728m220.467.888c-3.379 3.658-4.012 5.766-2.636 8.786 1.433 3.144 4.874 4.059 9.759 2.595 2.076-.622 4.285-1.131 4.909-1.131 2.262 0 1.062 3.993-1.845 6.143-2.289 1.692-2.724 2.51-1.878 3.53 1.76 2.12 3.435 1.572 6.753-2.208 3.581-4.078 3.954-7.615 1.104-10.465-2.292-2.292-4.945-2.511-9.678-.799-2.574.93-3.589.932-4.515.006-.925-.925-.616-1.814 1.375-3.95 2.559-2.746 2.76-5.257.422-5.257-.677 0-2.373 1.238-3.77 2.75m-206.82 16.974L88.92 333.5l4.79 4.229c5.167 4.563 6.747 5.128 7.664 2.74.366-.956-.628-2.625-2.643-4.44-3.071-2.764-3.145-2.996-1.496-4.668 1.655-1.678 1.875-1.656 4.771.486 1.67 1.234 3.477 1.972 4.015 1.64 1.737-1.074 1.045-3.272-1.647-5.233-2.284-1.664-2.474-2.199-1.456-4.101l1.171-2.187 3.51 2.677c3.117 2.378 3.677 2.51 5.007 1.18s1.016-1.887-2.804-4.981c-2.366-1.916-4.84-3.801-5.498-4.188-.753-.444-3.824 2.545-8.29 8.07m195.59-6.424c-1.655 1.211-1.51 1.641 2.114 6.25 5.716 7.271 5.707 7.293-1.544 3.776-7.493-3.636-8.885-3.861-11.521-1.863-1.742 1.32-1.491 1.874 4.403 9.718 8.262 10.995 7.701 10.491 9.577 8.614 1.492-1.492 1.252-2.096-3.065-7.707-2.577-3.348-4.422-6.088-4.101-6.088s3.71 1.575 7.533 3.5c7.745 3.9 9.201 4.167 10.988 2.014 1.022-1.231.081-3.034-5.478-10.5-3.691-4.958-6.805-9.014-6.919-9.014-.115 0-1.009.585-1.987 1.3m-179.779 17.917c-2.929 5.07-5.465 9.54-5.636 9.933s.621 1.213 1.76 1.823c1.818.972 2.326.675 4.16-2.433 3.534-5.989 6.671-3.95 4.731 3.076-.888 3.218-.778 3.956.757 5.078 2.446 1.789 3.348.565 4.069-5.521.489-4.132.982-5.173 2.45-5.173 2.63 0 5.247-4.416 4.465-7.533-.56-2.233-8.44-8.467-10.702-8.467-.401 0-3.125 4.148-6.054 9.217m6.302-.597c-.988 2.169-.974 2.861.072 3.524 3.167 2.009 7.024-.979 5.136-3.978-1.673-2.657-3.878-2.465-5.208.454m148.373-1.234c-4.204 1.833-5.89 5.463-5.235 11.27.433 3.84 1.24 5.419 4.122 8.06 2.308 2.115 4.604 3.284 6.45 3.284 4.099 0 9.423-3.925 10.522-7.755 1.31-4.57-1.578-11.798-5.724-14.326-3.645-2.223-5.978-2.345-10.135-.533m-133.874 3.147c-.771 2.009.017 3.467 1.874 3.467 2.667 0 2.473 1.885-1.033 10.077-2.736 6.393-3.246 8.447-2.252 9.077 2.554 1.621 3.591.749 5.832-4.904 4.337-10.942 4.642-11.349 7.536-10.03 2.069.942 2.735.889 3.473-.277.502-.794.92-1.701.929-2.016.012-.461-5.865-3.115-14.606-6.596-.616-.245-1.405.296-1.753 1.202m134.088 1.086c-1.472 1.472-.678 8.157 1.262 10.623 2.702 3.435 5.719 4.063 8.098 1.684 2.524-2.524 2.431-4.878-.356-9.028-2.217-3.302-7.175-5.107-9.004-3.279m-16.464 3.048c-1.806.722-1.64 1.583 2.41 12.5 3.289 8.866 3.871 9.801 5.75 9.225 1.149-.352 2.184-.716 2.299-.809.536-.431-7.544-21.018-8.322-21.204-.488-.117-1.449.013-2.137.288m-101.142 12.938c-1.777 5.833-3.091 10.727-2.92 10.876s1.212.544 2.312.877c1.792.544 2.333-.5 5.203-10.047 1.761-5.861 2.972-11.028 2.691-11.483s-1.309-.828-2.283-.828c-1.381 0-2.485 2.339-5.003 10.605m90.892-9.58c-1.375.477-4.412 1.359-6.75 1.96-3.225.829-4.25 1.576-4.25 3.099 0 1.731.456 1.921 3.323 1.383l3.324-.623 1.21 5.408c2.698 12.055 3.077 12.902 5.453 12.172 1.205-.37 2.263-.729 2.353-.798.089-.069-.899-4.096-2.196-8.947l-2.357-8.821 3.006-1.048c2.016-.703 2.822-1.53 2.445-2.511-.308-.804-.561-1.651-.561-1.881 0-.631-2.201-.364-5 .607m-79.957 12.49c-1.877 8.904-2.031 10.878-.903 11.593 2.646 1.676 3.641.841 4.309-3.619l.677-4.511 4.15.261c3.19.201 4.228-.121 4.491-1.392.256-1.234-.646-1.82-3.562-2.312-3.518-.595-3.856-.91-3.42-3.191.454-2.376.751-2.491 4.849-1.876 3.889.583 4.366.441 4.366-1.3 0-2.279-1.225-2.864-7.835-3.74l-4.859-.645zm57.246-7.715c-.666.423-1.902 5.029-2.746 10.235-2.057 12.683-2.036 12.965.957 12.965 2.091 0 2.5-.474 2.5-2.893 0-4.873 6.044-5.83 7.938-1.257.944 2.28 1.668 2.757 3.621 2.383 1.343-.256 2.441-.687 2.441-.957s-2.099-5.168-4.665-10.884c-3.77-8.397-5.065-10.389-6.75-10.377-1.147.009-2.63.362-3.296.785m-37.679 6.45c-.356 3.438-.916 8.613-1.244 11.5-.577 5.079-.516 5.25 1.878 5.25 2.391 0 2.512-.333 3.615-10.036 1.506-13.247 1.533-12.964-1.23-12.964-2.172 0-2.425.523-3.019 6.25m16.39-4.548c-7.01 3.601-8.796 12.936-3.625 18.948 1.841 2.14 3.39 2.749 7.956 3.128 5.478.454 5.669.387 5.669-1.981 0-2.154-.363-2.397-3.002-2.01-1.774.26-4.023-.229-5.5-1.196-2.026-1.328-2.498-2.453-2.498-5.959 0-5.288 2.218-7.632 7.222-7.632 2.383 0 3.773-.544 4.195-1.643.807-2.105.527-2.338-3.543-2.948-2.154-.322-4.64.146-6.874 1.293m23 6.798c0 4.54.451 5.135 2.773 3.662 1.017-.646.964-1.548-.264-4.485-.845-2.022-1.755-3.677-2.022-3.677-.268 0-.487 2.025-.487 4.5"/></svg>