<?xml version="1.0" encoding="utf-8"?>
<!-- Generator: Adobe Illustrator 26.1.0, SVG Export Plug-In . SVG Version: 6.00 Build 0)  -->
<svg version="1.1" id="Calque_1" xmlns="http://www.w3.org/2000/svg" xmlns:xlink="http://www.w3.org/1999/xlink" x="0px" y="0px"
	 viewBox="0 0 595.28 276.2" style="enable-background:new 0 0 595.28 276.2;" xml:space="preserve">
<style type="text/css">
	.st0{fill:#FFFFFF;}
</style>
<g>
	<polygon points="0,184.61 66.69,100.12 28.95,0 595.28,84.89 538.24,171.63 580.92,276.2 	"/>
	<polygon class="st0" points="10.34,180.56 73.05,101.11 37.57,6.97 585.77,89.13 531.93,171.02 571.97,269.11 	"/>
	<polygon points="59.13,24.38 88.98,103.58 36.21,170.43 549.58,251.38 516.15,169.48 561.99,99.76 	"/>
	<polygon class="st0" points="296.51,190.09 273.59,186.84 271.7,143.5 232.5,136.42 234.71,180.39 211.79,177.13 207.06,68.83 
		229.29,72.45 231.34,113.27 270.67,120.11 268.85,78.54 291.09,82.16 	"/>
	<polygon class="st0" points="96.06,52.72 97.17,75 128.85,79.3 132.51,164.78 154.96,168.13 151.46,82.8 180.27,87.1 178.84,64.34 
			"/>
	<path class="st0" d="M472.57,158.76c3.74-5.18,5.75-11.38,5.75-17.9c0-18.68-13.97-34.63-32.48-37.1l-49.01-6.53l5.05,109.85
		l46.31,7.19c28.67,5.34,35.78-10.3,36.62-24.14l0,0C486.16,181.09,479.85,163.63,472.57,158.76L472.57,158.76z"/>
	<path d="M421.47,124.11l0.96,20.77l24.27,3.21c4.37,0.58,8.25-2.82,8.25-7.23v0c0-7.04-5.21-12.99-12.19-13.92L421.47,124.11z"/>
	<path d="M423.38,165.9l28.07,4.11c6.75,0.99,10.65,6.83,10.26,13.64v0c-0.28,4.85-3.62,8.58-8.44,7.95l-28.57-3.73L423.38,165.9z"
		/>
	<path class="st0" d="M357.68,175.05c0,0-3.34,1.52-8,2.05v12.79h-9.91v-13.63c-1.78-0.56-3.55-1.39-5.26-2.57
		c0,0-10.03-6.53-9.39-18.31c0.64-11.77,8.36-16.15,8.36-16.15c-0.84-0.69-5.91-4.99-6.15-12.14c-0.23-6.88,4.18-11.33,5.56-12.72
		c1.08-1.09,2.23-1.97,3.39-2.69V96.29h9.9v12.3c0.44-0.03,0.79-0.05,1.04-0.06c2.26-0.08,4.14,0.2,5.43,0.48l-2.57,10.04
		c-1.48-0.31-4.06-0.61-6.88,0.4c-1.2,0.43-2.78,0.99-4.02,2.59c-1.6,2.06-1.51,4.39-1.47,5.05c0.04,0.7,0.21,3.11,2.19,5.05
		c1.8,1.77,3.94,2.02,4.57,2.08H349l-0.11,9.62h-1.91c-5.95,0-10.8,4.78-10.89,10.74l-0.02,0.65c-0.09,6.53,5.21,12.49,11.74,12.22
		c0,0,3.37,0,6.29-1.1L357.68,175.05z"/>
</g>
</svg>
