<?xml version="1.0" encoding="UTF-8"?>
<svg id="Layer_1" xmlns="http://www.w3.org/2000/svg" version="1.1" viewBox="0 0 224.2 41">
  <!-- Generator: Adobe Illustrator 29.5.1, SVG Export Plug-In . SVG Version: 2.1.0 Build 141)  -->
  <defs>
    <style>
      .st0 {
        fill: #003d66;
      }

      .st0, .st1 {
        fill-rule: evenodd;
      }

      .st1 {
        fill: #005cb7;
      }
    </style>
  </defs>
  <path class="st0" d="M12.5,40.5c-1.2-.6-2.4-1.5-3.3-2.6-.9-1.1-1.7-2.4-2.2-3.9-.5-1.5-.8-3.1-.8-4.8,0-10,8.4-15.5,7.5-25.7,0-.6-.1-1.2-.3-1.7-.2-.5-.4-1-.8-1.4,1.2.6,2.4,1.5,3.3,2.6.9,1.1,1.7,2.4,2.2,3.9.5,1.5.9,3.1.9,4.8,0,8.7-7.9,15.1-7.9,24.4s.2,1.7.4,2.4c.3.7.7,1.3,1.1,1.9"/>
  <path class="st1" d="M20,39.9c-.9-.4-1.6-1-2.2-1.8-.6-.8-1.2-1.6-1.5-2.6-.4-1-.6-2.1-.6-3.2,0-6.8,6.2-10.6,5.2-19.3,1.2,1.1,2.2,3,2.8,4.4.3,1,.6,2.1.6,3.2,0,5.8-5.3,10.1-5.3,16.4s0,1.1.3,1.6c.2.5.5,1,.8,1.3"/>
  <path class="st1" d="M4.5,28.5c-.8-.4-1.6-1-2.2-1.8-.6-.8-1.2-1.6-1.5-2.6-.3-1-.6-2.1-.6-3.2,0-6.7,6.2-10.6,5.2-19.3,1.2,1.1,2.2,3,2.8,4.4.4,1,.6,2.1.6,3.2,0,5.8-5.3,10.1-5.3,16.4s0,1.1.3,1.6c.2.5.5,1,.8,1.3"/>
  <path class="st1" d="M42.9,30.3v-9.3h-8.7v9.3h-3.7V9.2h3.7v8.8h8.7v-8.8h3.7v21.1s-3.7,0-3.7,0Z"/>
  <path class="st1" d="M55.3,21.4c1.2,0,3.1-.2,4.2-.4,0-.2,0-.5,0-.8,0-2.5-.9-3.9-3.6-3.9s-3.9,2.1-3.9,5.1c0,0,3.2,0,3.2,0ZM52.2,23.9c.2,3.1,1.8,3.9,4.3,3.9s4.1-.2,5.8-.4l.3,2.6c-1.8.3-3.9.6-7,.6-5.4,0-6.8-3.5-6.8-8.3s1.8-8.3,7.2-8.3,7,3.1,7,7.9,0,.8,0,1.2c-1.8.4-5.7.7-8,.8h-2.8c0,0,0,.1,0,.1Z"/>
  <path class="st1" d="M74.7,22.3c-1.4,0-3.1,0-4.4.4-1.7.4-2.3.9-2.3,2.8s1.1,2.5,3.2,2.5,2.4,0,3.3-.5c0-.6.1-1.4.1-2.2v-3h0s0,0,0,0ZM64.8,25.5c0-2.8,1.2-4.6,4.4-5.1,1.8-.3,3.7-.4,5.7-.4,0-2.2-1-3.3-3.4-3.3s-3.9.2-5.6.4l-.3-2.6c1.8-.3,3.8-.6,6.3-.6,3.5,0,6.5.9,6.5,5.1v7.1c0,1.1,0,2-.1,3-1.8,1-4.2,1.4-7.2,1.4-4.4,0-6.1-1.7-6.1-5h0Z"/>
  <path class="st1" d="M81,7.9h3.5v18.1c0,1.5.4,2.5,1.2,3.7l-3,1.4c-1.1-1.2-1.7-2.6-1.7-4.9V7.9q0,0,0,0Z"/>
  <path class="st1" d="M96.7,30.3c-.8.1-1.7.2-2.4.2-3.3,0-4.6-1.4-4.6-4.4v-9.4h-2.7v-2.6h2.7v-4l3.5-.6v4.6h3.3v2.5h-3.3v9.1c0,1.5.7,2,2.2,2s.8,0,1.2,0c0,0,.1,2.5.1,2.5Z"/>
  <path class="st1" d="M113,30.3h-3.5v-10c0-2.6-.5-3.7-3.8-3.7s-2.2.2-3.1.6v13h-3.5V7.9h3.5v6.6c1.2-.4,2.6-.6,4-.6,5.7,0,6.3,2.6,6.3,6v10.4h0Z"/>
  <path class="st0" d="M130.3,12.3c-1.3-.2-2.7-.4-4.2-.4-5.7,0-5.7,3.3-5.7,7.7s0,7.7,5.7,7.7,2.8-.1,4.2-.4l.4,2.8c-1.4.4-3.2.6-5.3.6-7,0-8.7-3.3-8.7-10.8s1.7-10.8,8.7-10.8,3.9.2,5.3.6l-.4,2.8h0Z"/>
  <path class="st0" d="M142.9,22.3c-1.4,0-3.1,0-4.4.4-1.7.4-2.3.9-2.3,2.8s1.1,2.5,3.2,2.5,2.4,0,3.3-.5c0-.6.1-1.4.1-2.2v-3h0s0,0,0,0ZM132.8,25.5c0-2.8,1.2-4.6,4.4-5.1,1.8-.3,3.7-.4,5.7-.4,0-2.2-1-3.3-3.4-3.3s-3.9.2-5.6.4l-.3-2.6c1.8-.3,3.9-.6,6.3-.6,3.5,0,6.5.9,6.5,5.1v7.1c0,1.1,0,2-.1,3-1.8,1-4.2,1.4-7.2,1.4-4.4,0-6.1-1.7-6.1-5h0Z"/>
  <path class="st0" d="M157.7,30.3c-.8.1-1.7.2-2.4.2-3.3,0-4.6-1.4-4.6-4.4v-9.4h-2.7v-2.6h2.7v-4l3.5-.6v4.6h3.3v2.5h-3.4v9.1c0,1.5.6,2,2.2,2s.8,0,1.2,0l.2,2.5h0Z"/>
  <path class="st0" d="M170.3,22.3c-1.4,0-3.1,0-4.4.4-1.7.4-2.3.9-2.3,2.8s1.1,2.5,3.2,2.5,2.4,0,3.3-.5c0-.6.1-1.4.1-2.2v-3h0s0,0,0,0ZM160.2,25.5c0-2.8,1.2-4.6,4.4-5.1,1.8-.3,3.7-.4,5.7-.4,0-2.2-1-3.3-3.4-3.3s-3.9.2-5.6.4l-.3-2.6c1.8-.3,3.9-.6,6.3-.6,3.5,0,6.5.9,6.5,5.1v7.1c0,1.1,0,2-.1,3-1.8,1-4.2,1.4-7.2,1.4-4.4,0-6.1-1.7-6.1-5h0Z"/>
  <path class="st0" d="M175.8,7.9h3.5v18.1c0,1.5.4,2.5,1.2,3.7l-3,1.4c-1.1-1.2-1.7-2.6-1.7-4.9V7.9h0Z"/>
  <path class="st0" d="M189.8,24.9l3.4-10.8h3.5l-7.5,22.1h-3.5l2.5-7-6.5-15.1h3.6l4.4,10.8h0Z"/>
  <path class="st0" d="M205.4,25.8c0-1.8-1.7-2-3.2-2.5-2.6-.8-5.1-1.5-5.1-5s2.5-4.6,5.7-4.6,3.9.2,5.7.6l-.4,2.6c-1.2-.2-2.6-.4-4-.4s-3.7,0-3.7,1.7,1.9,2,3.3,2.5c2.8.9,5,1.5,5,5s-2.8,4.8-6.3,4.8-3.9-.2-5.6-.6l.4-2.6c1.2.2,3,.5,4.3.5,1.4,0,3.8,0,3.8-2"/>
  <path class="st0" d="M220.7,30.3c-.8.1-1.7.2-2.4.2-3.3,0-4.6-1.4-4.6-4.4v-9.4h-2.7v-2.6h2.7v-4l3.5-.6v4.6h3.3v2.5h-3.3v9.1c0,1.5.6,2,2.2,2s.8,0,1.2,0v2.5q.1,0,.1,0Z"/>
  <path class="st0" d="M222.2,9.3h.2c.2,0,.4,0,.4-.2s-.1-.2-.3-.2-.2,0-.2,0v.4h0ZM222.1,10.2h-.4v-1.6c.1,0,.4,0,.6,0s.4,0,.5.1c0,0,.1.2.1.4s-.1.3-.3.4h0c.1,0,.2.2.3.4,0,.2,0,.3.1.4h-.4c0,0,0-.2-.1-.4,0-.2-.1-.2-.3-.2h-.2v.6h0ZM221.2,9.4c0,.7.5,1.3,1.2,1.3s1.2-.6,1.2-1.2-.5-1.3-1.2-1.3-1.2.6-1.2,1.3h0ZM224,9.4c0,.9-.7,1.6-1.6,1.6s-1.6-.7-1.6-1.6.7-1.6,1.6-1.6,1.6.7,1.6,1.6h0Z"/>
</svg>