<?xml version="1.0" encoding="utf-8"?>
<!-- Generator: Adobe Illustrator 19.2.1, SVG Export Plug-In . SVG Version: 6.00 Build 0)  -->
<svg version="1.1" id="layer" xmlns="http://www.w3.org/2000/svg" xmlns:xlink="http://www.w3.org/1999/xlink" x="0px" y="0px"
	 viewBox="0 0 652 652" style="enable-background:new 0 0 652 652;" xml:space="preserve">
<style type="text/css">
	.st0{fill:#006892;}
	.st1{fill:#54534A;}
</style>
<g>
	<path class="st0" d="M224.9,422.1c-12.3,12.8-43.9,50.7-65.2,50.7c-10.7,0-17.1-9-17.1-19.6c0-7.7,2.1-17.5,3.8-26.4l23-112.5
		c0.8-4.2,1.7-9.8,1.7-13.2c0-3-1.7-6.8-3.8-6.8c-8.5,0-26.4,18.3-37.5,29.4l-5.1-4.7c12.4-12.8,43.9-50.7,65.2-50.7
		c10.2,0,16.2,10.2,16.2,22.6c0,5.1-2.1,15.7-3.8,23.4l-23,112.5c-0.9,4.3-1.7,9.8-1.7,13.2c0,3,1.7,6.8,4.7,6.8
		c8.1,0,26-18.3,37.1-29.4L224.9,422.1z M177.2,204.8c0-13.6,11.1-24.3,24.3-24.3c13.7,0,24.3,10.7,24.3,24.3
		c0,13.6-10.7,24.3-24.3,24.3C188.3,229,177.2,218.4,177.2,204.8"/>
	<path class="st1" d="M638,269.8c0-5.1-4.2-9.3-9.3-9.3c-5.1,0-9.3,4.2-9.3,9.3c0,5.2,4.2,9.3,9.3,9.3
		C633.8,279.2,638,275,638,269.8 M636.6,269.8c0,4.4-3.6,7.9-7.9,7.9c-4.4,0-7.9-3.6-7.9-7.9c0-4.3,3.5-7.9,7.9-7.9
		C633,261.9,636.6,265.5,636.6,269.8 M632.5,274.5l-1.8-4.2c0.6-0.3,1.7-0.7,1.7-2.4c0-2.9-2.1-3.2-4-3.2h-3.3v9.8h1.8v-4h2.2l1.5,4
		H632.5z M630.5,267.7c0,0.9-0.7,1.3-1.5,1.3h-2.2v-2.6h2C629.9,266.4,630.5,266.8,630.5,267.7 M578.7,311.9h39.3
		c0-15.9-4.6-28.4-13.7-37.5c-9.1-9.1-21.7-13.7-37.6-13.7c-15.9,0-28.7,4.7-38.7,14.1c-10,9.4-15,22-15,37.6
		c0,9.1,1.8,17.6,5.4,25.4c3.6,7.8,9.1,15.5,16.5,23c1.7,1.6,7.4,6.7,17,15.3c9.6,8.6,15.8,14.3,18.4,17.1c5,5.2,8.7,10.2,11.1,15.1
		c2.4,4.9,3.6,10.5,3.6,16.7c0,5.9-1.6,10.6-4.7,13.9c-3.2,3.3-7.6,5-13.2,5c-5.5,0-9.7-1.8-12.5-5.5c-2.8-3.7-4.2-9-4.2-15.8h-39
		c0,16.6,4.8,29.4,14.4,38.2c9.7,8.8,23,13.2,40.2,13.2c19,0,33.5-4.9,43.4-14.8c9.9-9.8,14.8-24.5,14.8-43.8
		c0-9.8-1.6-18.7-4.7-26.7c-3.1-7.9-8.4-15.8-15.8-23.7c-4.3-4.4-11.4-11-21.4-19.6c-10-8.6-15.4-13.2-16.2-13.9
		c-6-5.4-10.1-10-12.2-13.6c-2.2-3.7-3.3-7.4-3.3-11.3c0-5,1.1-8.8,3.4-11.6c2.2-2.8,5.5-4.2,9.8-4.2c5.1,0,8.8,1.8,11.2,5.4
		C577.5,299.7,578.7,304.9,578.7,311.9 M496.5,459.3c9.9-9.8,14.8-24.5,14.8-43.8c0-9.8-1.6-18.7-4.7-26.7
		c-3.2-7.9-8.4-15.8-15.8-23.7c-4.3-4.4-11.4-11-21.4-19.6c-10-8.6-15.4-13.2-16.2-13.9c-6-5.4-10.1-10-12.2-13.6
		c-2.2-3.7-3.3-7.4-3.3-11.3c0-5,1.1-8.8,3.4-11.6c2.2-2.8,5.5-4.2,9.9-4.2c5.1,0,8.8,1.8,11.2,5.4c2.4,3.6,3.6,8.8,3.6,15.8H505
		c0-15.9-4.6-28.4-13.7-37.5c-9.2-9.1-21.7-13.7-37.6-13.7c-15.8,0-28.7,4.7-38.7,14.1c-10,9.4-15,22-15,37.6
		c0,9.1,1.8,17.6,5.4,25.4c3.6,7.8,9.1,15.5,16.5,23c1.7,1.6,7.4,6.7,17,15.3c9.6,8.6,15.7,14.3,18.4,17.1c5,5.2,8.7,10.2,11.1,15.1
		c2.4,4.9,3.6,10.5,3.6,16.7c0,5.9-1.6,10.6-4.7,13.9c-3.1,3.3-7.5,5-13.2,5c-5.5,0-9.7-1.8-12.5-5.5c-2.8-3.7-4.2-9-4.2-15.8h-39
		c0,16.6,4.8,29.4,14.5,38.2c9.7,8.8,23.1,13.2,40.2,13.2C472.1,474,486.6,469.1,496.5,459.3 M352.3,471.9h41.9V304.7
		c0-12.9-3.8-22.8-11.4-29.8c-7.6-7-17.8-10.5-30.7-10.5c-5.8,0-11.5,0.9-17.1,2.7c-5.6,1.8-10.3,4.4-14.2,7.8
		c-2.7-3.4-6.6-6-11.7-7.8c-5.1-1.8-11.3-2.7-18.6-2.7c-6.1,0-12.5,0.9-19.2,2.6c-6.7,1.7-11.3,3.9-13.9,6.6l-4.3-9.2h-33.5v207.5
		h41.9V287.8h13.2c3.7,0,6.5,1.2,8.5,3.4c2.1,2.3,3.1,5.3,3.1,9v171.7h41.3V287.8h13.2c3.6,0,6.5,1.2,8.5,3.4c2,2.3,3,5.3,3,9V471.9
		z M88.1,471.9h41.9V264.4H88.1V332H56.2v-67.6H14.3v207.5h41.9V361h31.9V471.9z"/>
</g>
</svg>
