<svg xmlns="http://www.w3.org/2000/svg" xmlns:xlink="http://www.w3.org/1999/xlink" xml:space="preserve" viewBox="0 0 75.604 30.793"><path fill="#6DB650" d="M1.55 10.252h5.991v14.916H1.55z"/><defs><path id="a" d="M0 0h75.604v30.793H0z"/></defs><clipPath id="b"><use xlink:href="#a" overflow="visible"/></clipPath><path fill="#6DB650" d="M23.303 18.468h-.473q-3.72 0-5.181.478-1.464.478-1.464 1.636 0 .827.747 1.239t2.241.413q1.997 0 3.063-.884 1.067-.883 1.067-2.549zm.152 4.458q-.976 1.257-2.85 1.919-1.874.665-4.448.665-2.973 0-4.595-1.186-1.623-1.187-1.623-3.356 0-1.352.624-2.429t1.812-1.763q.944-.566 2.642-.806 1.696-.24 5.367-.241h2.919q0-.086.015-.222.015-.137.015-.194 0-1.206-.756-1.837-.757-.633-2.193-.632-1.638 0-2.431.416-.795.414-.948 1.344h-6.042q.288-2.428 2.607-3.585 2.319-1.16 6.912-1.159 4.425 0 6.516 1.387 2.09 1.388 2.091 4.305v7.624q0 .635.068 1.107t.236.884h-5.559a3.7 3.7 0 0 1-.288-.899 6 6 0 0 1-.091-1.062zM8.91 4.254c0 2.349-1.995 4.254-4.454 4.254C1.995 8.508 0 6.603 0 4.254 0 1.904 1.995-.001 4.456-.001c2.459 0 4.454 1.905 4.454 4.255m56.305 18.232q1.933 0 3.088-1.208 1.157-1.208 1.157-3.232 0-2.286-1.141-3.544t-3.196-1.259q-2.009 0-3.143 1.208-1.132 1.208-1.132 3.377 0 2.285 1.118 3.471 1.118 1.187 3.249 1.187M54.918 30.75V13.534q0-.768-.062-1.607a31 31 0 0 0-.183-1.766h6.052q.092.579.138 1.158.045.58.045 1.157v.462a8.3 8.3 0 0 1 2.98-2.357q1.737-.81 3.83-.811 3.715 0 5.8 2.104t2.086 5.862q0 3.57-2.154 5.651-2.152 2.08-5.854 2.081-2 0-3.67-.626a9.1 9.1 0 0 1-3.018-1.881v7.789zm-12.635-8.221q1.934 0 3.089-1.209 1.156-1.208 1.156-3.231 0-2.287-1.141-3.545-1.14-1.259-3.195-1.259-2.009 0-3.143 1.208-1.133 1.209-1.133 3.377 0 2.286 1.118 3.472 1.117 1.187 3.249 1.187m-10.297 8.264V13.576q0-.766-.061-1.606a30 30 0 0 0-.184-1.766h6.053q.09.579.138 1.158.045.58.045 1.157v.462a8.3 8.3 0 0 1 2.98-2.358q1.737-.81 3.829-.81 3.715 0 5.801 2.103 2.086 2.105 2.086 5.862 0 3.57-2.154 5.652-2.152 2.08-5.854 2.081-2.002 0-3.67-.626a9.1 9.1 0 0 1-3.018-1.881v7.789z" clip-path="url(#b)"/></svg>