<svg width="198" height="24" viewbox="0 0 198 24" fill="#000" xmlns="http://www.w3.org/2000/svg">
  <g>
    <path d="M97.8959 0.62207C95.6464 0.62207 93.4475 1.29302 91.5772 2.55006C89.7068 3.8071 88.2491 5.59378 87.3883 7.68417C86.5275 9.77456 86.3022 12.0748 86.7411 14.2939C87.1799 16.513 88.2631 18.5515 89.8537 20.1514C91.4443 21.7513 93.4708 22.8408 95.677 23.2822C97.8833 23.7237 100.17 23.4971 102.248 22.6312C104.326 21.7654 106.103 20.2991 107.352 18.4178C108.602 16.5365 109.269 14.3247 109.269 12.0621C109.266 9.02888 108.067 6.12075 105.935 3.97596C103.803 1.83117 100.911 0.624959 97.8959 0.62207ZM97.9805 22.1798C93.5183 22.1798 89.887 17.6392 89.887 12.0621C89.887 6.48499 93.5183 1.94434 97.9805 1.94434C102.443 1.94434 106.078 6.48281 106.078 12.0621C106.078 17.6413 102.445 22.1798 97.9805 22.1798Z"></path>
    <path d="M13.2931 16.2079C13.2931 13.7663 12.8744 12.7495 11.1998 12.1146V11.988H18.0871V12.1146C16.8637 12.7495 16.4776 13.3212 16.4776 16.1774V22.0468C14.2888 22.8105 12.1391 23.3167 9.84618 23.3167C4.15191 23.3167 -0.00219727 19.699 -0.00219727 12.0207C-0.00219727 4.02386 5.24521 0.5 10.2974 0.5C12.3256 0.5 14.8029 0.977851 15.8984 1.48406L15.9309 6.18182H15.7357C14.1283 2.84779 12.1976 1.32478 10.0414 1.32478C6.49903 1.32478 3.79615 4.87919 3.79615 11.8287C3.79615 19.0968 6.43612 22.3654 10.3039 22.3654C11.3227 22.362 12.334 22.1903 13.2974 21.857L13.2931 16.2079Z"></path>
    <path d="M17.3952 22.841V22.7145C19.0655 22.1755 19.4451 21.4773 19.4451 18.8415V4.97519C19.4451 2.30884 19.0352 1.61279 17.3952 1.07167V0.95166H24.8401V1.07821C23.1372 1.64988 22.7576 2.38739 22.7576 4.98173V21.9203H25.9117C27.3954 21.9203 28.057 21.126 29.4454 19.2234L30.6124 17.6371H30.7708L30.2653 22.841H17.3952Z"></path>
    <path d="M31.2437 22.841V22.7145C32.9183 22.1755 33.2958 21.5406 33.2958 18.787V5.04064C33.2958 2.31102 32.9183 1.64552 31.2437 1.07385V0.95166H43.8014V5.64287H43.6843C41.9814 2.65795 41.4434 1.8659 39.5193 1.8659H36.5757V11.1327H39.4477C40.9293 11.1327 41.4673 10.5915 42.4847 8.97253H42.643V14.1765H42.4847C41.5064 12.5597 40.9076 12.0513 39.4477 12.0513H36.5757V21.9203H38.9423C41.6257 21.9203 42.0986 21.6039 43.8643 19.0663L44.873 17.6371H45.0314L44.4956 22.841H31.2437Z"></path>
    <path d="M49.1356 16.5592V4.94246L60.7042 22.8345H62.3267V7.22915C62.3267 2.42884 62.817 1.70661 64.4071 1.07167V0.95166H58.9839V1.07821C60.5762 1.71316 61.0642 2.47466 61.0642 7.23569V17.2945L50.5434 0.95166H45.5259V1.07821C47.1767 1.68261 47.8817 2.63395 47.8817 4.60208V16.5657C47.8817 21.366 47.424 22.0861 45.8014 22.721V22.8476H51.2484V22.721C49.6258 22.0861 49.1356 21.3246 49.1356 16.5657"></path>
    <path d="M80.7783 22.841V22.7145C82.0343 22.1755 82.4617 21.5711 82.4617 19.7012C82.4617 18.9375 82.4009 17.9862 82.3402 16.7163L81.761 4.44279H81.6981L75.6394 22.9676H74.4159L68.5698 4.24642H68.5091L67.8583 15.8915C67.7954 16.9061 67.7954 17.7004 67.7954 18.4313C67.7954 21.318 68.1945 22.2388 69.7846 22.7145V22.841H64.3159V22.7145C66.0513 21.953 66.4288 20.7507 66.6717 15.861L67.0687 8.24376C67.1012 7.03714 67.2227 5.41812 67.2227 4.72208C67.2227 2.56413 66.8865 1.8659 65.3572 1.07167V0.95166H70.7434L76.0993 17.9295L81.6677 0.95166H86.657V1.07821C85.1906 1.83971 84.8825 2.72995 84.8825 4.82245C84.8825 5.17156 84.9151 5.58395 84.9454 6.05962L85.4661 15.9941C85.709 21.0126 85.863 21.9268 87.5767 22.721V22.8476L80.7783 22.841Z"></path>
    <path d="M123.528 22.841C120.56 22.841 120.309 22.6818 118.998 19.891L115.744 12.9415H113.777V18.7477C113.777 21.4773 114.152 22.1755 115.775 22.7145V22.841H108.503V22.7145C110.161 22.1755 110.534 21.5406 110.534 18.787V5.04064C110.534 2.24992 110.128 1.61497 108.503 1.07385V0.95166H116.376C120.779 0.95166 123.122 2.7605 123.122 6.56801C123.122 9.77331 120.84 11.3683 118.749 12.2171L122.495 19.2801C123.966 22.073 124.526 22.3894 125.87 22.7079V22.8345L123.528 22.841ZM115.625 12.0796C117.781 12.0796 119.716 10.5894 119.716 6.78185C119.716 3.72711 118.415 1.86372 116 1.86372H113.783V12.0796H115.625Z"></path>
    <path d="M135.697 22.841V22.7144C136.738 22.4613 137.216 22.0162 137.216 20.8423C137.216 19.7317 136.782 18.0058 135.914 14.9401H129.545C128.725 17.7636 128.283 19.4764 128.283 20.6132C128.283 21.8831 128.788 22.3588 129.988 22.7079V22.8344H124.38V22.7079C125.799 21.9791 126.367 20.9951 128.387 14.2986L132.456 0.770508H135.107L139.114 14.5757C140.975 20.8903 141.448 21.9944 142.869 22.6992V22.8257L135.697 22.841ZM132.764 3.67469L129.829 13.8928H135.604L132.764 3.67469Z"></path>
    <path d="M144.756 16.5592V4.94246L156.324 22.8345H157.947V7.22915C157.947 2.42884 158.435 1.70661 160.027 1.07167V0.95166H154.604V1.07821C156.194 1.71316 156.685 2.47466 156.685 7.23569V17.2945L146.164 0.95166H141.144V1.07821C142.797 1.68261 143.502 2.63395 143.502 4.60208V16.5657C143.502 21.366 143.042 22.0861 141.42 22.721V22.8476H146.869V22.721C145.246 22.0861 144.756 21.3246 144.756 16.5657"></path>
    <path d="M172.351 16.2079C172.351 13.7663 171.947 12.7495 170.34 12.1146V11.988H176.956V12.1146C175.783 12.7495 175.412 13.3212 175.412 16.1774V22.0468C173.31 22.8105 171.236 23.3167 169.041 23.3167C163.57 23.3167 159.581 19.699 159.581 12.0207C159.581 4.02386 164.622 0.5 169.474 0.5C171.427 0.5 173.813 0.977851 174.854 1.48406L174.885 6.18182H174.707C173.16 2.84779 171.305 1.32478 169.234 1.32478C165.832 1.32478 163.236 4.87919 163.236 11.8287C163.236 19.0968 165.769 22.3654 169.481 22.3654C170.462 22.3616 171.434 22.1897 172.357 21.857L172.351 16.2079Z"></path>
    <path d="M176.357 22.841V22.7145C178.028 22.1755 178.407 21.5406 178.407 18.8415V4.97519C178.407 2.27829 178.028 1.64334 176.357 1.07167V0.95166H183.733V1.07821C182.06 1.64988 181.681 2.28484 181.681 4.98173V18.8437C181.681 21.5428 182.06 22.1777 183.733 22.7167V22.8432L176.357 22.841Z"></path>
    <path d="M184.212 22.841V22.7145C185.885 22.1755 186.264 21.5406 186.264 18.787V5.04064C186.264 2.31102 185.885 1.64552 184.212 1.07385V0.95166H196.768V5.64287H196.644C194.939 2.65795 194.401 1.8659 192.479 1.8659H189.544V11.1327H192.414C193.898 11.1327 194.434 10.5915 195.451 8.97253H195.607V14.1765H195.451C194.473 12.5597 193.872 12.0513 192.414 12.0513H189.544V21.9203H191.911C194.592 21.9203 195.065 21.6039 196.833 19.0663L197.842 17.6371H198L197.462 22.841H184.212Z"></path>
  </g>
</svg>