<svg xmlns="http://www.w3.org/2000/svg" xmlns:xlink="http://www.w3.org/1999/xlink" fill="#003764" viewBox="0 0 119 40"><path id="a" d="M46.124.946v.697h2.99v7.88h.818v-7.88h2.99V.946z"/><path d="M59.638.946V4.67h-5.093V.946h-.816v8.577h.816V5.367h5.093v4.156h.816V.946zm2.548 0v8.577h5.981v-.697h-5.165V5.439h4.781v-.697h-4.78v-3.1h5.104V.947zm-16.062 29.86v8.576h.817v-4.084h4.108v-.697H46.94v-3.098h4.624v-.697z"/><path id="b" d="M56.167 38.866c2.257 0 3.218-1.898 3.218-3.772s-.96-3.771-3.218-3.771c-2.27 0-3.232 1.898-3.232 3.77 0 1.875.961 3.773 3.231 3.773m0-8.24c2.692 0 4.037 2.114 4.037 4.468s-1.346 4.469-4.037 4.469c-2.702 0-4.047-2.114-4.047-4.47 0-2.353 1.344-4.467 4.047-4.467"/><path d="M61.393 30.806h.817v5.309c0 1.982.924 2.75 2.51 2.75 1.598 0 2.522-.768 2.522-2.75v-5.31h.817v5.49c0 1.766-.949 3.268-3.339 3.268-2.366 0-3.327-1.502-3.327-3.268z"/><path id="c" d="M69.694 30.806h.913l4.997 7.255h.024v-7.255h.816v8.576h-.912l-4.997-7.255h-.024v7.255h-.817z"/><path d="M78.98 38.685h1.743c2.462 0 3.53-1.02 3.53-3.592 0-2.57-1.068-3.59-3.53-3.59H78.98zm-.816-7.88h2.967c2.595.06 3.94 1.454 3.94 4.288s-1.345 4.228-3.94 4.288h-2.967zm9.442 5.214h3.375l-1.658-4.396zm1.297-5.213h.913l3.363 8.576h-.876l-1.045-2.666h-3.904l-1.033 2.666h-.877z"/><use xlink:href="#a" transform="translate(46.096 29.86)"/><path d="M99.884 30.806h.817v8.576h-.817z"/><use xlink:href="#b" transform="translate(49.916)"/><use xlink:href="#c" transform="translate(41.687)"/><path d="M46.124 12.077h4.728v11.412h6.791v3.933H46.124zm14.613 0h4.728v15.345h-4.728zm8.253 0h4.834l4.47 8.21h.044v-8.21h4.47v15.345H78.21l-4.707-8.382h-.043v8.382h-4.47zm31.288 9.413c0 4.277-2.256 6.297-6.985 6.297-4.727 0-7.006-2.02-7.006-6.297v-9.413h4.73v8.36c0 1.547-.023 3.524 2.298 3.524 2.235 0 2.235-1.977 2.235-3.524v-8.36h4.728zm7.521-2.235-5.051-7.178h5.545l2.32 4.169 2.279-4.17h5.244l-4.921 7.222 5.48 8.124h-5.696l-2.621-4.578-2.708 4.578h-5.416z"/><path fill="#0096d6" d="M8.583 31.667V16.24H.853v23.142h23.153v-7.715z"/><path d="M39.429.8H.858v11.574H8.57V8.549h23.146v23.118h-3.853v7.715h11.564z"/></svg>