<?xml version="1.0" encoding="utf-8"?>
<!-- Generator: Adobe Illustrator 16.0.4, SVG Export Plug-In . SVG Version: 6.00 Build 0)  -->
<!DOCTYPE svg PUBLIC "-//W3C//DTD SVG 1.1//EN" "http://www.w3.org/Graphics/SVG/1.1/DTD/svg11.dtd">
<svg version="1.1" id="Layer_1" xmlns="http://www.w3.org/2000/svg" xmlns:xlink="http://www.w3.org/1999/xlink" x="0px" y="0px"
	 width="865.892px" height="134.966px" viewBox="0 0 865.892 134.966" enable-background="new 0 0 865.892 134.966"
	 xml:space="preserve">
<g>
	<g>
		<path fill="#C2D32F" d="M98.967,48.236c0,6.783-5.484,12.251-12.233,12.251c-6.775,0-12.262-5.468-12.262-12.251
			c0-6.761,5.486-12.256,12.262-12.256C93.482,35.98,98.967,41.476,98.967,48.236"/>
		<path fill="#172C53" d="M12.255,35.98C5.483,35.98,0,41.476,0,48.236c0,6.783,5.483,12.251,12.255,12.251
			c6.754,0,12.238-5.468,12.238-12.251C24.493,41.476,19.009,35.98,12.255,35.98z M49.496,35.98c-6.78,0-12.265,5.496-12.265,12.256
			c0,6.783,5.484,12.251,12.265,12.251c6.747,0,12.229-5.468,12.229-12.251C61.725,41.476,56.243,35.98,49.496,35.98z
			 M86.733,97.724c6.749,0,12.233-5.461,12.233-12.256c0-6.752-5.484-12.248-12.233-12.248c-6.775,0-12.262,5.496-12.262,12.248
			C74.472,92.263,79.958,97.724,86.733,97.724z M12.255,73.22C5.483,73.22,0,78.716,0,85.468c0,6.795,5.483,12.256,12.255,12.256
			c6.754,0,12.238-5.461,12.238-12.256C24.493,78.716,19.009,73.22,12.255,73.22z M49.496,73.22c-6.78,0-12.265,5.496-12.265,12.248
			c0,6.795,5.484,12.256,12.265,12.256c6.747,0,12.229-5.461,12.229-12.256C61.725,78.716,56.243,73.22,49.496,73.22z
			 M86.733,110.462c-6.775,0-12.262,5.492-12.262,12.244c0,6.795,5.486,12.26,12.262,12.26c6.749,0,12.233-5.465,12.233-12.26
			C98.967,115.955,93.482,110.462,86.733,110.462z M12.255,110.462C5.483,110.462,0,115.955,0,122.707
			c0,6.795,5.483,12.26,12.255,12.26c6.754,0,12.238-5.465,12.238-12.26C24.493,115.955,19.009,110.462,12.255,110.462z
			 M49.496,110.462c-6.78,0-12.265,5.492-12.265,12.244c0,6.795,5.484,12.26,12.265,12.26c6.747,0,12.229-5.465,12.229-12.26
			C61.725,115.955,56.243,110.462,49.496,110.462z"/>
	</g>
	<g>
		<path fill="#172C53" d="M445.789,50.437l-4.006-4.006c-5.826-5.827-11.29-8.739-21.486-8.739c-10.928,0-19.121,3.277-25.495,9.65
			c-6.372,6.555-10.56,15.658-10.56,39.146c0,22.943,4.006,33.504,10.925,40.242c6.373,6.189,14.931,9.104,24.947,9.104
			c10.742,0,16.389-3.459,22.579-9.65l4.371-4.371v12.201h17.479V0h-18.755V50.437z M445.789,101.785
			c0,9.832-6.555,18.389-21.122,18.389c-6.92,0-11.837-2.002-14.933-5.098c-4.733-4.734-6.372-11.836-6.372-28.77
			c0-15.84,1.456-22.759,6.007-27.494c3.279-3.277,8.196-5.281,15.298-5.281c14.749,0,21.122,8.559,21.122,18.574V101.785z"/>
		<path fill="#172C53" d="M237.556,37.691c-12.745,0-18.207,4.916-25.309,11.652l-3.277,3.096
			c-6.191-11.654-16.752-14.749-26.584-14.749c-10.197,0-16.388,3.277-21.486,8.375l-6.19,6.191V39.693h-17.48v94.32h18.755V70.83
			c0-10.014,8.376-17.298,20.211-17.298c13.292,0,16.752,9.469,16.752,17.298v63.184h18.937V70.83
			c0-10.014,8.376-17.298,20.211-17.298c13.292,0,16.752,9.469,16.752,17.298v63.184h18.937v-60.27
			c0-15.66-3.642-22.033-8.377-27.13C253.216,40.058,246.297,37.691,237.556,37.691z"/>
		<rect x="492.415" y="39.693" fill="#172C53" width="18.755" height="94.32"/>
		<path fill="#172C53" d="M594.133,50.437l-4.006-4.006c-5.826-5.827-11.289-8.739-21.485-8.739c-10.926,0-19.119,3.277-25.492,9.65
			c-6.374,6.555-10.561,15.658-10.561,39.146c0,22.943,4.005,33.504,10.925,40.242c6.373,6.189,14.93,9.104,24.945,9.104
			c10.743,0,16.388-3.459,22.578-9.65l4.37-4.371v12.201h17.48V0h-18.755V50.437z M594.133,101.785
			c0,9.832-6.555,18.389-21.121,18.389c-6.92,0-11.836-2.002-14.932-5.098c-4.733-4.734-6.371-11.836-6.371-28.77
			c0-15.84,1.455-22.759,6.007-27.494c3.278-3.277,8.194-5.281,15.296-5.281c14.748,0,21.121,8.559,21.121,18.574V101.785z"/>
		<path fill="#172C53" d="M754.737,39.721l-0.021-2.758V10.436h-18.753v26.527l-0.021,2.758l-2.711-0.027h-10.743v14.385h10.743
			l2.709,0.052l0.022,2.68v52.075c0,14.566,9.104,26.949,26.584,26.949h2.367c3.642,0,7.647-1.092,9.286-2.732v-13.654h-8.194
			c-7.829,0-11.29-5.646-11.29-12.383V56.81l-0.017-2.705l2.749-0.027h16.752V39.693h-16.752L754.737,39.721z"/>
		<circle fill="#172C53" cx="501.792" cy="15.438" r="10.22"/>
		<path fill="#172C53" d="M367.08,115.729c0.198-0.271,0.315-0.605,0.315-0.969c0-0.652-0.381-1.216-0.934-1.48l0,0l-12.836-6.439
			c0,0-0.202,0.256-0.335,0.414c-1.242,1.475-4.188,4.547-4.188,4.547c-3.643,3.643-10.561,8.738-19.3,8.738h-1.043
			c-16.934,0-23.308-8.922-23.308-24.762V93.59l0.003-2.727l2.729-0.004h58.994v-8.738c0-15.66-3.826-25.857-11.291-33.504
			c-6.735-6.738-16.204-10.926-28.586-10.926c-13.474,0-23.305,4.371-29.861,11.291c-7.284,7.464-10.925,17.661-10.925,37.143
			c0,23.125,3.461,32.775,10.925,39.693c6.738,6.373,16.754,10.016,31.138,10.016c0.065,0,0.13,0,0.194,0
			c0.04,0,0.079,0.001,0.121,0.001c11.563,0,20.522-3.682,28.304-10.042c4.014-3.28,8.417-8.338,9.728-9.877
			C366.935,115.902,367.073,115.738,367.08,115.729z M305.453,75.02v-2.551c0-9.285,5.099-19.664,21.849-19.664
			c14.567,0,20.94,10.379,20.94,19.664v2.551l0.042,2.699l-2.773,0.031h-37.326l-2.747-0.01L305.453,75.02z"/>
		<path fill="#172C53" d="M701.183,47.886c-6.37-6.918-16.933-10.195-29.677-10.195c-11.565,0-20.523,3.682-28.305,10.042
			c-2.887,2.359-5.563,5.13-7.48,7.262c-0.626,0.697-2.404,2.792-2.412,2.801c-0.197,0.271-0.314,0.605-0.314,0.969
			c0,0.652,0.381,1.216,0.934,1.48l3.129,1.57h0.004l9.711,4.871c0,0,0.202-0.256,0.336-0.414c1.241-1.475,4.188-4.547,4.188-4.547
			c3.642-3.643,10.56-8.74,19.3-8.74c14.567,0,19.483,6.555,19.483,15.295c0,4.916-3.094,7.464-13.294,8.921l-15.658,2.367
			c-16.752,2.549-30.045,11.471-30.045,28.405c0,18.572,13.84,27.86,30.045,27.86c14.203,0,20.939-4.188,26.403-9.469l3.458-3.276
			v10.893h17.844V72.287C708.831,60.269,706.102,53.349,701.183,47.886z M690.078,100.144c0,13.111-9.469,21.305-22.397,21.305
			c-12.201,0-18.025-5.645-18.025-14.932c0-8.193,5.643-12.381,12.744-13.656c0,0,15.741-2.936,19.981-3.734
			c3.784-0.715,7.697-2.456,7.697-2.456V100.144z"/>
		<path fill="#172C53" d="M858.243,47.886c-6.37-6.918-16.933-10.195-29.677-10.195c-11.565,0-20.523,3.682-28.305,10.042
			c-2.887,2.359-5.563,5.13-7.48,7.262c-0.626,0.697-2.404,2.792-2.412,2.801c-0.197,0.271-0.314,0.605-0.314,0.969
			c0,0.652,0.381,1.216,0.934,1.48l3.129,1.57h0.004l9.711,4.871c0,0,0.202-0.256,0.336-0.414c1.241-1.475,4.188-4.547,4.188-4.547
			c3.642-3.643,10.56-8.74,19.3-8.74c14.567,0,19.483,6.555,19.483,15.295c0,4.916-3.094,7.464-13.294,8.921l-15.658,2.367
			c-16.752,2.549-30.045,11.471-30.045,28.405c0,18.572,13.84,27.86,30.045,27.86c14.203,0,20.939-4.188,26.403-9.469l3.458-3.276
			v10.893h17.844V72.287C865.892,60.269,863.162,53.349,858.243,47.886z M847.139,100.144c0,13.111-9.469,21.305-22.397,21.305
			c-12.201,0-18.025-5.645-18.025-14.932c0-8.193,5.643-12.381,12.744-13.656c0,0,15.741-2.936,19.981-3.734
			c3.784-0.715,7.697-2.456,7.697-2.456V100.144z"/>
	</g>
</g>
</svg>
