<svg xmlns="http://www.w3.org/2000/svg" xml:space="preserve" id="Layer_1" x="0" y="0" version="1.1" viewBox="0 0 348 65"><style>.st0{fill-rule:evenodd;clip-rule:evenodd;fill:#141414}</style><path d="M147 39.8c-3.3 0-4.9-1.3-4.9-3.3v-.1c0-1.8 1-3.1 4.6-3.6l1.6-.2c2.3-.3 3.7-.8 5-1.5v2.6c0 3.9-2.5 6.1-6.3 6.1m.9-28c-4.5 0-9.2 1.2-14.9 4.3l3.2 8c5-2.8 9.2-4 12.2-4 3.4 0 5 1.3 5 3v.1c0 1.2-.9 1.8-3.2 2.1l-4 .4c-9.9 1.1-14 5.4-14 11.4v.4c0 5.7 4.7 10.2 11.3 10.2 4.3 0 8.1-1.8 10.4-5.1l.7 4.5h9V26.5c-.1-9.7-5.7-14.7-15.7-14.7" class="st0"/><path d="M63.3 12 51.8.5 40.3 12l5.7 5.8-28.8 29 11.5 11.6 11.5-11.6-5.7-5.8zM0 29.5 11.5 41l28.8-29L28.8.5zm40.2 17.3 11.5 11.6 28.8-29-11.4-11.6z" style="fill-rule:evenodd;clip-rule:evenodd;fill:#fa582d"/><path d="M169.3 47h10.2V.1h-10.2zm-50.1-17c0 5.3-2.7 9.1-7.3 9.1s-7.3-3.8-7.3-9.1v-.6c0-5.3 2.7-9.1 7.3-9.1s7.3 3.8 7.3 9.1zm-4.3-18.2c-4.6 0-8.4 2.1-10.4 5.3l-.8-4.7h-9v46.4h10.2V42.7c1.9 3 5.6 4.9 10 4.9 8.2 0 14.8-7.3 14.8-17.3v-1.2c.1-10-6.6-17.3-14.8-17.3M324.7 30c0 5.3-2.7 9.1-7.3 9.1s-7.3-3.8-7.3-9.1v-.6c0-5.3 2.7-9.1 7.3-9.1s7.3 3.8 7.3 9.1zm-7.3-18.2c-10.4 0-17.8 7.3-17.8 17.3v1.2c0 10 7.4 17.3 17.8 17.3s17.8-7.3 17.8-17.3v-1.2c0-10-7.4-17.3-17.8-17.3m24.1 1.2h1.2c.7 0 1 .2 1 .8v.1c0 .5-.3.8-1 .8h-1.2zm3.3.9v-.2c0-1-.8-1.7-2.1-1.7h-2.3v5.4h1.1v-1.8h1.2l.9 1.8h1.2l-1.1-2.1c.7-.2 1.1-.7 1.1-1.4" class="st0"/><path d="M342.5 19.5c-2.7 0-4.7-2-4.7-4.8s2-4.8 4.7-4.8 4.7 2 4.7 4.8-2 4.8-4.7 4.8m0-10.3c-3.2 0-5.5 2.4-5.5 5.6s2.4 5.6 5.5 5.6 5.5-2.4 5.5-5.6-2.4-5.6-5.5-5.6M259.3 47h10.2V.1h-10.2zm30.3-7.9c-3 0-4.1-1.5-4.1-4.6V20.3h12v-7.9h-12V4.5L275.3 6v29.5c0 8 4.1 12.1 12.3 12.1 3.6 0 7.9-1.1 11.4-3.1l-2.9-7.3c-2.1 1.1-5 1.9-6.5 1.9m-52.7.7c-3.3 0-4.9-1.3-4.9-3.3v-.1c0-1.8 1-3.1 4.6-3.6l1.6-.2c2.3-.3 3.7-.8 5-1.5v2.6c0 3.9-2.4 6.1-6.3 6.1m.9-28c-4.5 0-9.2 1.2-14.9 4.3l3.2 8c5-2.8 9.2-4 12.2-4 3.4 0 5 1.3 5 3v.1c0 1.2-.9 1.8-3.2 2.1l-4 .4c-9.9 1.1-14 5.4-14 11.4v.4c0 5.7 4.7 10.2 11.3 10.2 4.3 0 8.1-1.8 10.4-5.1l.7 4.5h9V26.5c-.1-9.7-5.6-14.7-15.7-14.7M209.2 30c0 5.3-2.7 9.1-7.3 9.1s-7.3-3.8-7.3-9.1v-.6c0-5.3 2.7-9.1 7.3-9.1s7.3 3.8 7.3 9.1zm-7.3-18.2c-10.4 0-17.8 7.3-17.8 17.3v1.2c0 10 7.4 17.3 17.8 17.3s17.8-7.3 17.8-17.3v-1.2c0-10-7.4-17.3-17.8-17.3m41.8 43.5h2.6l3.6 4.8v-4.8h2.4v8.4h-2.5l-3.7-4.9v4.9h-2.4zm11.9 0h7.3l.1 2.1h-4.9v1.2h3.9v1.9h-3.9v1.3h5.1l-.1 2.1h-7.5zm12.7 2.2h-2.9l.1-2.2h8.2l.1 2.2h-2.9v6.3h-2.5v-6.3m7.4-2.2h2.7l1.4 5.9h.1l1.8-5.9h2.5l1.7 5.9h.1l1.3-5.9h2.6l-2.2 8.4h-3.3l-1.5-5.1h-.1l-1.6 5.1H278zm23.1 4.3c0-1.5-.8-2.3-2.3-2.3s-2.3.9-2.3 2.3c0 1.5.8 2.3 2.3 2.3s2.3-.9 2.3-2.3m-7.1 0c0-2.8 1.9-4.5 4.8-4.5s4.8 1.7 4.8 4.5-1.9 4.5-4.8 4.5c-2.9-.1-4.8-1.8-4.8-4.5m16.9 0c.8 0 1.1-.5 1.1-1.1s-.3-1.1-1.1-1.1h-2.1v2.2zm-4.5-4.3h4.9c2.2 0 3.3 1.1 3.3 3 0 1.4-.6 2.3-1.6 2.7l2 2.7h-2.9l-1.5-2.2h-1.7v2.2h-2.5zm11.5 0h2.5v3.1h1l2.5-3.1h2.8l-3.2 4 3.4 4.4h-2.9l-2.5-3.2h-1v3.2h-2.5v-8.4m10.8 7.9v-2.3c1.4.7 2.8 1.1 4 1.1.9 0 1.4-.2 1.4-.6s-.3-.5-2.1-.8c-2-.3-3.3-.9-3.3-2.6 0-1.6 1.4-2.8 4.1-2.8 1.1 0 2.2.2 3.3.7v2.3c-1-.6-2.3-.9-3.4-.9-1 0-1.3.2-1.3.6 0 .5.6.5 2.1.8 2 .3 3.3.9 3.3 2.7 0 1.4-1 2.8-4 2.8-1.7-.2-2.8-.5-4.1-1" class="st0"/></svg>