<svg xmlns="http://www.w3.org/2000/svg" xml:space="preserve" viewBox="0 0 652 652"><path d="M85.9 252.9c0 3.3-.7 6.6-2 9.9s-3.2 6.3-5.7 9c-2.5 2.6-5.6 4.7-9.2 6.5-3.6 1.6-7.8 2.5-12.4 2.5H32v38H20v-94.5h34.6c3.9 0 7.7.5 11.5 1.6s7.1 2.8 10 5.1 5.3 5.3 7.1 8.9 2.7 8 2.7 13m-12.4-.4c0-5.8-1.7-10.1-5.3-12.9-3.5-2.8-7.9-4.3-13.2-4.3H32v34.5h23.5c3 0 5.6-.5 7.9-1.6 2.2-1 4.1-2.4 5.6-4s2.6-3.5 3.4-5.5 1.1-4.1 1.1-6.2m27.5 36.4v1.1c0 2.7.3 5.2 1.1 7.5.7 2.3 1.8 4.4 3.3 6.2s3.3 3.2 5.4 4.1c2.2 1 4.7 1.5 7.6 1.5 2.2 0 4.7-.5 7.5-1.6s5.4-2.7 7.7-4.7l7.2 8c-3.2 3-6.7 5.3-10.7 6.6-4 1.4-8 2-12.3 2-3.5 0-6.8-.5-10.3-1.5-3.4-.9-6.5-2.7-9.1-5.3-2.7-2.5-4.9-6-6.6-10.4s-2.5-10.1-2.5-17.1c0-6.6.9-12.2 2.6-16.7s4-8 6.6-10.7c2.7-2.7 5.8-4.6 9.1-5.7 3.4-1.1 6.6-1.7 9.8-1.7 3.7 0 7.2.7 10.4 2 3.3 1.3 6.1 3.3 8.5 5.8s4.4 5.6 5.8 9.3c1.4 3.6 2.1 7.9 2.1 12.6v8.7zm15.9-27.8c-4.6 0-8.3 1.6-11.1 4.7-2.8 3.2-4.4 7.7-4.7 13.6h31.7c-.3-6-1.8-10.6-4.6-13.7-2.9-3-6.6-4.6-11.3-4.6m64.7-10.2c4.8 0 9.2.9 13 2.9s6.8 4.7 9.2 8.4c1.6 2.4 2.7 5.4 3.5 8.9s1.1 7.4 1.1 11.7c0 5.8-.3 10.6-.9 14.6s-1.7 7.3-3.3 9.8c-2.3 4-5.6 7.1-9.8 9.1-4.2 2.2-9 3.2-14.3 3.2-4.9 0-9.2-.9-13-2.5s-6.8-4.2-9.2-7.7c-1.8-2.8-3.1-6.1-3.9-10s-1.1-8.5-1.1-14c0-3.8.3-7.3.8-10.5q.75-4.8 2.7-8.7c2.2-4.9 5.6-8.6 9.9-11.3 4.3-2.6 9.5-3.9 15.3-3.9m-.3 10.2c-3.4 0-6.3.9-8.9 2.5s-4.6 4-5.9 7c-1 2.1-1.6 4.3-1.9 6.8s-.4 5.2-.5 8.2c0 3 .1 5.7.3 8 .3 2.4.8 4.6 1.7 6.6 1.3 2.8 3.1 5.2 5.6 6.7 2.4 1.6 5.4 2.4 8.7 2.4 3.6 0 6.8-.9 9.7-2.8 2.8-1.9 4.9-4.9 6.2-9.1.4-1.6.8-3.5.9-5.6.2-2.2.2-5 .2-8.6 0-2.6-.1-4.9-.3-7-.3-2.1-.7-3.9-1.4-5.5-1.3-3.4-3.2-5.8-5.7-7.4-2.7-1.5-5.6-2.2-8.7-2.2m47.8-9.7v7.5l.4.2c2.6-3 5.5-5.1 8.6-6.4s6.4-1.9 9.7-1.9c4.8 0 8.7.9 11.9 2.9 3.1 2 5.6 4.5 7.4 7.8 1.8 3.2 3 6.8 3.7 10.9s1 8.1 1 12.3c0 4.3-.3 8.6-1.1 12.9-.7 4.2-2.1 7.9-4.1 11.2s-4.7 5.9-8.1 7.9c-3.4 2.1-7.7 3-12.9 3-3.4 0-6.4-.5-9.1-1.6-2.8-1-5.2-2.8-7.2-5.1h-.3v32.8h-11v-94.3h11.1zm0 33.9c0 2.5.2 5.2.5 7.9.3 2.8 1 5.3 2.1 7.6 1 2.2 2.6 4.1 4.6 5.6s4.7 2.2 8.1 2.2c3.5 0 6.3-.7 8.5-2.1 2.1-1.4 3.6-3.2 4.7-5.4s1.8-4.7 2.2-7.5c.3-2.8.5-5.5.5-8.2 0-2.6-.2-5.4-.4-8.1-.3-2.8-.9-5.4-1.9-7.6-1-2.3-2.5-4.2-4.6-5.7s-4.8-2.2-8.4-2.2c-3.5 0-6.2.8-8.3 2.3-2.1 1.6-3.7 3.5-4.8 5.8s-1.9 4.8-2.2 7.6q-.6 4.05-.6 7.8m69.3 33.4c-4.9 0-8.9-1.1-11.9-3.5-3.1-2.3-4.7-6.4-4.7-12.2v-83H293v82c0 4.2 2.3 6.4 6.9 6.4h3.3v10.2c0 .1-4.8.1-4.8.1m20.8-29.8v1.1c0 2.7.3 5.2 1.1 7.5.7 2.3 1.8 4.4 3.3 6.2s3.3 3.2 5.4 4.1c2.2 1 4.7 1.5 7.6 1.5 2.2 0 4.7-.5 7.5-1.6s5.4-2.7 7.7-4.7l7.2 8c-3.2 3-6.7 5.3-10.7 6.6-4 1.4-8 2-12.3 2-3.5 0-6.8-.5-10.3-1.5-3.4-.9-6.5-2.7-9.1-5.3-2.7-2.5-4.9-6-6.6-10.4s-2.5-10.1-2.5-17.1c0-6.6.9-12.2 2.6-16.7s4-8 6.6-10.7c2.7-2.7 5.8-4.6 9.1-5.7 3.4-1.1 6.6-1.7 9.8-1.7 3.7 0 7.2.7 10.4 2 3.3 1.3 6.1 3.3 8.5 5.8s4.4 5.6 5.8 9.3c1.4 3.6 2.1 7.9 2.1 12.6v8.7zm15.9-27.8c-4.6 0-8.3 1.6-11.1 4.7-2.8 3.2-4.4 7.7-4.7 13.6H351c-.3-6-1.8-10.6-4.6-13.7-2.9-3-6.6-4.6-11.3-4.6"/><path d="M439.4 299.5c-2.3 6.3-6.2 11.3-11.6 14.8s-11.8 5.3-19.5 5.3c-5.6 0-10.5-.9-14.8-2.8-4.2-1.9-7.8-4.4-10.5-7.6q-4.2-4.8-6.3-11.1t-2.1-13.5v-26c0-4.6.7-9.1 2.1-13.2q2.1-6.3 6.3-11.1c2.8-3.2 6.4-5.8 10.5-7.7 4.2-1.9 9.1-2.8 14.8-2.8 7.7 0 14.2 1.8 19.4 5.4 5.3 3.6 9.1 8.5 11.6 14.5l-11.1 5c-1.6-4.1-4-7.3-7.3-9.8q-5.1-3.6-12.3-3.6c-3.7 0-6.9.7-9.7 2.1-2.7 1.4-5 3.1-6.8 5.4-1.8 2.2-3.2 4.7-4.1 7.7-.9 2.9-1.4 5.9-1.4 8.8v24.6c0 3.2.4 6.2 1.4 9.1.9 2.9 2.2 5.5 4.1 7.8 1.8 2.2 4.1 4.1 6.8 5.5s6 2.1 9.7 2.1c4.9 0 9.1-1.3 12.4-3.9 3.4-2.6 5.9-6 7.4-10.3zm15.5-10.6v1.1c0 2.7.3 5.2 1.1 7.5.7 2.3 1.8 4.4 3.3 6.2s3.3 3.2 5.4 4.1c2.2 1 4.7 1.5 7.6 1.5 2.2 0 4.7-.5 7.5-1.6s5.4-2.7 7.7-4.7l7.2 8c-3.2 3-6.7 5.3-10.7 6.6-4 1.4-8 2-12.3 2-3.5 0-6.8-.5-10.3-1.5-3.4-.9-6.5-2.7-9.1-5.3-2.7-2.5-4.9-6-6.6-10.4s-2.5-10.1-2.5-17.1c0-6.6.9-12.2 2.6-16.7s4-8 6.6-10.7c2.7-2.7 5.8-4.6 9.1-5.7 3.4-1.1 6.6-1.7 9.8-1.7 3.7 0 7.2.7 10.4 2 3.3 1.3 6.1 3.3 8.5 5.8s4.4 5.6 5.8 9.3c1.4 3.6 2.1 7.9 2.1 12.6v8.7zm15.9-27.8c-4.6 0-8.3 1.6-11.1 4.7s-4.4 7.7-4.7 13.6h31.7c-.3-6-1.8-10.6-4.6-13.7-3-3-6.7-4.6-11.3-4.6m72.3 3.2c-2.6-1.7-5.8-2.6-9.5-2.6-4.4 0-8.1 1.4-11 4.1s-4.3 6.8-4.3 12.3v40.7h-11.1v-67.3h11.1v8.5h.5c2.3-3.5 5-5.9 7.9-7.2 2.9-1.4 6.1-2.1 9.8-2.1 2.3 0 4.5.3 6.6.8 2 .5 3.6 1.2 4.9 2.1zm32.7 54.4c-4.6 0-8.4-1.3-11.3-4s-4.3-6.6-4.3-11.7v-42h-8v-9.7h8v-16.7h11.1v16.7h10.4v9.7h-10.4v39.1c0 2.1.4 4 1.2 5.8.8 1.7 2.6 2.7 5.4 2.7h5.9v10.2z" style="fill:#ff3200"/><path d="m143 419.7-2.8-8.2h-14.8l-2.8 8.2h-4.7l13.1-35.8h3.9l13.1 35.8zm-7.7-22.2-2.6-7.7h-.2l-2.5 7.4-3.5 10.3h12.3zm20.4 22.2c-1.8 0-3.4-.4-4.6-1.3s-1.7-2.4-1.7-4.6v-31.5h4.2v31.1c0 1.6.9 2.4 2.6 2.4h1.2v3.9zm10.5 0c-1.8 0-3.4-.4-4.6-1.3s-1.7-2.4-1.7-4.6v-31.5h4.2v31.1c0 1.6.9 2.4 2.6 2.4h1.2v3.9zm20.9 0c-1.7 0-3.2-.5-4.3-1.6s-1.6-2.5-1.6-4.5v-15.9h-3v-3.6h3v-6.3h4.2v6.3h3.9v3.6h-3.9v14.8c0 .8.2 1.6.4 2.2.3.7 1 1 2.1 1h2.2v3.9h-3zm15-25.8c1.4 0 2.7.2 4 .3 1.2.3 2.3.7 3.3 1.3s1.7 1.5 2.2 2.5.9 2.4.9 4.1v17.5h-4.2v-2.2l-.1-.1c-.5.8-1.4 1.4-2.6 1.9s-2.8.7-4.5.7c-2.9 0-5.2-.7-6.7-2.2-1.6-1.4-2.3-3.2-2.3-5.4 0-1 .2-2 .5-2.8.3-.9.9-1.7 1.6-2.4s1.5-1.2 2.5-1.6 2.2-.6 3.5-.6h8v-2.8c0-1.4-.4-2.4-1.4-3.1-.9-.7-2.4-1-4.5-1-1.6 0-2.8.2-3.8.6s-1.7.9-2.2 1.6l-2.7-2.8c.9-1.1 2.2-1.9 3.7-2.5 1.4-.7 3.1-1 4.8-1m-6.1 18.3c0 1.2.4 2.2 1.4 2.8s2.3 1.1 4.2 1.1c.9 0 1.6-.1 2.4-.2.8-.2 1.5-.3 2.1-.8.6-.3 1.1-.9 1.5-1.5.3-.6.6-1.4.6-2.3v-3h-7c-1.6 0-2.9.3-3.8.9-1 .9-1.4 1.8-1.4 3m26.7 7.5c-1.9 0-3.4-.4-4.6-1.3s-1.7-2.4-1.7-4.6v-31.5h4.2v31.1c0 1.6.9 2.4 2.6 2.4h1.2v3.9zm7.1-11.3v.4c0 1 .2 2 .4 2.8s.7 1.7 1.2 2.3c.5.7 1.2 1.2 2.1 1.6s1.8.6 2.8.6c.9 0 1.8-.2 2.8-.6s2.1-1 2.9-1.8l2.8 3c-1.2 1.1-2.6 2-4.1 2.5s-3 .8-4.7.8c-1.3 0-2.6-.2-3.9-.5s-2.4-1-3.5-2c-1-.9-1.9-2.2-2.5-4-.6-1.6-.9-3.9-.9-6.5q0-3.75.9-6.3c.7-1.7 1.5-3 2.5-4.1 1-1 2.2-1.7 3.5-2.2 1.3-.4 2.5-.6 3.7-.6 1.4 0 2.8.3 4 .8s2.3 1.2 3.3 2.2c.9.9 1.6 2.2 2.2 3.5.5 1.4.8 3 .8 4.7v3.3zm6-10.5c-1.7 0-3.2.6-4.2 1.8s-1.6 2.9-1.8 5.2h12c-.1-2.3-.7-4.1-1.7-5.2-1.1-1.2-2.5-1.8-4.3-1.8m29.2 21.8v-15.3c0-2-.4-3.5-1.2-4.7-.9-1.1-2.3-1.7-4.6-1.7-1.7 0-3.1.6-4.3 1.7-1.1 1.1-1.7 2.7-1.7 4.7v15.3H249v-25.6h4.2v3.3h.2c.9-1.1 2-2 3.3-2.6s2.7-.9 4.1-.9c1.2 0 2.3.2 3.4.5 1 .3 1.9.9 2.7 1.6.8.8 1.4 1.6 1.8 2.8q.6 1.65.6 3.9v16.9zm15.8 0c-1.7 0-3.2-.5-4.3-1.6s-1.6-2.5-1.6-4.5v-15.9h-3v-3.6h3v-6.3h4.2v6.3h3.9v3.6h-3.9v14.8c0 .8.2 1.6.4 2.2.3.7 1 1 2.1 1h2.2v3.9h-3zm24.8-7.6c0 1.2-.3 2.3-.8 3.3-.5.9-1.2 1.8-2.1 2.5s-2 1.2-3.2 1.6c-1.2.3-2.6.6-4.1.6-1.8 0-3.7-.3-5.5-.9s-3.5-1.6-5.1-2.8l2.6-3.3c1.2 1 2.5 1.8 3.8 2.3s2.8.8 4.5.8c1.6 0 2.8-.3 4-.9 1.1-.7 1.6-1.6 1.6-3 0-1.3-.5-2.2-1.6-2.7-1.1-.4-2.5-.8-4.2-.9-1-.1-2.1-.3-3.1-.4s-2.1-.5-2.9-1c-.9-.5-1.6-1.1-2.2-2.1-.6-.9-.9-2.1-.9-3.5 0-1.2.3-2.2.8-3.2s1.2-1.8 2.1-2.4c.9-.7 1.8-1.2 3-1.6 1.1-.3 2.3-.5 3.5-.5 2 0 3.7.3 5.1.7 1.5.5 2.8 1.1 4 2.1l-2.2 3.4c-1-.7-2.1-1.2-3.1-1.6-1.1-.4-2.3-.6-3.7-.6-1.6 0-2.9.3-3.8 1s-1.4 1.6-1.4 2.8.6 2 1.7 2.4 2.9.8 5.3 1c.9.1 1.8.3 2.8.5.9.3 1.8.7 2.6 1.2s1.4 1.2 1.9 2.2c.3.7.6 1.8.6 3m5.7 13.5h-2.6l1.6-5.8h-1.5v-5.7h5.3v5.6zm32.2-6.5c-1.4.7-2.9.9-4.7.9-1.5 0-2.9-.3-4.3-.7-1.4-.5-2.6-1.2-3.7-2.3-1.1-1-2-2.4-2.6-4.1-.7-1.6-.9-3.6-.9-6s.3-4.4.9-6c.7-1.6 1.6-3 2.6-4.1 1.1-1 2.3-1.8 3.7-2.3s2.8-.7 4.3-.7c1.7 0 3.3.3 4.7.9 1.4.7 2.6 1.5 3.7 2.6l-2.8 3.1c-.7-.8-1.5-1.4-2.5-1.9-.9-.4-2-.7-2.9-.7-2.4 0-4.2.8-5.6 2.2-1.3 1.5-2 3.7-2 6.8 0 3 .7 5.3 2 6.7 1.3 1.5 3.2 2.2 5.6 2.2 1.1 0 2.2-.3 3.1-.8s1.7-1.1 2.3-1.8l2.8 3c-1.1 1.5-2.3 2.3-3.7 3m8.9-10.7v.4c0 1 .2 2 .4 2.8.3.9.7 1.7 1.2 2.3.5.7 1.2 1.2 2.1 1.6.9.3 1.8.6 2.8.6.9 0 1.8-.2 2.8-.6s2.1-1 2.9-1.8l2.8 3c-1.2 1.1-2.6 2-4.1 2.5s-3 .8-4.7.8c-1.3 0-2.6-.2-3.9-.5s-2.4-1-3.5-2c-1-.9-1.9-2.2-2.5-4-.6-1.6-.9-3.9-.9-6.5q0-3.75.9-6.3c.7-1.7 1.5-3 2.5-4.1s2.2-1.7 3.5-2.2c1.3-.4 2.5-.6 3.7-.6 1.4 0 2.8.3 4 .8s2.3 1.2 3.3 2.2c.9.9 1.6 2.2 2.2 3.5s.8 3 .8 4.7v3.3zm6-10.5c-1.7 0-3.2.6-4.2 1.8s-1.6 2.9-1.8 5.2h12c-.1-2.3-.7-4.1-1.7-5.2-1.2-1.2-2.6-1.8-4.3-1.8m27.4 1.2c-1-.7-2.2-.9-3.6-.9-1.6 0-3.1.5-4.1 1.6-1.1 1-1.6 2.6-1.6 4.7V420h-4.2v-25.6h4.2v3.3h.2c.9-1.3 1.9-2.2 3-2.8s2.3-.8 3.7-.8c.9 0 1.7.1 2.5.3s1.4.4 1.9.8z"/><path d="M396.1 419.7c-1.7 0-3.2-.5-4.3-1.6s-1.6-2.5-1.6-4.5v-15.9h-3v-3.6h3v-6.3h4.2v6.3h3.9v3.6h-3.9v14.8c0 .8.2 1.6.4 2.2.3.7 1 1 2.1 1h2.2v3.9h-3zm6.8-31.7v-4.1h4.2v4.1zm0 31.7v-25.6h4.2v25.6zm22.4 0v-21.8h-8.2v21.8h-4.2v-21.8h-3.1v-3.7h3.1V390c0-1.6.3-2.9.7-4.1.5-1 1.1-1.9 2-2.5.8-.6 1.7-1 2.8-1.3 1-.3 2.2-.3 3.4-.3 3.5 0 6.3 1.1 8.2 3.3l-2.8 2.8c-.6-.7-1.3-1.2-2.2-1.6s-2-.6-3.4-.6c-2.8 0-4.3 1.4-4.3 4.1v4.2h12.4v25.6zm12.4-11.3v.4c0 1 .2 2 .4 2.8.3.9.7 1.7 1.2 2.3.5.7 1.2 1.2 2.1 1.6.9.3 1.8.6 2.8.6.9 0 1.8-.2 2.8-.6s2.1-1 2.9-1.8l2.8 3c-1.2 1.1-2.6 2-4.1 2.5s-3 .8-4.7.8c-1.3 0-2.6-.2-3.9-.5s-2.4-1-3.5-2c-1-.9-1.9-2.2-2.5-4-.6-1.6-.9-3.9-.9-6.5q0-3.75.9-6.3c.7-1.7 1.5-3 2.5-4.1s2.2-1.7 3.5-2.2c1.3-.4 2.5-.6 3.7-.6 1.4 0 2.8.3 4 .8s2.3 1.2 3.3 2.2c.9.9 1.6 2.2 2.2 3.5s.8 3 .8 4.7v3.3zm6-10.5c-1.7 0-3.2.6-4.2 1.8s-1.6 2.9-1.8 5.2h12c-.1-2.3-.7-4.1-1.7-5.2-1.2-1.2-2.6-1.8-4.3-1.8m28.8 21.8v-2.5l-.2-.1c-1.1 1.1-2.3 1.8-3.5 2.2s-2.4.6-3.7.6c-1.8 0-3.3-.3-4.5-1-1.1-.7-2.1-1.6-2.8-2.8s-1.1-2.5-1.3-4.1c-.3-1.6-.3-3.2-.3-4.9 0-1.6.2-3.3.4-4.8.3-1.6.8-3 1.6-4.2s1.7-2.2 3-3 2.9-1.1 4.9-1.1c1.3 0 2.4.2 3.5.6s2 1 2.6 1.9h.1v-14.2h4.2v37.4zm0-12.8c0-.9-.1-2-.2-3s-.3-2-.8-2.8c-.4-.9-.9-1.6-1.7-2.2-.8-.5-1.8-.9-3.1-.9s-2.4.3-3.2.8-1.4 1.2-1.8 2.1-.7 1.8-.9 2.8-.2 2.1-.2 3.1c0 1.2.1 2.3.2 3.4.1 1 .3 2 .8 2.8.4.9.9 1.5 1.7 2s1.8.7 3.1.7 2.3-.3 3.1-.9 1.4-1.3 1.8-2.2.7-1.8.9-2.9c.2-.9.3-1.8.3-2.8m8.5 12.8V414h5.3v5.7z"/><path d="M620 230c0 1.6-.3 3.2-.9 4.6s-1.4 2.6-2.3 3.6c-1 1-2.2 1.8-3.5 2.4-1.4.6-2.8.9-4.5.9-1.6 0-3-.3-4.4-.9q-2.1-.9-3.6-2.4c-1-1-1.8-2.2-2.3-3.6-.6-1.4-.9-2.9-.9-4.6 0-1.6.3-3.2.9-4.6s1.4-2.7 2.3-3.7q1.5-1.5 3.6-2.4c1.4-.6 2.8-.9 4.4-.9q2.4 0 4.5.9c2.1.9 2.6 1.4 3.5 2.4 1 1 1.8 2.2 2.3 3.7.7 1.5.9 2.9.9 4.6m-2.1 0c0-1.4-.3-2.6-.7-3.8-.4-1.1-1.1-2.2-1.9-3-.8-.9-1.7-1.5-2.8-2s-2.3-.7-3.6-.7-2.5.3-3.6.7c-1.1.5-2.1 1.1-2.8 2s-1.5 1.8-1.9 3c-.4 1.1-.7 2.4-.7 3.8 0 1.3.3 2.6.7 3.7s1.1 2.2 1.9 3c.8.9 1.7 1.5 2.8 2s2.3.7 3.6.7 2.5-.3 3.6-.7c1.1-.5 2.1-1.1 2.8-2 .8-.9 1.5-1.8 1.9-3 .4-1.1.7-2.3.7-3.7m-8.8 1.1h-2.2v5.6h-2.2v-13.4h5.4c1 0 2 .3 2.8 1s1.1 1.6 1.1 2.8c0 .9-.3 1.6-.7 2.2s-1 1.1-1.8 1.4l3 5.9H612zm-2.3-5.7v3.6h2.8c.6 0 1.1-.2 1.5-.5.3-.3.6-.8.6-1.4 0-1.2-.7-1.7-2-1.7z" style="fill:#231f20"/></svg>